<?xml version="1.0" standalone="no"?>
<!DOCTYPE svg PUBLIC "-//W3C//DTD SVG 1.1//EN" "http://www.w3.org/Graphics/SVG/1.1/DTD/svg11.dtd" >
<!--
Created with mf2outline.
-->
<svg xmlns="http://www.w3.org/2000/svg" xmlns:xlink="http://www.w3.org/1999/xlink" version="1.1">
<metadata>
Created by FontForge 20201107 at Wed Jan 24 22:09:37 2024
 By 
Copyright (c) 2024, Metaflop (http://www.metaflop.com), Simon Egli, Marco Mueller, Alexis Reigel, with Reserved Font Name Bespoke. Dual licensed under the GPL v3 (http://www.gnu.org/copyleft/gpl.html) and the OFL v1.1 (http://scripts.sil.org/OFL_web).
</metadata>
<defs>
<font id="Bespoke-S33ArGEPn5" horiz-adv-x="565" >
  <font-face 
    font-family="Bespoke"
    font-weight="500"
    font-stretch="normal"
    units-per-em="1000"
    panose-1="2 0 5 3 0 0 0 0 0 0"
    ascent="800"
    descent="-200"
    x-height="970"
    cap-height="1000"
    bbox="-180 -819 1196 1525"
    underline-thickness="50"
    underline-position="-100"
    unicode-range="U+0020-FB04"
  />
    <missing-glyph />
    <glyph glyph-name="fi" unicode="fi" horiz-adv-x="559" 
d="M194 911l9 59h54l21 142c7 49 70 61 107 94c37 34 55 97 104 97h12c49 0 48 -63 75 -97c23 -28 68 -41 78 -73l-114 -21v7c0 22 -18 38 -25 58c-3 8 -3 17 -3 26v7c0 18 -1 34 -20 34h-12c-31 0 -27 -43 -43 -67c-15 -22 -40 -40 -44 -65l-21 -142h261l-145 -970h-115
l137 911h-147l-137 -911h-115l137 911h-54z" />
    <glyph glyph-name="guillemotright" unicode="&#x3e;&#x3e;" horiz-adv-x="559" 
d="M352 485l-175 -485h-123l175 485l-30 485h123zM578 485l-175 -485h-123l175 485l-30 485h123z" />
    <glyph glyph-name="guillemotleft" unicode="&#x3c;&#x3c;" horiz-adv-x="559" 
d="M250 485l30 -485h-124l-30 485l176 485h123zM476 485l30 -485h-123l-31 485l176 485h123z" />
    <glyph glyph-name="quotedblright" unicode="&#x2019;&#x2019;" horiz-adv-x="547" 
d="M181 675l131 325h116l-162 -325h-85zM514 1000h123l-163 -325h-91z" />
    <glyph glyph-name="exclamdown" unicode="&#x21;&#x2018;" horiz-adv-x="377" 
d="M27 -690l198 1318h115l-198 -1318h-115zM338 1000c29 0 30 -38 46 -57c16 -18 49 -24 49 -49c0 -34 -42 -39 -65 -59c-22 -19 -34 -57 -63 -57s-30 38 -46 57c-16 18 -48 24 -48 49c0 34 42 39 65 59c22 19 33 57 62 57z" />
    <glyph glyph-name="fl" unicode="fl" horiz-adv-x="589" 
d="M468 1178c2 15 -11 23 -11 40v14c0 7 -1 12 -9 12h-5c-15 0 -13 -22 -20 -34c-7 -11 -17 -20 -19 -32l-32 -208h79l-9 -59h-79l-136 -911h-115l136 911h-54l9 59h54l31 208c5 36 54 39 83 61c28 22 46 64 81 64h5c35 0 39 -42 61 -64c11 -11 28 -16 42 -24zM403 0
l183 1220h115l-183 -1220h-115z" />
    <glyph glyph-name="questiondown" unicode="&#x3f;&#x2018;" horiz-adv-x="512" 
d="M328 628h115l-68 -458h-66c-102 0 -47 -134 -77 -216c-25 -70 -67 -136 -78 -208l-5 -35c-2 -14 -3 -28 -3 -42c0 -56 14 -110 18 -166c0 -2 1 -5 1 -7c0 -52 -36 -124 -36 -168c0 -25 12 -42 48 -42h15c102 0 48 135 78 217c23 62 58 121 73 184l100 -35
c-30 -62 -85 -116 -121 -178c-52 -90 -25 -247 -138 -247h-16c-54 0 -66 35 -66 82c0 35 7 77 7 115c0 18 -1 35 -5 50c-20 73 -72 134 -72 211c0 8 1 17 2 26l5 35c13 89 94 156 141 237c42 72 32 188 86 230zM441 1000c29 0 30 -38 46 -57c16 -18 49 -24 49 -49
c0 -34 -42 -39 -65 -59c-22 -19 -34 -57 -63 -57s-29 38 -45 57c-16 18 -49 24 -49 49c0 34 42 39 65 59c22 19 33 57 62 57z" />
    <glyph glyph-name="endash" unicode="&#x2d;&#x2d;" horiz-adv-x="559" 
d="M104 456l9 58h488l-9 -58h-488z" />
    <glyph glyph-name="emdash" unicode="&#x2013;&#x2d;" horiz-adv-x="976" 
d="M104 456l9 58h904l-9 -58h-904z" />
    <glyph glyph-name="quotedblleft" unicode="&#x2018;&#x2018;" horiz-adv-x="547" 
d="M166 675l161 325h86l-132 -325h-115zM530 1000h91l-131 -325h-123z" />
    <glyph glyph-name="ring" unicode="&#x2da;" horiz-adv-x="250" 
d="M275 980h-6c-18 0 -16 -25 -25 -39c-11 -16 -27 -24 -27 -48c0 -16 16 -27 16 -47v-8c0 -10 2 -18 12 -18h6c18 0 16 25 25 39c11 16 26 24 26 48c0 16 -15 27 -15 47v8c0 10 -2 18 -12 18zM281 1020c31 0 31 -40 48 -60c16 -19 50 -26 50 -52v-5l-1 -6
c-5 -30 -44 -37 -67 -57s-35 -60 -66 -60h-6c-31 0 -31 40 -48 60c-16 19 -50 26 -50 52v5l1 6c5 30 44 37 67 57s35 60 66 60h6z" />
    <glyph glyph-name="rcaron" unicode="&#x159;" horiz-adv-x="400" 
d="M71 0l146 970h115l-31 -208c16 33 35 66 49 100c30 72 -12 191 77 191h15c88 0 42 -122 68 -191c22 -58 75 -103 75 -166c0 -6 0 -12 -1 -18h-115c1 8 1 17 1 25c0 44 -15 86 -20 130c0 3 -1 7 -1 10c0 37 20 84 20 116c0 21 -8 35 -36 35h-14c-75 0 -40 -101 -65 -161
c-21 -52 -58 -101 -66 -155l-102 -678h-115zM433 1479h90l-111 -200h-122l-51 200h90l38 -92z" />
    <glyph glyph-name="Eng" unicode="&#x14a;" horiz-adv-x="744" 
d="M83 0l150 1000h58l289 -767l115 767h115c-69 -457 -136 -914 -205 -1371c-11 -75 -82 -130 -123 -197c-45 -74 -26 -205 -120 -205h-12c-47 0 -56 33 -56 75c0 25 3 54 3 81v6l43 7c-9 -28 -19 -56 -19 -77c0 -20 10 -33 38 -33h12c47 0 52 36 52 79v35c0 22 1 43 7 61
c20 56 51 110 60 168l72 479l-249 659l-115 -767h-115z" />
    <glyph glyph-name="Q" unicode="Q" horiz-adv-x="833" 
d="M590 1024h-40c-118 0 -94 -164 -150 -257c-51 -84 -139 -152 -153 -246l-7 -42c-1 -9 -1 -17 -1 -25c0 -81 58 -145 81 -221c6 -18 7 -39 7 -61c0 -34 -4 -70 -4 -102c0 -53 11 -94 70 -94h40c88 0 97 92 119 177l-98 155h144l18 -28c49 64 109 123 120 199l7 42
c1 9 1 17 1 25c0 81 -58 145 -81 221c-6 18 -7 39 -7 61c0 34 4 70 4 102c0 53 -11 94 -70 94zM599 1083c134 0 78 -185 125 -287c41 -88 135 -151 135 -251c0 -8 0 -16 -1 -24l-7 -42c-16 -106 -125 -170 -199 -255l142 -224h-145l-66 104c-36 -92 -63 -187 -159 -187h-40
c-134 0 -78 185 -125 287c-41 88 -135 151 -135 251c0 8 0 16 1 24l7 42c17 115 143 180 216 275c78 102 77 287 211 287h40z" />
    <glyph glyph-name="Abreve" unicode="&#x102;" horiz-adv-x="660" 
d="M12 0l439 1000h58l140 -1000h-117l-45 325h-267l-143 -325h-65zM303 1223c0 4 0 9 1 13h92l-1 -6c-3 -20 21 -25 31 -39c11 -14 9 -40 29 -40h13c20 0 26 26 41 40s40 19 43 39l1 6h92l-1 -6c-6 -41 -61 -42 -94 -65c-32 -23 -52 -66 -90 -66h-12c-38 0 -46 43 -71 66
c-24 22 -74 23 -74 58zM479 384l-56 403l-177 -403h233z" />
    <glyph glyph-name="i" unicode="i" horiz-adv-x="226" 
d="M56 0l145 970h115l-145 -970h-115zM256 1429c30 0 29 -38 46 -58c16 -19 50 -24 50 -50c0 -34 -43 -41 -66 -61s-34 -58 -64 -58s-30 38 -47 58c-16 19 -50 25 -50 51c0 34 43 40 66 60s35 58 65 58z" />
    <glyph glyph-name="quoteright" unicode="&#x2019;" horiz-adv-x="303" 
d="M287 1000h123l-164 -325h-91z" />
    <glyph glyph-name="Gbreve" unicode="&#x11e;" horiz-adv-x="851" 
d="M779 0h-115l47 311c-35 -56 -94 -102 -132 -159c-58 -85 -46 -235 -155 -235h-40c-134 0 -78 185 -125 287c-41 88 -135 151 -135 251c0 8 0 16 1 24l7 42c17 115 143 180 216 275c78 102 77 287 211 287h40c134 0 78 -185 125 -287c28 -61 82 -109 113 -166h37z
M389 1223c0 4 0 9 1 13h92l-1 -6c-3 -20 21 -25 31 -39c11 -14 10 -40 30 -40h12c20 0 26 26 41 40s40 19 43 39l1 6h92l-1 -6c-6 -41 -60 -42 -93 -65c-32 -23 -53 -66 -91 -66h-12c-38 0 -46 43 -71 66c-24 22 -74 23 -74 58zM726 630c-26 64 -70 111 -70 198
c0 34 4 70 4 102c0 53 -11 94 -70 94h-40c-118 0 -94 -164 -150 -257c-51 -84 -139 -152 -153 -246l-7 -42c-1 -9 -1 -17 -1 -25c0 -81 58 -145 81 -221c6 -18 7 -39 7 -61c0 -34 -4 -70 -4 -102c0 -53 11 -94 70 -94h40c95 0 89 131 142 205c49 68 134 117 146 197l25 166
l-2 -1c0 9 0 19 -1 28h-241l9 59h215z" />
    <glyph glyph-name="Ohungarumlaut" unicode="&#x150;" horiz-adv-x="833" 
d="M384 1075l121 200h123l-153 -200h-91zM683 1275h124l-153 -200h-14c80 -36 43 -190 84 -279c41 -88 135 -151 135 -251c0 -8 0 -16 -1 -24l-7 -42c-17 -115 -143 -180 -216 -275c-78 -102 -77 -287 -211 -287h-40c-134 0 -78 185 -125 287c-41 88 -135 151 -135 251
c0 8 0 16 1 24l7 42c17 115 143 180 216 275c78 102 77 287 211 287h8zM590 1024h-40c-118 0 -94 -164 -150 -257c-51 -84 -139 -152 -153 -246l-7 -42c-1 -9 -1 -17 -1 -25c0 -81 58 -145 81 -221c6 -18 7 -39 7 -61c0 -34 -4 -70 -4 -102c0 -53 11 -94 70 -94h40
c118 0 94 164 150 257c51 84 139 152 153 246l7 42c1 9 1 17 1 25c0 81 -58 145 -81 221c-6 18 -7 39 -7 61c0 34 4 70 4 102c0 53 -11 94 -70 94z" />
    <glyph glyph-name="racute" unicode="&#x155;" horiz-adv-x="400" 
d="M71 0l146 970h115l-31 -208c16 33 35 66 49 100c30 72 -12 191 77 191h15c88 0 42 -122 68 -191c22 -58 75 -103 75 -166c0 -6 0 -12 -1 -18h-115c1 8 1 17 1 25c0 44 -15 86 -20 130c0 3 -1 7 -1 10c0 37 20 84 20 116c0 21 -8 35 -36 35h-14c-75 0 -40 -101 -65 -161
c-21 -52 -58 -101 -66 -155l-102 -678h-115zM416 1479h126l-163 -200h-92z" />
    <glyph glyph-name="udieresis" unicode="&#xfc;" 
d="M639 970l-145 -970h-115l28 188c-17 -32 -38 -63 -53 -95c-30 -65 2 -176 -79 -176h-16c-82 0 -46 113 -74 176c-24 54 -81 93 -81 154c0 5 0 10 1 15l106 708h115l-106 -708c-1 -6 -2 -13 -2 -19c0 -42 20 -80 27 -121c1 -4 1 -9 1 -14c0 -31 -12 -69 -12 -96
c0 -21 7 -36 34 -36h16c67 0 42 92 67 146c22 47 59 90 67 140l106 708h115zM315 1429c30 0 30 -38 47 -58c13 -15 37 -22 46 -37c14 15 40 22 57 37c23 20 34 58 64 58s30 -38 47 -58c16 -19 50 -24 50 -50c0 -34 -44 -41 -67 -61s-34 -58 -64 -58s-30 38 -47 58
c-13 15 -37 22 -46 37c-14 -15 -40 -22 -57 -37c-23 -20 -34 -58 -64 -58s-30 38 -47 58c-16 19 -50 25 -50 51c0 34 44 40 67 60s34 58 64 58z" />
    <glyph glyph-name="slash" unicode="/" horiz-adv-x="446" 
d="M16 -50l439 1100h125l-438 -1100h-126z" />
    <glyph glyph-name="asciitilde" unicode="~" horiz-adv-x="583" 
d="M214 340h-115c8 51 59 85 89 130c33 49 24 136 87 136c107 0 80 -183 187 -183c23 0 29 13 29 32c0 16 -4 37 -4 55c0 7 0 13 2 19c9 34 21 67 26 101h115c-8 -51 -59 -85 -89 -130c-33 -49 -25 -136 -88 -136c-107 0 -79 183 -186 183c-23 0 -29 -13 -29 -32
c0 -16 4 -37 4 -55c0 -7 0 -13 -2 -19c-9 -34 -21 -67 -26 -101z" />
    <glyph glyph-name="section" unicode="&#xa7;" 
d="M19 -508l96 66c0 -3 -1 -6 -1 -9c0 -42 20 -79 27 -120c1 -5 2 -9 2 -14c0 -30 -12 -66 -12 -93c0 -21 7 -36 34 -36h15c66 0 42 90 67 143c22 47 60 89 67 138l3 24c1 6 2 12 2 18c0 42 -20 79 -27 120c-1 5 -2 9 -2 14c0 30 12 66 12 93c0 21 -7 36 -34 36h-15
c-67 0 -51 91 -81 140c-27 44 -86 70 -86 123c0 4 0 7 1 11l3 18c9 61 82 87 125 134c36 40 51 109 91 132c-36 24 -25 100 -49 144c-26 47 -85 77 -85 133c0 4 0 8 1 12l4 24c10 69 86 108 130 166c47 62 46 174 127 174h16c81 0 47 -112 75 -174c18 -40 55 -71 72 -109
l-107 -57c1 6 2 12 2 18c0 42 -21 79 -28 120c-1 5 -1 9 -1 14c0 30 12 66 12 93c0 21 -7 36 -34 36h-16c-66 0 -41 -90 -66 -143c-22 -47 -60 -89 -67 -138l-4 -24c-1 -6 -1 -12 -1 -18c0 -42 20 -79 27 -120c1 -5 1 -9 1 -14c0 -30 -12 -66 -12 -93c0 -21 7 -36 34 -36h16
c67 0 50 -91 80 -140c27 -44 86 -70 86 -123c0 -4 0 -7 -1 -11l-2 -18c-9 -61 -83 -87 -126 -134c-36 -40 -50 -109 -90 -132c36 -24 25 -100 49 -144c26 -47 84 -77 84 -133c0 -4 0 -8 -1 -12l-3 -24c-10 -69 -86 -108 -130 -166c-47 -62 -46 -174 -127 -174h-16
c-81 0 -47 112 -75 174c-15 34 -43 60 -62 91zM404 175c0 42 -34 70 -34 116c0 17 3 36 3 52c0 21 -5 36 -29 36h-15c-50 0 -39 -70 -62 -110c-21 -36 -56 -66 -62 -105l-3 -18c-1 -4 0 -7 0 -11c0 -42 34 -70 34 -116c0 -17 -4 -36 -4 -52c0 -21 5 -36 29 -36h16
c50 0 38 70 61 110c21 36 57 66 63 105l2 18c1 4 1 7 1 11z" />
    <glyph glyph-name="guilsinglright" unicode="&#x203a;" horiz-adv-x="327" 
d="M346 485l-170 -485h-122l170 485l-25 485h123z" />
    <glyph glyph-name="Edieresis" unicode="&#xcb;" horiz-adv-x="553" 
d="M83 0l150 1000h56c-20 8 -22 39 -37 56c-16 19 -50 25 -50 51c0 34 44 40 67 60s34 58 64 58s30 -38 47 -58c13 -15 37 -22 46 -37c14 15 40 22 57 37c23 20 34 58 64 58s30 -38 47 -58c16 -19 50 -25 50 -51c0 -34 -44 -40 -67 -60c-20 -17 -31 -48 -53 -56h138l-9 -59
h-314l-46 -311h256l-9 -59h-256l-77 -512h314l-9 -59h-429zM503 1000c-20 8 -22 39 -37 56c-13 15 -37 22 -46 37c-14 -15 -40 -22 -57 -37c-20 -17 -31 -48 -53 -56h193z" />
    <glyph glyph-name="eng" unicode="&#x14b;" 
d="M71 0l146 970h115l-29 -194c20 34 46 66 64 101c34 65 7 176 88 176h16c81 0 40 -113 65 -176c21 -54 71 -94 71 -153c0 -5 0 -11 -1 -16c-54 -360 -108 -719 -162 -1079c-11 -72 -73 -130 -109 -197c-40 -75 -13 -205 -107 -205h-7c-42 0 -52 25 -52 60c0 30 7 68 9 102
l39 4c-11 -29 -24 -59 -24 -79c0 -17 9 -28 36 -28h8c39 0 48 23 48 55c0 26 -6 56 -6 85c0 12 1 24 4 35c15 56 38 111 46 168c54 360 108 719 162 1079c1 8 2 16 2 24c0 40 -13 77 -17 116c0 2 -1 4 -1 7c0 34 20 80 20 109c0 18 -8 30 -33 30h-15c-67 0 -48 -92 -77 -146
c-26 -48 -69 -88 -77 -140l-107 -708h-115z" />
    <glyph glyph-name="r" unicode="r" horiz-adv-x="400" 
d="M71 0l146 970h115l-31 -208c16 33 35 66 49 100c30 72 -12 191 77 191h15c88 0 42 -122 68 -191c22 -58 75 -103 75 -166c0 -6 0 -12 -1 -18h-115c1 8 1 17 1 25c0 44 -15 86 -20 130c0 3 -1 7 -1 10c0 37 20 84 20 116c0 21 -8 35 -36 35h-14c-75 0 -40 -101 -65 -161
c-21 -52 -58 -101 -66 -155l-102 -678h-115z" />
    <glyph glyph-name="u" unicode="u" 
d="M639 970l-145 -970h-115l28 188c-17 -32 -38 -63 -53 -95c-30 -65 2 -176 -79 -176h-16c-82 0 -46 113 -74 176c-24 54 -81 93 -81 154c0 5 0 10 1 15l106 708h115l-106 -708c-1 -6 -2 -13 -2 -19c0 -42 20 -80 27 -121c1 -4 1 -9 1 -14c0 -31 -12 -69 -12 -96
c0 -21 7 -36 34 -36h16c67 0 42 92 67 146c22 47 59 90 67 140l106 708h115z" />
    <glyph glyph-name="Odieresis" unicode="&#xd6;" horiz-adv-x="833" 
d="M452 1225c30 0 30 -38 47 -58c13 -15 37 -22 46 -37c14 15 40 22 57 37c23 20 34 58 64 58s30 -38 47 -58c16 -19 50 -25 50 -51c0 -34 -44 -40 -67 -60c-7 -6 -12 -13 -18 -21c29 -62 14 -169 46 -239c41 -88 135 -151 135 -251c0 -8 0 -16 -1 -24l-7 -42
c-17 -115 -143 -180 -216 -275c-78 -102 -77 -287 -211 -287h-40c-134 0 -78 185 -125 287c-41 88 -135 151 -135 251c0 8 0 16 1 24l7 42c17 115 143 180 216 275c76 99 78 278 201 287c-4 3 -8 6 -10 10c-14 -15 -40 -22 -57 -37c-23 -20 -34 -58 -64 -58s-30 38 -47 58
c-16 19 -50 25 -50 51c0 34 44 40 67 60s34 58 64 58zM590 1024h-40c-118 0 -94 -164 -150 -257c-51 -84 -139 -152 -153 -246l-7 -42c-1 -9 -1 -17 -1 -25c0 -81 58 -145 81 -221c6 -18 7 -39 7 -61c0 -34 -4 -70 -4 -102c0 -53 11 -94 70 -94h40c118 0 94 164 150 257
c51 84 139 152 153 246l7 42c1 9 1 17 1 25c0 81 -58 145 -81 221c-6 18 -7 39 -7 61c0 34 4 70 4 102c0 28 -3 54 -15 71c-4 -2 -8 -3 -13 -3c-16 0 -24 11 -30 25c-4 0 -8 1 -12 1z" />
    <glyph glyph-name="Zdotaccent" unicode="&#x17b;" horiz-adv-x="607" 
d="M171 941l9 59h222c-20 8 -22 39 -37 56c-16 19 -50 25 -50 51c0 34 44 40 67 60s34 58 64 58s30 -38 47 -58c16 -19 50 -25 50 -51c0 -34 -44 -40 -67 -60c-20 -17 -31 -48 -53 -56h304l-9 -58l-542 -883h410l-9 -59h-547l8 58l543 883h-410z" />
    <glyph glyph-name="Igrave" unicode="&#xcc;" horiz-adv-x="305" 
d="M95 0l150 1000h115l-150 -1000h-115zM142 1275h125l70 -200h-93z" />
    <glyph glyph-name="P" unicode="P" horiz-adv-x="607" 
d="M83 0l150 1000h241c67 0 64 -86 101 -132c34 -43 108 -59 108 -116c0 -3 0 -7 -1 -11l-2 -17c-10 -66 -95 -81 -145 -126c-50 -46 -75 -132 -142 -132h-125l-70 -466h-115zM339 941l-62 -416h125c48 0 52 65 81 101c28 34 76 56 82 98l2 17c0 3 1 6 1 9
c0 37 -38 57 -54 89c-19 36 -1 102 -49 102h-126z" />
    <glyph glyph-name="tcaron" unicode="&#x165;" horiz-adv-x="321" 
d="M171 911l8 59h70l37 250h115l-37 -250h69l-5 -35l115 285h123l-164 -325h-91l7 16h-63l-137 -911h-115l137 911h-69z" />
    <glyph glyph-name="Scedilla" unicode="&#x15e;" horiz-adv-x="619" 
d="M174 -519c5 -15 11 -29 11 -47c0 -22 -9 -49 -9 -68c0 -15 5 -26 25 -26h12c49 0 30 66 49 105c16 34 45 65 50 101l2 17c1 5 1 9 1 13c0 31 -15 58 -20 88c-1 3 -1 7 -1 11c0 22 9 49 9 68c0 15 -5 26 -25 26h-98l57 168c-27 32 -26 96 -52 136c-28 43 -86 69 -101 115
l112 36c-1 -4 -1 -8 -1 -12c0 -42 35 -72 50 -110c12 -31 3 -78 13 -105l9 27h86l-14 -41c32 20 35 80 60 117c29 42 78 75 85 124l3 19c3 21 4 41 4 61c0 59 -14 114 -55 151l-142 37c-66 60 -114 141 -114 234c0 13 1 27 3 41l3 20c10 67 90 97 137 148
c49 53 64 148 136 148h20c73 0 56 -98 89 -151c26 -42 80 -68 93 -113l-113 -10c-6 45 -45 72 -45 128c0 13 1 26 1 38c0 27 -4 49 -34 49h-20c-54 0 -47 -76 -74 -119c-25 -40 -68 -73 -75 -118l-3 -20c-3 -21 -5 -42 -5 -63c0 -60 16 -115 57 -153l142 -37
c65 -60 113 -139 113 -231c0 -13 -1 -26 -3 -40l-3 -19c-11 -71 -96 -101 -147 -154c-49 -52 -69 -143 -135 -152l-35 -101h3c60 0 36 -84 58 -130c19 -40 64 -67 64 -113c0 -4 0 -7 -1 -11l-2 -17c-8 -52 -66 -81 -100 -124c-36 -46 -38 -130 -98 -130h-12
c-60 0 -36 84 -58 130c-3 7 -8 13 -13 20z" />
    <glyph glyph-name="b" unicode="b" horiz-adv-x="613" 
d="M77 0l183 1220h115l-91 -612c24 55 55 110 77 166c42 105 -22 279 108 279h21c61 0 73 -40 73 -93c0 -40 -7 -88 -7 -131c0 -20 1 -38 6 -55c23 -83 81 -153 81 -240c0 -9 -1 -19 -2 -29l-6 -40c-15 -101 -106 -178 -159 -269c-59 -102 -29 -279 -157 -279h-20
c-48 0 -63 23 -63 58c0 56 39 143 39 208c0 5 -1 9 -1 13c-5 56 -20 111 -27 166l-55 -362h-115zM481 994h-21c-116 0 -58 -155 -95 -249c-32 -80 -85 -157 -97 -240l-6 -40c-2 -14 -3 -28 -3 -42c0 -67 22 -131 28 -198v-12c0 -59 -35 -136 -35 -186c0 -31 13 -51 55 -51
h21c116 0 59 155 96 249c32 80 84 157 96 240l6 40c2 14 3 28 3 42c0 67 -22 131 -28 198v12c0 59 35 136 35 186c0 31 -13 51 -55 51z" />
    <glyph glyph-name="Yacute" unicode="&#xdd;" horiz-adv-x="619" 
d="M156 1000h120l139 -454l276 454h72l-327 -538l-69 -462h-115l69 462zM495 1275h125l-162 -200h-93z" />
    <glyph glyph-name="ecircumflex" unicode="&#xea;" horiz-adv-x="589" 
d="M625 514c-3 -20 -6 -38 -9 -58h-385c-1 -10 -2 -21 -2 -31c0 -68 24 -133 31 -200v-13c0 -58 -33 -134 -33 -184c0 -31 13 -52 56 -52h22c90 0 56 123 90 195c30 63 81 121 91 188h115c-13 -86 -102 -142 -154 -217c-56 -81 -47 -225 -151 -225h-22c-62 0 -75 42 -75 96
c0 38 7 83 7 124c0 21 -2 41 -7 59c-24 83 -84 153 -84 240c0 9 1 19 2 29l6 40c15 101 109 177 163 269c60 102 31 279 159 279h21c62 0 75 -42 75 -96c0 -38 -6 -83 -6 -124c0 -21 2 -41 7 -59c24 -83 83 -153 83 -240c0 -6 0 -14 -1 -20h1zM509 514c1 10 2 21 2 31
c0 68 -23 133 -30 200c0 4 -1 8 -1 13c0 58 33 134 33 184c0 31 -13 52 -56 52h-21c-116 0 -60 -156 -98 -249c-31 -78 -83 -151 -98 -231h269zM431 1372l-66 -93h-90l112 200h121l52 -200h-90z" />
    <glyph glyph-name="ocircumflex" unicode="&#xf4;" horiz-adv-x="595" 
d="M457 994h-21c-116 0 -60 -156 -98 -249c-33 -81 -87 -157 -100 -240l-6 -40c-2 -14 -3 -27 -3 -40c0 -68 24 -133 31 -200v-13c0 -58 -33 -134 -33 -184c0 -31 13 -52 56 -52h22c116 0 60 156 98 249c33 81 86 157 99 240l6 40c2 14 3 27 3 40c0 68 -23 133 -30 200
c0 4 -1 8 -1 13c0 58 33 134 33 184c0 31 -13 52 -56 52zM466 1053c62 0 75 -42 75 -96c0 -38 -6 -83 -6 -124c0 -21 2 -41 7 -59c24 -83 83 -153 83 -240c0 -9 -1 -19 -2 -29l-6 -40c-15 -101 -108 -177 -162 -269c-60 -102 -31 -279 -159 -279h-22c-62 0 -75 42 -75 96
c0 38 7 83 7 124c0 21 -2 41 -7 59c-24 83 -84 153 -84 240c0 9 1 19 2 29l6 40c15 101 109 177 163 269c60 102 31 279 159 279h21zM431 1372l-66 -93h-90l112 200h121l52 -200h-90z" />
    <glyph glyph-name="eogonek" unicode="&#x119;" horiz-adv-x="589" 
d="M625 514c-3 -20 -6 -38 -9 -58h-385c-1 -10 -2 -21 -2 -31c0 -68 24 -133 31 -200v-13c0 -58 -33 -134 -33 -184c0 -10 2 -19 5 -27l24 46l66 -47l-12 -24c84 5 51 124 85 195c30 63 81 121 91 188h115c-13 -86 -102 -142 -154 -217c-56 -81 -47 -225 -151 -225h-17
l-71 -136c-32 -72 -66 -143 -77 -218l-2 -17c-1 -5 -1 -9 -1 -13c0 -31 15 -58 20 -88c1 -3 1 -7 1 -11c0 -22 -9 -49 -9 -68c0 -15 5 -26 25 -26h12c49 0 30 66 49 105c16 34 44 65 49 101h92c-8 -52 -66 -81 -100 -124c-36 -46 -37 -130 -97 -130h-12
c-60 0 -37 84 -59 130c-19 40 -63 67 -63 113c0 4 0 7 1 11l2 17c14 92 64 177 103 265l66 127c-7 16 -9 36 -9 58c0 38 7 83 7 124c0 21 -2 41 -7 59c-24 83 -84 153 -84 240c0 9 1 19 2 29l6 40c15 101 109 177 163 269c60 102 31 279 159 279h21c62 0 75 -42 75 -96
c0 -38 -6 -83 -6 -124c0 -21 2 -41 7 -59c24 -83 83 -153 83 -240c0 -6 0 -14 -1 -20h1zM509 514c1 10 2 21 2 31c0 68 -23 133 -30 200c0 4 -1 8 -1 13c0 58 33 134 33 184c0 31 -13 52 -56 52h-21c-116 0 -60 -156 -98 -249c-31 -78 -83 -151 -98 -231h269z" />
    <glyph glyph-name="ffi" unicode="&#xfb03;" horiz-adv-x="827" 
d="M808 1119c0 28 -25 44 -25 77v21c0 15 -2 27 -18 27h-11c-31 0 -26 -43 -41 -67c-14 -22 -38 -40 -42 -65l-21 -142h251l-145 -970h-115l136 911h-136l-137 -911h-115l137 911h-163l-137 -911h-115l137 911h-54l9 59h53l28 182c6 39 56 48 86 74c30 27 45 77 84 77h5
c39 0 39 -50 61 -77c15 -18 42 -28 56 -44l-107 -30c0 2 1 4 1 6c0 16 -11 28 -11 45c0 9 3 20 3 28c0 7 -2 13 -11 13h-6c-22 0 -14 -30 -23 -47c-8 -15 -21 -29 -23 -45l-28 -182h164l21 142c7 48 69 61 105 94c36 34 52 97 101 97h11c49 0 47 -63 73 -97
c22 -28 66 -41 75 -73l-114 -21c0 2 1 5 1 7z" />
    <glyph glyph-name="plus" unicode="+" horiz-adv-x="583" 
d="M380 970h115l-69 -456h187l-9 -58h-187l-68 -456h-115l68 456h-186l9 58h186z" />
    <glyph glyph-name="Eogonek" unicode="&#x118;" horiz-adv-x="553" 
d="M83 0l150 1000h429l-9 -59h-314l-46 -311h256l-9 -59h-256l-77 -512h314l-9 -59h-3l-115 -219c-32 -72 -65 -143 -76 -218l-2 -17c-1 -5 -1 -9 -1 -13c0 -31 15 -58 20 -88c1 -3 1 -7 1 -11c0 -22 -9 -49 -9 -68c0 -15 5 -26 25 -26h12c49 0 30 66 49 105
c16 34 44 65 49 101h92c-8 -52 -66 -81 -100 -124c-36 -46 -37 -130 -97 -130h-12c-60 0 -37 84 -59 130c-19 40 -63 67 -63 113c0 4 0 7 1 11l2 17c14 92 63 177 102 265l90 172h-335z" />
    <glyph glyph-name="R" unicode="R" horiz-adv-x="601" 
d="M83 0l150 1000h241c63 0 66 -80 103 -121c35 -39 109 -51 109 -106c0 -3 1 -6 0 -10l-3 -15c-10 -64 -93 -74 -143 -116c-30 -25 -52 -65 -78 -92l133 -540h-120l-123 511h-77l-77 -511h-115zM339 941l-55 -371h125c44 0 50 58 79 90c27 31 74 48 80 88l3 15v7
c0 34 -38 51 -55 80c-19 32 -7 91 -51 91h-126z" />
    <glyph glyph-name="ecaron" unicode="&#x11b;" horiz-adv-x="589" 
d="M625 514c-3 -20 -6 -38 -9 -58h-385c-1 -10 -2 -21 -2 -31c0 -68 24 -133 31 -200v-13c0 -58 -33 -134 -33 -184c0 -31 13 -52 56 -52h22c90 0 56 123 90 195c30 63 81 121 91 188h115c-13 -86 -102 -142 -154 -217c-56 -81 -47 -225 -151 -225h-22c-62 0 -75 42 -75 96
c0 38 7 83 7 124c0 21 -2 41 -7 59c-24 83 -84 153 -84 240c0 9 1 19 2 29l6 40c15 101 109 177 163 269c60 102 31 279 159 279h21c62 0 75 -42 75 -96c0 -38 -6 -83 -6 -124c0 -21 2 -41 7 -59c24 -83 83 -153 83 -240c0 -6 0 -14 -1 -20h1zM500 1479h90l-112 -200h-121
l-52 200h90l39 -92zM509 514c1 10 2 21 2 31c0 68 -23 133 -30 200c0 4 -1 8 -1 13c0 58 33 134 33 184c0 31 -13 52 -56 52h-21c-116 0 -60 -156 -98 -249c-31 -78 -83 -151 -98 -231h269z" />
    <glyph glyph-name="V" unicode="V" horiz-adv-x="626" 
d="M160 1000h115l97 -774l328 774h66l-424 -1000h-58z" />
    <glyph glyph-name="AE" unicode="&#xc6;" horiz-adv-x="958" 
d="M12 0l535 1000h519l-9 -59h-347l-46 -311h313l-9 -59h-313l-77 -512h347l-9 -59h-462l63 421h-199l6 38l-245 -459h-67zM335 480h191l75 496z" />
    <glyph glyph-name="bracketright" unicode="]" horiz-adv-x="333" 
d="M193 1050h191l-261 -1740h-191l9 59h75l244 1622h-76z" />
    <glyph glyph-name="H" unicode="H" horiz-adv-x="714" 
d="M83 0l150 1000h115l-55 -370h317l56 370h115l-150 -1000h-115l85 571h-317l-86 -571h-115z" />
    <glyph glyph-name="exclam" unicode="!" horiz-adv-x="377" 
d="M187 371l94 629h115l-94 -629h-115zM222 221c29 0 29 -37 45 -56c16 -18 49 -25 49 -50c0 -34 -42 -39 -65 -59c-22 -19 -34 -56 -63 -56s-29 37 -45 56c-16 18 -49 25 -49 50c0 34 42 39 65 59c22 19 34 56 63 56z" />
    <glyph glyph-name="Aogonek" unicode="&#x104;" horiz-adv-x="660" 
d="M12 0l439 1000h58l140 -1000h-7l-114 -219c-32 -72 -66 -143 -77 -218l-2 -17c-1 -5 -1 -9 -1 -13c0 -31 15 -58 20 -88c1 -3 1 -7 1 -11c0 -22 -9 -49 -9 -68c0 -15 5 -26 25 -26h12c49 0 30 66 49 105c16 34 44 65 49 101h92c-8 -52 -66 -81 -100 -124
c-36 -46 -37 -130 -97 -130h-12c-60 0 -36 84 -58 130c-19 40 -64 67 -64 113c0 4 0 7 1 11l2 17c14 92 64 177 103 265l90 172h-20l-45 325h-267l-143 -325h-65zM479 384l-56 403l-177 -403h233z" />
    <glyph glyph-name="L" unicode="L" horiz-adv-x="547" 
d="M83 0l150 1000h115l-141 -941h314l-9 -59h-429z" />
    <glyph glyph-name="comma" unicode="," horiz-adv-x="280" 
d="M107 194h121l-163 -485h-90z" />
    <glyph glyph-name="ydieresis" unicode="&#xff;" horiz-adv-x="500" 
d="M151 970h116l49 -697l259 697h64l-616 -1660h-64l261 703zM285 1429c30 0 30 -38 47 -58c13 -15 37 -22 46 -37c14 15 40 22 57 37c23 20 35 58 65 58s29 -38 46 -58c16 -19 50 -24 50 -50c0 -34 -43 -41 -66 -61s-35 -58 -65 -58s-29 38 -46 58c-13 15 -37 22 -46 37
c-14 -15 -40 -22 -57 -37c-23 -20 -35 -58 -65 -58s-30 38 -47 58c-16 19 -49 25 -49 51c0 34 43 40 66 60s34 58 64 58z" />
    <glyph glyph-name="O" unicode="O" horiz-adv-x="833" 
d="M590 1024h-40c-118 0 -94 -164 -150 -257c-51 -84 -139 -152 -153 -246l-7 -42c-1 -9 -1 -17 -1 -25c0 -81 58 -145 81 -221c6 -18 7 -39 7 -61c0 -34 -4 -70 -4 -102c0 -53 11 -94 70 -94h40c118 0 94 164 150 257c51 84 139 152 153 246l7 42c1 9 1 17 1 25
c0 81 -58 145 -81 221c-6 18 -7 39 -7 61c0 34 4 70 4 102c0 53 -11 94 -70 94zM599 1083c134 0 78 -185 125 -287c41 -88 135 -151 135 -251c0 -8 0 -16 -1 -24l-7 -42c-17 -115 -143 -180 -216 -275c-78 -102 -77 -287 -211 -287h-40c-134 0 -78 185 -125 287
c-41 88 -135 151 -135 251c0 8 0 16 1 24l7 42c17 115 143 180 216 275c78 102 77 287 211 287h40z" />
    <glyph glyph-name="bar" unicode="|" horiz-adv-x="238" 
d="M54 -50l165 1100h115l-165 -1100h-115z" />
    <glyph glyph-name="underscore" unicode="_" horiz-adv-x="559" 
d="M1 -232l9 60h488l-9 -60h-488z" />
    <glyph glyph-name="circumflex" unicode="&#x2c6;" horiz-adv-x="250" 
d="M259 893l-66 -93h-90l111 200h122l51 -200h-90z" />
    <glyph glyph-name="Ecircumflex" unicode="&#xca;" horiz-adv-x="553" 
d="M83 0l150 1000h429l-9 -59h-314l-46 -311h256l-9 -59h-256l-77 -512h314l-9 -59h-429zM431 1168l-66 -93h-90l112 200h121l52 -200h-90z" />
    <glyph glyph-name="asterisk" unicode="*" horiz-adv-x="553" 
d="M369 1000h115l-26 -177l119 52l-21 -142l-98 -43l63 -190h-121l-33 100l-64 -100h-121l120 190l-85 43l21 142l105 -52z" />
    <glyph glyph-name="dcaron" unicode="&#x10f;" horiz-adv-x="613" 
d="M536 0h-116l55 362c-24 -55 -56 -110 -78 -166c-42 -105 22 -279 -108 -279h-20c-61 0 -74 40 -74 93c0 40 7 88 7 131c0 20 -1 38 -6 55c-23 83 -81 153 -81 240c0 9 1 19 2 29l6 40c15 101 107 178 160 269c59 102 28 279 156 279h21c48 0 62 -23 62 -58
c0 -56 -39 -143 -39 -208c0 -5 1 -9 1 -13c5 -56 21 -111 28 -166l91 612h115l-47 -315l128 315h123l-164 -325h-88zM451 994h-21c-116 0 -58 -155 -95 -249c-32 -80 -85 -157 -97 -240l-6 -40c-2 -14 -3 -28 -3 -42c0 -67 22 -131 28 -198v-12c0 -59 -35 -136 -35 -186
c0 -31 14 -51 56 -51h20c116 0 59 155 96 249c32 80 84 157 96 240l6 40c2 14 3 28 3 42c0 67 -21 131 -27 198c0 4 -1 8 -1 12c0 59 35 136 35 186c0 31 -13 51 -55 51z" />
    <glyph glyph-name="Ecaron" unicode="&#x11a;" horiz-adv-x="553" 
d="M83 0l150 1000h429l-9 -59h-314l-46 -311h256l-9 -59h-256l-77 -512h314l-9 -59h-429zM500 1275h90l-112 -200h-121l-52 200h90l39 -93z" />
    <glyph glyph-name="Udieresis" unicode="&#xdc;" horiz-adv-x="707" 
d="M777 1000l-114 -759c-11 -75 -104 -103 -157 -159c-55 -58 -72 -165 -152 -165h-26c-80 0 -65 107 -103 165c-34 53 -110 81 -110 146c0 4 0 8 1 13l114 759h115c-20 8 -22 39 -37 56c-16 19 -50 25 -50 51c0 34 44 40 67 60s34 58 64 58s30 -38 47 -58
c13 -15 37 -22 46 -37c14 15 40 22 57 37c23 20 34 58 64 58s30 -38 47 -58c16 -19 50 -25 50 -51c0 -34 -44 -40 -67 -60s-34 -58 -64 -58s-30 38 -47 58c-13 15 -37 22 -46 37c-14 -15 -40 -22 -57 -37c-23 -20 -34 -58 -64 -58c-4 0 -7 1 -10 2l-114 -759
c-1 -4 -1 -8 -1 -12c0 -45 40 -77 56 -118c19 -49 -12 -135 51 -135h26c63 0 57 86 91 135c31 45 86 78 94 130l114 759h115z" />
    <glyph glyph-name="Zcaron" unicode="&#x17d;" horiz-adv-x="607" 
d="M171 941l9 59h547l-9 -58l-542 -883h410l-9 -59h-547l8 58l543 883h-410zM506 1275h90l-112 -200h-121l-52 200h90l39 -93z" />
    <glyph glyph-name="acute" unicode="&#xb4;" horiz-adv-x="238" 
d="M263 1000h125l-162 -200h-93z" />
    <glyph glyph-name="uni1E9E" unicode="&#x1e9e;" horiz-adv-x="1154" 
d="M84 188l112 36c-1 -4 -1 -8 -1 -12c0 -43 37 -71 53 -110c18 -45 -9 -126 49 -126h23c57 0 56 79 88 124c30 42 80 75 87 124l3 19c3 20 5 39 5 59c0 60 -16 116 -58 153l-148 37c-68 60 -117 141 -117 234c0 13 1 27 3 41l3 20c10 68 91 97 139 148
c49 53 67 148 139 148h21c73 0 58 -98 92 -151c27 -42 82 -68 95 -113l-113 -32c1 4 1 7 1 11c0 39 -31 69 -44 105c-4 12 -5 26 -5 40v26c0 30 -3 55 -35 55h-21c-54 0 -49 -76 -77 -119c-26 -40 -70 -72 -77 -118l-3 -20c-3 -20 -4 -41 -4 -61c0 -61 15 -118 58 -155
l148 -37c67 -59 116 -140 116 -232c0 -13 -1 -26 -3 -39l-3 -19c-11 -72 -97 -101 -149 -154c-53 -54 -74 -153 -149 -153h-24c-76 0 -64 101 -101 156c-29 43 -88 68 -103 115zM608 188l112 36c-1 -4 -1 -8 -1 -12c0 -43 37 -71 53 -110c18 -45 -9 -126 49 -126h24
c57 0 55 79 87 124c30 42 80 75 87 124l3 19c3 20 5 39 5 58c0 60 -16 116 -58 153l-148 38c-68 60 -117 141 -117 234c0 13 1 27 3 41l3 20c10 68 91 97 139 148c49 53 67 148 139 148h21c73 0 58 -98 92 -151c27 -42 82 -68 95 -113l-113 -32c1 4 1 7 1 11
c0 39 -31 69 -44 105c-4 12 -5 26 -5 40v26c0 30 -3 55 -35 55h-20c-54 0 -50 -76 -78 -119c-26 -40 -70 -72 -77 -118l-3 -20c-3 -20 -4 -41 -4 -61c0 -61 15 -118 58 -155l148 -38c67 -59 116 -139 116 -231c0 -13 -1 -26 -3 -39l-3 -19c-11 -72 -97 -101 -149 -154
c-53 -54 -74 -153 -149 -153h-24c-76 0 -63 101 -100 156c-29 43 -89 68 -104 115z" />
    <glyph glyph-name="Uhungarumlaut" unicode="&#x170;" horiz-adv-x="707" 
d="M777 1000l-114 -759c-11 -75 -104 -103 -157 -159c-55 -58 -72 -165 -152 -165h-26c-80 0 -65 107 -103 165c-34 53 -110 81 -110 146c0 4 0 8 1 13l114 759h115l-114 -759c-1 -4 -1 -8 -1 -12c0 -45 40 -77 56 -118c19 -49 -12 -135 51 -135h26c63 0 57 86 91 135
c31 45 86 78 94 130l114 759h115zM321 1075l121 200h123l-153 -200h-91zM620 1275h124l-154 -200h-91z" />
    <glyph glyph-name="Atilde" unicode="&#xc3;" horiz-adv-x="660" 
d="M12 0l439 1000h58l140 -1000h-117l-45 325h-267l-143 -325h-65zM373 1080h-92c5 33 45 45 69 69c24 25 33 71 68 71c47 0 50 -73 97 -73c21 0 11 28 18 45c6 14 17 28 19 43h93c-5 -33 -46 -45 -70 -69c-24 -25 -33 -71 -68 -71c-47 0 -49 73 -96 73
c-21 0 -12 -28 -19 -45c-6 -14 -17 -28 -19 -43zM479 384l-56 403l-177 -403h233z" />
    <glyph glyph-name="Dcaron" unicode="&#x10e;" horiz-adv-x="750" 
d="M83 0l150 1000h267c117 0 82 -159 130 -246c43 -77 139 -125 139 -216c0 -7 0 -13 -1 -20l-5 -36c-16 -104 -138 -153 -209 -236c-74 -87 -87 -246 -204 -246h-267zM524 1275h89l-111 -200h-121l-52 200h90l38 -93zM207 59h152c100 0 89 138 142 216
c49 71 135 125 147 207l5 36c1 7 1 13 1 19c0 72 -60 122 -85 188c-30 78 22 216 -78 216h-152z" />
    <glyph glyph-name="equal" unicode="=" horiz-adv-x="583" 
d="M145 650l9 58h488l-9 -58h-488zM87 262l9 58h488l-9 -58h-488z" />
    <glyph glyph-name="C" unicode="C" horiz-adv-x="803" 
d="M826 410c-45 -76 -134 -131 -191 -206c-78 -102 -77 -287 -211 -287h-40c-134 0 -78 185 -125 287c-41 88 -135 151 -135 251c0 8 0 16 1 24l7 42c17 115 143 180 216 275c78 102 77 287 211 287h40c134 0 78 -185 125 -287c34 -75 107 -130 129 -206l-109 -45
c1 82 -58 145 -81 222c-6 18 -7 39 -7 61c0 34 4 70 4 102c0 53 -11 94 -70 94h-40c-118 0 -94 -164 -150 -257c-51 -84 -139 -152 -153 -246l-7 -42c-1 -9 -1 -17 -1 -25c0 -81 58 -145 81 -221c6 -18 7 -39 7 -61c0 -34 -4 -70 -4 -102c0 -53 11 -94 70 -94h40
c118 0 94 164 150 257c46 77 124 140 148 222z" />
    <glyph glyph-name="Eth" unicode="&#xd0;" horiz-adv-x="797" 
d="M547 1000c117 0 82 -159 130 -246c43 -77 140 -125 140 -216c0 -7 -1 -13 -2 -20l-5 -36c-16 -104 -138 -153 -209 -236c-74 -87 -87 -246 -204 -246h-266l70 470h-89l9 60h89l71 470h266zM255 59h151c100 0 90 138 143 216c49 71 134 125 146 207l5 36c1 7 2 13 2 19
c0 72 -60 122 -85 188c-30 78 22 216 -78 216h-152l-62 -411h189l-9 -60h-188z" />
    <glyph glyph-name="edieresis" unicode="&#xeb;" horiz-adv-x="589" 
d="M625 514c-3 -20 -6 -38 -9 -58h-385c-1 -10 -2 -21 -2 -31c0 -68 24 -133 31 -200v-13c0 -58 -33 -134 -33 -184c0 -31 13 -52 56 -52h22c90 0 56 123 90 195c30 63 81 121 91 188h115c-13 -86 -102 -142 -154 -217c-56 -81 -47 -225 -151 -225h-22c-62 0 -75 42 -75 96
c0 38 7 83 7 124c0 21 -2 41 -7 59c-24 83 -84 153 -84 240c0 9 1 19 2 29l6 40c15 101 109 177 163 269c60 102 31 279 159 279h21c62 0 75 -42 75 -96c0 -38 -6 -83 -6 -124c0 -21 2 -41 7 -59c24 -83 83 -153 83 -240c0 -6 0 -14 -1 -20h1zM333 1429c30 0 30 -38 47 -58
c13 -15 37 -22 46 -37c14 15 40 22 57 37c23 20 34 58 64 58s30 -38 47 -58c16 -19 50 -24 50 -50c0 -34 -44 -41 -67 -61s-34 -58 -64 -58s-30 38 -47 58c-13 15 -37 22 -46 37c-14 -15 -40 -22 -57 -37c-23 -20 -34 -58 -64 -58s-30 38 -47 58c-16 19 -50 25 -50 51
c0 34 44 40 67 60s34 58 64 58zM509 514c1 10 2 21 2 31c0 68 -23 133 -30 200c0 4 -1 8 -1 13c0 58 33 134 33 184c0 31 -13 52 -56 52h-21c-116 0 -60 -156 -98 -249c-31 -78 -83 -151 -98 -231h269z" />
    <glyph glyph-name="ccaron" unicode="&#x10d;" horiz-adv-x="579" 
d="M595 398c-35 -70 -99 -132 -140 -202c-60 -102 -31 -279 -159 -279h-22c-62 0 -75 42 -75 96c0 38 7 83 7 124c0 21 -2 41 -7 59c-24 83 -84 153 -84 240c0 9 1 19 2 29l6 40c15 101 109 177 163 269c60 102 31 279 159 279h21c62 0 75 -42 75 -96c0 -38 -6 -83 -6 -124
c0 -21 2 -41 7 -59c20 -70 66 -132 80 -202l-111 -36v9c0 68 -23 133 -30 200c0 4 -1 8 -1 13c0 58 33 134 33 184c0 31 -13 52 -56 52h-21c-116 0 -60 -156 -98 -249c-33 -81 -87 -157 -100 -240l-6 -40c-2 -14 -3 -27 -3 -40c0 -68 24 -133 31 -200v-13
c0 -58 -33 -134 -33 -184c0 -31 13 -52 56 -52h22c116 0 60 156 98 249c28 71 74 137 93 209zM500 1479h90l-112 -200h-121l-52 200h90l39 -92z" />
    <glyph glyph-name="cacute" unicode="&#x107;" horiz-adv-x="579" 
d="M595 398c-35 -70 -99 -132 -140 -202c-60 -102 -31 -279 -159 -279h-22c-62 0 -75 42 -75 96c0 38 7 83 7 124c0 21 -2 41 -7 59c-24 83 -84 153 -84 240c0 9 1 19 2 29l6 40c15 101 109 177 163 269c60 102 31 279 159 279h21c62 0 75 -42 75 -96c0 -38 -6 -83 -6 -124
c0 -21 2 -41 7 -59c20 -70 66 -132 80 -202l-111 -36v9c0 68 -23 133 -30 200c0 4 -1 8 -1 13c0 58 33 134 33 184c0 31 -13 52 -56 52h-21c-116 0 -60 -156 -98 -249c-33 -81 -87 -157 -100 -240l-6 -40c-2 -14 -3 -27 -3 -40c0 -68 24 -133 31 -200v-13
c0 -58 -33 -134 -33 -184c0 -31 13 -52 56 -52h22c116 0 60 156 98 249c28 71 74 137 93 209zM483 1479h125l-162 -200h-93z" />
    <glyph glyph-name="odieresis" unicode="&#xf6;" horiz-adv-x="595" 
d="M333 1429c30 0 30 -38 47 -58c13 -15 37 -22 46 -37c14 15 40 22 57 37c23 20 34 58 64 58s30 -38 47 -58c16 -19 50 -24 50 -50c0 -34 -44 -41 -67 -61s-34 -58 -64 -58s-30 38 -47 58c-13 15 -37 22 -46 37c-14 -15 -40 -22 -57 -37c-23 -20 -34 -58 -64 -58
s-30 38 -47 58c-16 19 -50 25 -50 51c0 34 44 40 67 60s34 58 64 58zM457 994h-21c-116 0 -60 -156 -98 -249c-33 -81 -87 -157 -100 -240l-6 -40c-2 -14 -3 -27 -3 -40c0 -68 24 -133 31 -200v-13c0 -58 -33 -134 -33 -184c0 -31 13 -52 56 -52h22c116 0 60 156 98 249
c33 81 86 157 99 240l6 40c2 14 3 27 3 40c0 68 -23 133 -30 200c0 4 -1 8 -1 13c0 58 33 134 33 184c0 31 -13 52 -56 52zM466 1053c62 0 75 -42 75 -96c0 -38 -6 -83 -6 -124c0 -21 2 -41 7 -59c24 -83 83 -153 83 -240c0 -9 -1 -19 -2 -29l-6 -40
c-15 -101 -108 -177 -162 -269c-60 -102 -31 -279 -159 -279h-22c-62 0 -75 42 -75 96c0 38 7 83 7 124c0 21 -2 41 -7 59c-24 83 -84 153 -84 240c0 9 1 19 2 29l6 40c15 101 109 177 163 269c60 102 31 279 159 279h21z" />
    <glyph glyph-name="four" unicode="4" horiz-adv-x="589" 
d="M506 270l-41 -270h-115l41 270h-287l9 58l444 672h58l-100 -670h60l-9 -60h-60zM399 330l46 303l-201 -303h155z" />
    <glyph glyph-name="adieresis" unicode="&#xe4;" horiz-adv-x="559" 
d="M488 0h-115l26 174c-17 -30 -39 -60 -55 -91c-30 -61 -4 -166 -80 -166h-17c-78 0 -50 107 -79 166c-26 52 -85 87 -85 146c0 4 0 9 1 14l3 22c10 68 88 104 132 160c47 59 51 166 129 166h17c32 0 40 -18 40 -44c0 -30 -12 -70 -12 -103c0 -7 1 -13 2 -19
c6 -31 20 -61 28 -91l40 266c2 11 2 23 2 34c0 54 -18 105 -23 159v10c0 47 28 109 28 149c0 25 -11 42 -45 42h-17c-94 0 -47 -126 -77 -201c-21 -54 -55 -105 -71 -159l-88 49c31 47 77 90 107 139c52 84 32 231 138 231h17c55 0 64 -39 64 -89c0 -26 -2 -55 -2 -82
c0 -22 1 -42 7 -60c22 -69 77 -126 77 -200c0 -7 -1 -14 -2 -22zM303 1429c30 0 30 -38 47 -58c13 -15 37 -22 46 -37c14 15 40 22 57 37c23 20 34 58 64 58s30 -38 47 -58c16 -19 50 -24 50 -50c0 -34 -43 -41 -66 -61s-35 -58 -65 -58s-30 38 -47 58c-13 15 -37 22 -46 37
c-14 -15 -40 -22 -57 -37c-23 -20 -34 -58 -64 -58s-30 38 -47 58c-16 19 -50 25 -50 51c0 34 44 40 67 60s34 58 64 58zM198 227c0 -48 32 -82 32 -133c0 -26 -8 -57 -8 -81c0 -22 7 -37 34 -37h17c63 0 41 86 67 136c23 44 62 83 69 131l4 22c1 5 1 11 1 16
c0 41 -23 76 -31 115c-1 6 -2 12 -2 18c0 26 8 57 8 81c0 22 -6 37 -33 37h-17c-63 0 -42 -86 -68 -136c-23 -44 -62 -83 -69 -131l-3 -22c-1 -5 -1 -11 -1 -16z" />
    <glyph glyph-name="Ydieresis" unicode="&#x178;" horiz-adv-x="619" 
d="M156 1000h120l139 -454l276 454h72l-327 -538l-69 -462h-115l69 462zM345 1225c30 0 30 -38 47 -58c13 -15 37 -22 46 -37c14 15 40 22 57 37c23 20 34 58 64 58s30 -38 47 -58c16 -19 50 -25 50 -51c0 -34 -44 -40 -67 -60s-34 -58 -64 -58s-30 38 -47 58
c-13 15 -37 22 -46 37c-14 -15 -40 -22 -57 -37c-23 -20 -34 -58 -64 -58s-30 38 -47 58c-16 19 -50 25 -50 51c0 34 44 40 67 60s34 58 64 58z" />
    <glyph glyph-name="Thorn" unicode="&#xde;" horiz-adv-x="619" 
d="M83 0l150 1000h115l-25 -170h125c64 0 66 -82 103 -124c35 -40 109 -52 109 -108c0 -3 0 -6 -1 -10l-2 -16c-10 -65 -94 -76 -144 -118s-76 -124 -140 -124h-125l-50 -330h-115zM314 770l-57 -380h125c44 0 50 60 79 93c27 31 75 49 81 89l2 16c0 3 1 5 1 7
c0 35 -38 53 -55 82c-19 33 -7 93 -51 93h-125z" />
    <glyph glyph-name="cedilla" unicode="&#xb8;" horiz-adv-x="238" 
d="M-13 -519c5 -15 11 -29 11 -47c0 -22 -9 -49 -9 -68c0 -15 5 -26 25 -26h12c49 0 30 66 49 105c16 34 44 65 49 101l3 17c1 5 1 9 1 13c0 31 -15 58 -20 88c-1 3 -1 7 -1 11c0 22 8 49 8 68c0 15 -5 26 -25 26h-98l87 255h87l-71 -207h2c60 0 37 -84 59 -130
c19 -40 64 -67 64 -113c0 -4 0 -7 -1 -11l-3 -17c-8 -52 -66 -81 -100 -124c-36 -46 -37 -130 -97 -130h-12c-60 0 -37 84 -59 130c-3 7 -7 13 -12 20z" />
    <glyph glyph-name="p" unicode="p" horiz-adv-x="607" 
d="M-32 -690l249 1660h115l-54 -362c24 55 55 110 77 166c42 105 -22 279 108 279h21c61 0 74 -40 74 -93c0 -40 -8 -88 -8 -131c0 -20 1 -38 6 -55c23 -83 81 -153 81 -240c0 -9 -1 -19 -2 -29l-6 -40c-15 -101 -106 -178 -159 -269c-59 -102 -29 -279 -157 -279h-20
c-48 0 -63 23 -63 58c0 56 39 143 39 208c0 5 -1 9 -1 13c-5 56 -20 111 -27 166l-158 -1052h-115zM475 994h-21c-116 0 -58 -155 -95 -249c-32 -80 -85 -157 -97 -240l-6 -40c-2 -14 -3 -28 -3 -42c0 -67 22 -131 28 -198v-12c0 -59 -35 -136 -35 -186c0 -31 13 -51 55 -51
h21c116 0 59 155 96 249c32 80 84 157 96 240l6 40c2 14 3 28 3 42c0 67 -22 131 -28 198v12c0 59 35 136 35 186c0 31 -13 51 -55 51z" />
    <glyph glyph-name="semicolon" unicode=";" horiz-adv-x="286" 
d="M102 194h120l-163 -485h-90zM278 970c29 0 30 -37 46 -56c16 -18 49 -25 49 -50c0 -34 -42 -39 -65 -59c-22 -19 -34 -56 -63 -56s-29 37 -45 56c-16 18 -49 25 -49 50c0 34 42 39 65 59c22 19 33 56 62 56z" />
    <glyph glyph-name="Idieresis" unicode="&#xcf;" horiz-adv-x="305" 
d="M95 0l150 1000h113c-20 8 -22 39 -37 56c-13 15 -37 22 -46 37c-14 -15 -40 -22 -57 -37c-23 -20 -34 -58 -64 -58s-30 38 -47 58c-16 19 -50 25 -50 51c0 34 44 40 67 60s34 58 64 58s30 -38 47 -58c13 -15 37 -22 46 -37c14 15 40 22 57 37c23 20 34 58 64 58
s30 -38 47 -58c16 -19 50 -25 50 -51c0 -34 -43 -40 -66 -60s-35 -58 -65 -58c-3 0 -6 0 -8 1l-150 -999h-115z" />
    <glyph glyph-name="U" unicode="U" horiz-adv-x="707" 
d="M777 1000l-114 -759c-11 -75 -104 -103 -157 -159c-55 -58 -72 -165 -152 -165h-26c-80 0 -65 107 -103 165c-34 53 -110 81 -110 146c0 4 0 8 1 13l114 759h115l-114 -759c-1 -4 -1 -8 -1 -12c0 -45 40 -77 56 -118c19 -49 -12 -135 51 -135h26c63 0 57 86 91 135
c31 45 86 78 94 130l114 759h115z" />
    <glyph glyph-name="Agrave" unicode="&#xc0;" horiz-adv-x="660" 
d="M12 0l439 1000h58l140 -1000h-117l-45 325h-267l-143 -325h-65zM319 1275h126l69 -200h-92zM479 384l-56 403l-177 -403h233z" />
    <glyph glyph-name="dollar" unicode="$" horiz-adv-x="619" 
d="M84 188l112 36c-1 -4 -1 -8 -1 -12c0 -42 35 -72 50 -110c11 -30 3 -75 12 -102h99c17 27 23 71 43 100c29 42 78 75 85 124l3 19c3 21 4 41 4 61c0 59 -14 114 -55 151l-142 37c-66 60 -114 141 -114 234c0 13 1 27 3 41l3 20c10 67 90 97 137 148c34 37 52 96 85 127
l21 138h115l-21 -139c23 -32 22 -92 45 -129c26 -42 80 -68 93 -113l-113 -32c1 4 0 7 0 11c0 39 -29 69 -41 105c-3 10 -4 22 -4 34c0 13 1 26 1 38c0 9 0 18 -2 25h-91c-15 -26 -17 -67 -35 -95c-25 -40 -68 -73 -75 -118l-3 -20c-3 -21 -5 -42 -5 -63
c0 -60 16 -115 57 -153l142 -37c65 -60 113 -139 113 -231c0 -13 -1 -26 -3 -40l-3 -19c-11 -71 -96 -101 -147 -154c-39 -40 -59 -105 -98 -136l-20 -134h-115l20 135c-29 32 -27 98 -54 138c-28 43 -86 69 -101 115z" />
    <glyph glyph-name="ncaron" unicode="&#x148;" 
d="M71 0l146 970h115l-29 -194c20 34 46 66 64 101c34 65 7 176 88 176h16c81 0 40 -113 65 -176c21 -54 71 -94 71 -153c0 -5 0 -11 -1 -16l-106 -708h-115l106 708c1 8 2 16 2 24c0 40 -13 77 -17 116c0 2 -1 4 -1 7c0 34 20 80 20 109c0 18 -8 30 -33 30h-15
c-67 0 -48 -92 -77 -146c-26 -48 -69 -88 -77 -140l-107 -708h-115zM488 1479h90l-112 -200h-121l-52 200h90l39 -92z" />
    <glyph glyph-name="Ograve" unicode="&#xd2;" horiz-adv-x="833" 
d="M406 1275h125l67 -192h1c134 0 78 -185 125 -287c41 -88 135 -151 135 -251c0 -8 0 -16 -1 -24l-7 -42c-17 -115 -143 -180 -216 -275c-78 -102 -77 -287 -211 -287h-40c-134 0 -78 185 -125 287c-41 88 -135 151 -135 251c0 8 0 16 1 24l7 42c17 115 143 180 216 275
c68 89 76 243 167 279h-7zM590 1024h-40c-118 0 -94 -164 -150 -257c-51 -84 -139 -152 -153 -246l-7 -42c-1 -9 -1 -17 -1 -25c0 -81 58 -145 81 -221c6 -18 7 -39 7 -61c0 -34 -4 -70 -4 -102c0 -53 11 -94 70 -94h40c118 0 94 164 150 257c51 84 139 152 153 246l7 42
c1 9 1 17 1 25c0 81 -58 145 -81 221c-6 18 -7 39 -7 61c0 34 4 70 4 102c0 53 -11 94 -70 94z" />
    <glyph glyph-name="Icircumflex" unicode="&#xce;" horiz-adv-x="305" 
d="M95 0l150 1000h115l-150 -1000h-115zM287 1168l-67 -93h-89l111 200h121l52 -200h-90z" />
    <glyph glyph-name="e" unicode="e" horiz-adv-x="589" 
d="M625 514c-3 -20 -6 -38 -9 -58h-385c-1 -10 -2 -21 -2 -31c0 -68 24 -133 31 -200v-13c0 -58 -33 -134 -33 -184c0 -31 13 -52 56 -52h22c90 0 56 123 90 195c30 63 81 121 91 188h115c-13 -86 -102 -142 -154 -217c-56 -81 -47 -225 -151 -225h-22c-62 0 -75 42 -75 96
c0 38 7 83 7 124c0 21 -2 41 -7 59c-24 83 -84 153 -84 240c0 9 1 19 2 29l6 40c15 101 109 177 163 269c60 102 31 279 159 279h21c62 0 75 -42 75 -96c0 -38 -6 -83 -6 -124c0 -21 2 -41 7 -59c24 -83 83 -153 83 -240c0 -6 0 -14 -1 -20h1zM509 514c1 10 2 21 2 31
c0 68 -23 133 -30 200c0 4 -1 8 -1 13c0 58 33 134 33 184c0 31 -13 52 -56 52h-21c-116 0 -60 -156 -98 -249c-31 -78 -83 -151 -98 -231h269z" />
    <glyph glyph-name="breve" unicode="&#x2d8;" horiz-adv-x="250" 
d="M97 948c0 4 1 9 2 13h92l-1 -6c-3 -20 21 -25 31 -39c11 -14 9 -40 29 -40h13c20 0 26 26 41 40s39 19 42 39l1 6h92l-1 -6c-6 -41 -60 -42 -93 -65c-32 -23 -52 -66 -90 -66h-13c-38 0 -45 43 -70 66c-24 22 -75 23 -75 58z" />
    <glyph glyph-name="ampersand" unicode="&#x26;" horiz-adv-x="738" 
d="M543 799c0 45 -36 76 -36 126c0 20 4 42 4 60c0 22 -6 39 -32 39h-17c-56 0 -41 -77 -66 -121c-22 -40 -61 -73 -68 -116l-3 -20c-1 -4 -1 -8 -1 -12c0 -39 31 -68 43 -104c4 -11 4 -24 4 -37v-33c0 -28 4 -51 34 -51h360l-9 -60h-146l-71 -470h-230
c-64 0 -54 85 -85 131c-28 42 -91 63 -91 115c0 3 0 7 1 11l2 16c9 60 84 82 128 126c39 40 56 111 103 127c-29 25 -32 83 -58 117c-32 42 -100 59 -100 113c0 3 0 7 1 11l3 20c10 65 87 94 131 145c46 53 55 151 127 151h17c72 0 52 -98 82 -151c23 -40 70 -67 84 -108
l-112 -37c1 4 1 8 1 12zM495 470h-116c-46 0 -39 -64 -63 -100c-22 -33 -59 -59 -65 -97l-2 -16c0 -3 -1 -7 -1 -10c0 -33 25 -57 36 -87c3 -10 4 -22 4 -34v-21c0 -25 4 -46 30 -46h115z" />
    <glyph glyph-name="d" unicode="d" horiz-adv-x="613" 
d="M536 0h-116l55 362c-24 -55 -56 -110 -78 -166c-42 -105 22 -279 -108 -279h-20c-61 0 -74 40 -74 93c0 40 7 88 7 131c0 20 -1 38 -6 55c-23 83 -81 153 -81 240c0 9 1 19 2 29l6 40c15 101 107 178 160 269c59 102 28 279 156 279h21c48 0 62 -23 62 -58
c0 -56 -39 -143 -39 -208c0 -5 1 -9 1 -13c5 -56 21 -111 28 -166l91 612h115zM451 994h-21c-116 0 -58 -155 -95 -249c-32 -80 -85 -157 -97 -240l-6 -40c-2 -14 -3 -28 -3 -42c0 -67 22 -131 28 -198v-12c0 -59 -35 -136 -35 -186c0 -31 14 -51 56 -51h20
c116 0 59 155 96 249c32 80 84 157 96 240l6 40c2 14 3 28 3 42c0 67 -21 131 -27 198c0 4 -1 8 -1 12c0 59 35 136 35 186c0 31 -13 51 -55 51z" />
    <glyph glyph-name="dotlessi" unicode="&#x131;" horiz-adv-x="226" 
d="M56 0l145 970h115l-145 -970h-115z" />
    <glyph glyph-name="Oslash" unicode="&#xd8;" horiz-adv-x="833" 
d="M590 1024h-40c-118 0 -94 -164 -150 -257c-51 -84 -139 -152 -153 -246l-7 -42c-1 -9 -1 -17 -1 -25c0 -49 20 -91 42 -134l377 477c-1 10 -2 20 -2 31c0 34 4 70 4 102c0 53 -11 94 -70 94zM599 1083c109 0 92 -123 108 -224l110 141h136l-200 -254
c45 -65 106 -121 106 -201c0 -8 0 -16 -1 -24l-7 -42c-17 -115 -143 -180 -216 -275c-78 -102 -77 -287 -211 -287h-40c-109 0 -92 123 -108 224l-110 -141h-136l200 254c-45 65 -106 121 -106 201c0 8 0 16 1 24l7 42c17 115 143 180 216 275c78 102 77 287 211 287h40z
M326 203c1 -10 1 -20 1 -31c0 -34 -4 -70 -4 -102c0 -53 11 -94 70 -94h40c118 0 94 164 150 257c51 84 139 152 153 246l7 42c1 9 1 17 1 25c0 49 -20 91 -42 134z" />
    <glyph glyph-name="Acircumflex" unicode="&#xc2;" horiz-adv-x="660" 
d="M12 0l439 1000h58l140 -1000h-117l-45 325h-267l-143 -325h-65zM479 384l-56 403l-177 -403h233zM464 1168l-66 -93h-90l112 200h121l51 -200h-90z" />
    <glyph glyph-name="w" unicode="w" horiz-adv-x="768" 
d="M151 970h116l60 -712l104 271l-37 441h115l17 -195l75 195h64l-128 -331l33 -381l273 712h64l-373 -970h-58l-33 393l-151 -393h-58z" />
    <glyph glyph-name="braceright" unicode="}" horiz-adv-x="363" 
d="M-147 -819l-33 39c68 19 61 131 106 193c44 61 127 98 138 170l47 313c10 65 79 107 118 163c22 32 31 75 46 111c-4 36 0 80 -13 112c-21 52 -69 91 -69 148c0 5 0 10 1 15l47 313c1 5 1 9 1 14c0 63 -64 100 -88 156c-10 23 -11 53 -11 82v12c0 46 -1 88 -37 99l44 39
c39 -45 25 -146 61 -204c42 -68 146 -98 146 -182c0 -5 0 -10 -1 -16l-47 -313c-1 -5 -1 -10 -1 -15c0 -32 14 -60 19 -91c1 -3 1 -6 1 -10c0 -24 -10 -53 -10 -74c0 -16 6 -27 26 -27l-18 -115c-51 0 -30 -70 -49 -111c-17 -36 -45 -68 -51 -106l-47 -313
c-14 -96 -137 -126 -203 -198c-53 -58 -70 -159 -123 -204z" />
    <glyph glyph-name="nacute" unicode="&#x144;" 
d="M71 0l146 970h115l-29 -194c20 34 46 66 64 101c34 65 7 176 88 176h16c81 0 40 -113 65 -176c21 -54 71 -94 71 -153c0 -5 0 -11 -1 -16l-106 -708h-115l106 708c1 8 2 16 2 24c0 40 -13 77 -17 116c0 2 -1 4 -1 7c0 34 20 80 20 109c0 18 -8 30 -33 30h-15
c-67 0 -48 -92 -77 -146c-26 -48 -69 -88 -77 -140l-107 -708h-115zM471 1479h125l-162 -200h-93z" />
    <glyph glyph-name="lslash" unicode="&#x142;" horiz-adv-x="274" 
d="M181 677l81 543h115l-59 -398l47 50l-24 -158l-47 -49l-100 -665h-115l78 520l-47 -50l24 158z" />
    <glyph glyph-name="Ccaron" unicode="&#x10c;" horiz-adv-x="803" 
d="M826 410c-45 -76 -134 -131 -191 -206c-78 -102 -77 -287 -211 -287h-40c-134 0 -78 185 -125 287c-41 88 -135 151 -135 251c0 8 0 16 1 24l7 42c17 115 143 180 216 275c68 89 76 243 167 279h-39l-52 200h90l39 -93l66 93h90l-107 -192c130 -3 75 -186 122 -287
c34 -75 107 -130 129 -206l-109 -45c1 82 -58 145 -81 222c-6 18 -7 39 -7 61c0 34 4 70 4 102c0 53 -11 94 -70 94h-40c-118 0 -94 -164 -150 -257c-51 -84 -139 -152 -153 -246l-7 -42c-1 -9 -1 -17 -1 -25c0 -81 58 -145 81 -221c6 -18 7 -39 7 -61c0 -34 -4 -70 -4 -102
c0 -53 11 -94 70 -94h40c118 0 94 164 150 257c46 77 124 140 148 222z" />
    <glyph glyph-name="Uacute" unicode="&#xda;" horiz-adv-x="707" 
d="M777 1000l-114 -759c-11 -75 -104 -103 -157 -159c-55 -58 -72 -165 -152 -165h-26c-80 0 -65 107 -103 165c-34 53 -110 81 -110 146c0 4 0 8 1 13l114 759h115l-114 -759c-1 -4 -1 -8 -1 -12c0 -45 40 -77 56 -118c19 -49 -12 -135 51 -135h26c63 0 57 86 91 135
c31 45 86 78 94 130l114 759h115zM539 1275h125l-162 -200h-93z" />
    <glyph glyph-name="v" unicode="v" horiz-adv-x="500" 
d="M151 970h116l50 -695l258 695h64l-360 -970h-58z" />
    <glyph glyph-name="E" unicode="E" horiz-adv-x="553" 
d="M83 0l150 1000h429l-9 -59h-314l-46 -311h256l-9 -59h-256l-77 -512h314l-9 -59h-429z" />
    <glyph glyph-name="B" unicode="B" horiz-adv-x="625" 
d="M83 0l150 1000h255c52 0 54 -65 85 -99c29 -32 90 -42 90 -87v-8l-2 -11c-7 -50 -74 -47 -115 -74c-29 -19 -52 -53 -80 -69c43 -25 33 -107 61 -155c30 -51 96 -82 96 -143c0 -4 0 -8 -1 -13l-3 -22c-11 -70 -95 -101 -143 -156c-50 -57 -60 -163 -138 -163h-255z
M339 941l-42 -281h139c32 0 34 44 54 68c19 23 52 39 56 67l2 11v6c0 25 -25 39 -36 60c-12 24 -1 69 -33 69h-140zM508 354c0 53 -46 85 -46 146c0 17 2 36 2 52c0 27 -5 49 -36 49h-140l-81 -542h139c61 0 49 85 78 133c26 44 73 78 80 127l3 22c1 4 1 9 1 13z" />
    <glyph glyph-name="s" unicode="s" horiz-adv-x="476" 
d="M70 182l113 34c-1 -5 -1 -10 -1 -15c0 -36 18 -68 24 -103c1 -4 2 -8 2 -13c0 -25 -10 -56 -10 -78c0 -18 6 -31 29 -31h14c55 0 37 75 59 120c20 40 52 77 58 120l2 19c3 23 6 46 6 69c0 52 -11 101 -38 142l-90 22c-44 66 -74 143 -74 226c0 17 1 34 4 51l3 19
c9 59 72 95 110 144c40 52 43 145 110 145h10c69 0 41 -94 65 -147c18 -40 57 -70 67 -111l-114 -31c1 6 1 12 1 18c0 32 -11 63 -15 95c0 2 -1 5 -1 7c0 27 15 62 15 85c0 15 -7 25 -27 25h-10c-53 0 -30 -72 -48 -115c-16 -39 -42 -75 -48 -115l-3 -19
c-3 -22 -5 -45 -5 -66c0 -56 12 -108 41 -152l91 -22c42 -64 69 -138 69 -218c0 -17 -1 -34 -4 -52l-2 -19c-9 -63 -79 -98 -120 -149c-43 -54 -50 -150 -120 -150h-14c-72 0 -46 99 -73 153c-20 41 -64 70 -76 112z" />
    <glyph glyph-name="OE" unicode="&#x152;" horiz-adv-x="1000" 
d="M550 1024h-34c-118 0 -83 -163 -133 -257c-45 -84 -122 -155 -136 -246l-7 -42c-1 -10 -2 -19 -2 -28c0 -78 47 -143 65 -218c3 -12 4 -26 4 -40c0 -46 -12 -100 -12 -142c0 -43 12 -75 64 -75h34c118 0 84 163 134 257c45 84 122 155 136 246c3 22 8 45 8 70
c0 78 -46 143 -64 218c-3 12 -4 26 -4 40c0 46 12 100 12 142c0 43 -13 75 -65 75zM559 1083c132 0 68 -184 109 -287c9 -22 20 -42 33 -62l40 266h367l-9 -59h-252l-47 -311h195l-9 -59h-194c-5 -31 -9 -61 -14 -92l-63 -420h252l-9 -59h-367l40 266
c-19 -20 -37 -40 -52 -62c-72 -103 -63 -287 -195 -287h-34c-132 0 -67 184 -108 287c-35 87 -119 154 -119 250c0 8 1 16 2 25l7 42c17 111 133 180 199 275c72 103 62 287 194 287h34z" />
    <glyph glyph-name="caron" unicode="&#x2c7;" horiz-adv-x="250" 
d="M327 1000h90l-111 -200h-122l-51 200h90l38 -93z" />
    <glyph glyph-name="eth" unicode="&#xf0;" horiz-adv-x="625" 
d="M211 131c0 126 -96 195 -96 306c0 9 1 19 2 28l6 40c15 102 112 177 167 269c19 31 29 69 38 107l-3 -1l11 70l11 5c16 53 41 94 98 98c-27 59 -60 115 -98 167h143c32 -51 59 -105 81 -161l160 74l-11 -70l-128 -59c38 -112 57 -232 57 -356c0 -60 -5 -121 -14 -183
c-15 -102 -111 -177 -166 -269c-61 -102 -36 -279 -164 -279h-23c-64 0 -76 44 -76 101c0 35 5 76 5 113zM509 856c-7 33 -16 65 -26 97l-120 -55c-5 -49 -2 -108 -21 -153c-34 -81 -91 -156 -104 -240l-6 -40c-2 -13 -2 -26 -2 -38c0 -69 26 -134 34 -202c1 -5 1 -10 1 -16
c0 -57 -30 -130 -30 -179c0 -32 13 -54 56 -54h23c116 0 64 156 103 249c34 81 90 156 103 240c4 26 9 52 9 78c0 69 -27 134 -35 202c-1 5 0 10 0 16c0 29 7 63 15 95zM533 647c-1 68 -8 134 -21 198c-4 -19 -6 -36 -6 -53c0 -6 0 -12 1 -18c5 -43 17 -85 26 -127zM429 993
c-16 -2 -29 -8 -38 -17z" />
    <glyph glyph-name="Rcaron" unicode="&#x158;" horiz-adv-x="601" 
d="M83 0l150 1000h241c63 0 66 -80 103 -121c35 -39 109 -51 109 -106c0 -3 1 -6 0 -10l-3 -15c-10 -64 -93 -74 -143 -116c-30 -25 -52 -65 -78 -92l133 -540h-120l-123 511h-77l-77 -511h-115zM476 1275h90l-112 -200h-121l-51 200h89l39 -93zM339 941l-55 -371h125
c44 0 50 58 79 90c27 31 74 48 80 88l3 15v7c0 34 -38 51 -55 80c-19 32 -7 91 -51 91h-126z" />
    <glyph glyph-name="zacute" unicode="&#x17a;" horiz-adv-x="440" 
d="M166 911l9 59h381l-9 -58l-379 -853h251l-8 -59h-381l8 58l379 853h-251zM406 1479h125l-162 -200h-93z" />
    <glyph glyph-name="uring" unicode="&#x16f;" 
d="M639 970l-145 -970h-115l28 188c-17 -32 -38 -63 -53 -95c-30 -65 2 -176 -79 -176h-16c-82 0 -46 113 -74 176c-24 54 -81 93 -81 154c0 5 0 10 1 15l106 708h115l-106 -708c-1 -6 -2 -13 -2 -19c0 -42 20 -80 27 -121c1 -4 1 -9 1 -14c0 -31 -12 -69 -12 -96
c0 -21 7 -36 34 -36h16c67 0 42 92 67 146c22 47 59 90 67 140l106 708h115zM430 1460h-7c-18 0 -15 -26 -24 -40c-11 -16 -27 -24 -27 -48c0 -16 16 -27 16 -47v-8c0 -10 1 -18 11 -18h7c18 0 16 25 25 39c11 16 26 25 26 48c0 17 -16 28 -16 48c0 3 1 4 1 7
c0 10 -2 19 -12 19zM436 1499c31 0 31 -39 48 -59c16 -19 50 -27 50 -53v-5l-1 -6c-5 -30 -45 -37 -68 -57s-34 -59 -65 -59h-7c-31 0 -30 39 -47 59c-16 19 -51 26 -51 52v5l1 6c5 30 45 38 68 58s34 59 65 59h7z" />
    <glyph glyph-name="I" unicode="I" horiz-adv-x="305" 
d="M95 0l150 1000h115l-150 -1000h-115z" />
    <glyph glyph-name="ntilde" unicode="&#xf1;" 
d="M71 0l146 970h115l-29 -194c20 34 46 66 64 101c34 65 7 176 88 176h16c81 0 40 -113 65 -176c21 -54 71 -94 71 -153c0 -5 0 -11 -1 -16l-106 -708h-115l106 708c1 8 2 16 2 24c0 40 -13 77 -17 116c0 2 -1 4 -1 7c0 34 20 80 20 109c0 18 -8 30 -33 30h-15
c-67 0 -48 -92 -77 -146c-26 -48 -69 -88 -77 -140l-107 -708h-115zM328 1284h-92c5 33 46 45 70 69c24 25 33 71 68 71c47 0 49 -72 96 -72c21 0 12 27 19 44c6 14 17 28 19 43h92c-5 -33 -46 -44 -70 -68c-24 -25 -33 -72 -68 -72c-47 0 -49 73 -96 73
c-21 0 -12 -28 -19 -45c-6 -14 -17 -28 -19 -43z" />
    <glyph glyph-name="Uring" unicode="&#x16e;" horiz-adv-x="707" 
d="M777 1000l-114 -759c-11 -75 -104 -103 -157 -159c-55 -58 -72 -165 -152 -165h-26c-80 0 -65 107 -103 165c-34 53 -110 81 -110 146c0 4 0 8 1 13l114 759h115l-114 -759c-1 -4 -1 -8 -1 -12c0 -45 40 -77 56 -118c19 -49 -12 -135 51 -135h26c63 0 57 86 91 135
c31 45 86 78 94 130l114 759h115zM504 1255h-7c-18 0 -16 -25 -25 -39c-11 -16 -26 -25 -26 -48c0 -16 16 -27 16 -47v-8c0 -10 1 -18 11 -18h7c18 0 16 25 25 39c11 16 26 25 26 48c0 16 -16 27 -16 47v8c0 10 -1 18 -11 18zM510 1295c31 0 30 -40 47 -60
c16 -19 51 -26 51 -52v-5l-1 -6c-5 -30 -45 -37 -68 -57s-34 -60 -65 -60h-7c-31 0 -30 40 -47 60c-16 19 -51 26 -51 52v5l1 6c5 30 45 37 68 57s34 60 65 60h7z" />
    <glyph glyph-name="tcedilla" unicode="&#x163;" horiz-adv-x="321" 
d="M29 -519c5 -15 10 -29 10 -47c0 -22 -8 -49 -8 -68c0 -15 5 -26 25 -26h11c49 0 30 66 49 105c16 34 45 65 50 101l2 17c1 5 1 9 1 13c0 31 -15 58 -20 88c-1 3 -1 7 -1 11c0 22 9 49 9 68c0 15 -5 26 -25 26h-98l79 231h-10l137 911h-69l8 59h70l37 250h115l-37 -250h69
l-9 -59h-69l-137 -911h-19l-63 -183h3c60 0 37 -84 59 -130c19 -40 63 -67 63 -113c0 -4 0 -7 -1 -11l-2 -17c-8 -52 -66 -81 -100 -124c-36 -46 -38 -130 -98 -130h-11c-60 0 -37 84 -59 130c-3 7 -8 13 -13 20z" />
    <glyph glyph-name="ucircumflex" unicode="&#xfb;" 
d="M639 970l-145 -970h-115l28 188c-17 -32 -38 -63 -53 -95c-30 -65 2 -176 -79 -176h-16c-82 0 -46 113 -74 176c-24 54 -81 93 -81 154c0 5 0 10 1 15l106 708h115l-106 -708c-1 -6 -2 -13 -2 -19c0 -42 20 -80 27 -121c1 -4 1 -9 1 -14c0 -31 -12 -69 -12 -96
c0 -21 7 -36 34 -36h16c67 0 42 92 67 146c22 47 59 90 67 140l106 708h115zM414 1372l-67 -93h-89l111 200h121l52 -200h-90z" />
    <glyph glyph-name="Egrave" unicode="&#xc8;" horiz-adv-x="553" 
d="M83 0l150 1000h429l-9 -59h-314l-46 -311h256l-9 -59h-256l-77 -512h314l-9 -59h-429zM287 1275h125l70 -200h-93z" />
    <glyph glyph-name="j" unicode="j" horiz-adv-x="250" 
d="M324 970l-201 -1341c-11 -72 -72 -130 -107 -197c-40 -75 -11 -205 -105 -205h-6c-41 0 -52 24 -52 58c0 31 9 69 11 104l38 3c-12 -30 -25 -58 -25 -78c0 -17 10 -28 37 -28h6c39 0 47 22 47 53c0 27 -6 60 -6 90c0 11 0 22 3 32c14 56 36 112 44 168l201 1341h115z
M279 1429c30 0 30 -38 47 -58c16 -19 50 -24 50 -50c0 -34 -44 -41 -67 -61s-34 -58 -64 -58s-30 38 -47 58c-16 19 -50 25 -50 51c0 34 43 40 66 60s35 58 65 58z" />
    <glyph glyph-name="Oacute" unicode="&#xd3;" horiz-adv-x="833" 
d="M602 1275h125l-155 -192h27c134 0 78 -185 125 -287c41 -88 135 -151 135 -251c0 -8 0 -16 -1 -24l-7 -42c-17 -115 -143 -180 -216 -275c-78 -102 -77 -287 -211 -287h-40c-134 0 -78 185 -125 287c-41 88 -135 151 -135 251c0 8 0 16 1 24l7 42c17 115 143 180 216 275
c68 89 76 243 167 279h-43zM590 1024h-40c-118 0 -94 -164 -150 -257c-51 -84 -139 -152 -153 -246l-7 -42c-1 -9 -1 -17 -1 -25c0 -81 58 -145 81 -221c6 -18 7 -39 7 -61c0 -34 -4 -70 -4 -102c0 -53 11 -94 70 -94h40c118 0 94 164 150 257c51 84 139 152 153 246l7 42
c1 9 1 17 1 25c0 81 -58 145 -81 221c-6 18 -7 39 -7 61c0 34 4 70 4 102c0 53 -11 94 -70 94z" />
    <glyph glyph-name="ae" unicode="&#xe6;" horiz-adv-x="881" 
d="M178 683c31 47 74 90 104 139c51 84 30 231 136 231h16c54 0 64 -37 64 -85c0 -28 -4 -60 -4 -90c0 -76 36 -118 60 -172c16 22 32 45 45 68c57 102 25 279 153 279h19c59 0 73 -38 73 -89c0 -42 -10 -93 -10 -139c0 -18 2 -35 6 -51c22 -82 77 -153 77 -239
c0 -12 -1 -24 -3 -35l-7 -44h-356c-1 -12 -2 -24 -2 -36c0 -66 19 -129 24 -195c0 -3 1 -6 1 -9c0 -60 -39 -139 -39 -190c0 -30 13 -50 55 -50h19c90 0 52 122 84 195c28 63 75 122 85 188h115c-13 -85 -99 -143 -148 -217c-54 -81 -40 -225 -144 -225h-20
c-59 0 -72 38 -72 89c0 42 9 93 9 139c0 24 -3 46 -9 65c-25 -48 -83 -81 -119 -127c-46 -59 -48 -166 -126 -166h-16c-78 0 -48 107 -77 166c-25 51 -82 87 -82 146c0 5 0 9 1 14l3 22c10 67 87 105 130 160c46 59 48 166 126 166h16c31 0 40 -17 40 -42
c0 -31 -14 -73 -14 -107c0 -6 1 -11 2 -17c6 -31 17 -60 25 -90l40 265c2 12 2 23 2 35c0 54 -16 105 -20 158v8c0 48 30 112 30 153c0 24 -11 40 -45 40h-16c-94 0 -46 -125 -75 -201c-20 -54 -52 -104 -68 -158zM356 532h-16c-63 0 -40 -86 -65 -136
c-22 -44 -60 -84 -67 -131l-3 -22c-1 -6 -1 -12 -1 -17c0 -40 20 -75 28 -114c1 -5 2 -10 2 -16c0 -27 -10 -61 -10 -85c0 -21 7 -35 33 -35h16c63 0 40 86 65 136c22 44 59 84 66 131l4 22c1 6 1 12 1 17c0 40 -20 75 -28 114c-1 5 -2 10 -2 16c0 27 10 60 10 84
c0 21 -7 36 -33 36zM801 514c1 12 2 24 2 36c0 66 -19 129 -24 195v9c0 60 38 139 38 190c0 30 -13 50 -55 50h-19c-117 0 -57 -155 -92 -249c-29 -77 -76 -152 -91 -231h241z" />
    <glyph glyph-name="c" unicode="c" horiz-adv-x="579" 
d="M595 398c-35 -70 -99 -132 -140 -202c-60 -102 -31 -279 -159 -279h-22c-62 0 -75 42 -75 96c0 38 7 83 7 124c0 21 -2 41 -7 59c-24 83 -84 153 -84 240c0 9 1 19 2 29l6 40c15 101 109 177 163 269c60 102 31 279 159 279h21c62 0 75 -42 75 -96c0 -38 -6 -83 -6 -124
c0 -21 2 -41 7 -59c20 -70 66 -132 80 -202l-111 -36v9c0 68 -23 133 -30 200c0 4 -1 8 -1 13c0 58 33 134 33 184c0 31 -13 52 -56 52h-21c-116 0 -60 -156 -98 -249c-33 -81 -87 -157 -100 -240l-6 -40c-2 -14 -3 -27 -3 -40c0 -68 24 -133 31 -200v-13
c0 -58 -33 -134 -33 -184c0 -31 13 -52 56 -52h22c116 0 60 156 98 249c28 71 74 137 93 209z" />
    <glyph glyph-name="Lcaron" unicode="&#x13d;" horiz-adv-x="547" 
d="M83 0l150 1000h115l-141 -941h314l-9 -59h-429zM490 1000h122l-163 -325h-91z" />
    <glyph glyph-name="D" unicode="D" horiz-adv-x="750" 
d="M83 0l150 1000h267c117 0 82 -159 130 -246c43 -77 139 -125 139 -216c0 -7 0 -13 -1 -20l-5 -36c-16 -104 -138 -153 -209 -236c-74 -87 -87 -246 -204 -246h-267zM207 59h152c100 0 89 138 142 216c49 71 135 125 147 207l5 36c1 7 1 13 1 19c0 72 -60 122 -85 188
c-30 78 22 216 -78 216h-152z" />
    <glyph glyph-name="icircumflex" unicode="&#xee;" horiz-adv-x="226" 
d="M56 0l145 970h115l-145 -970h-115zM247 1372l-66 -93h-90l111 200h122l51 -200h-90z" />
    <glyph glyph-name="gbreve" unicode="&#x11f;" horiz-adv-x="607" 
d="M681 970l-186 -1239c-14 -94 -104 -163 -156 -247c-57 -93 -35 -257 -153 -257h-21c-61 0 -71 43 -71 98c0 24 2 51 3 77l38 5c-6 -26 -12 -52 -12 -72c0 -29 12 -49 51 -49h21c105 0 57 142 92 227c31 73 82 142 93 218l102 681c-23 -51 -53 -101 -75 -153
c-40 -97 15 -259 -105 -259h-21c-61 0 -71 43 -71 97c0 31 3 65 3 98c0 23 -1 45 -7 64c-24 77 -84 141 -84 223c0 8 1 17 2 26l5 37c14 95 105 164 157 249c57 94 34 259 153 259h21c45 0 58 -23 58 -56c0 -51 -32 -128 -32 -187c0 -5 0 -11 1 -16c6 -52 22 -102 30 -153
l49 329h115zM264 1428c0 4 0 8 1 12h92l-1 -6c-3 -20 21 -25 31 -39c11 -14 10 -40 30 -40h12c20 0 27 26 42 40s39 19 42 39l1 6h92l-1 -6c-6 -41 -60 -41 -93 -64c-32 -23 -53 -67 -91 -67h-12c-38 0 -46 44 -71 67c-24 22 -74 23 -74 58zM451 994h-21
c-106 0 -57 -143 -92 -229c-31 -74 -82 -143 -94 -220l-5 -37c-2 -12 -3 -24 -3 -36c0 -63 23 -121 30 -184c1 -4 1 -9 1 -14c0 -52 -29 -121 -29 -166c0 -29 12 -49 52 -49h21c106 0 57 143 92 229c31 74 82 143 94 220c3 23 8 48 8 73c0 63 -23 122 -30 184
c-1 4 -1 9 -1 14c0 52 29 121 29 166c0 29 -12 49 -52 49z" />
    <glyph glyph-name="ij" unicode="&#x133;" horiz-adv-x="547" 
d="M253 970h115l-146 -970h-115zM621 970l-201 -1341c-11 -74 -80 -130 -120 -197c-44 -75 -24 -205 -118 -205h-11c-46 0 -55 31 -55 72c0 28 4 60 4 90l42 6c-9 -28 -19 -56 -19 -77c0 -19 9 -32 37 -32h11c45 0 51 32 51 72c0 15 -1 33 -1 49c0 19 2 38 7 54
c19 56 48 111 57 168l201 1341h115zM648 1406c30 0 30 -37 47 -57c16 -19 50 -25 50 -51c0 -34 -43 -40 -66 -60s-35 -58 -65 -58s-30 38 -47 58c-16 19 -49 24 -49 50c0 34 43 41 66 61s34 57 64 57zM357 1406c30 0 30 -37 47 -57c16 -19 50 -25 50 -51
c0 -34 -44 -40 -67 -60s-34 -58 -64 -58s-30 38 -47 58c-16 19 -50 24 -50 50c0 34 43 41 66 61s35 57 65 57z" />
    <glyph glyph-name="n" unicode="n" 
d="M71 0l146 970h115l-29 -194c20 34 46 66 64 101c34 65 7 176 88 176h16c81 0 40 -113 65 -176c21 -54 71 -94 71 -153c0 -5 0 -11 -1 -16l-106 -708h-115l106 708c1 8 2 16 2 24c0 40 -13 77 -17 116c0 2 -1 4 -1 7c0 34 20 80 20 109c0 18 -8 30 -33 30h-15
c-67 0 -48 -92 -77 -146c-26 -48 -69 -88 -77 -140l-107 -708h-115z" />
    <glyph glyph-name="percent" unicode="%" horiz-adv-x="976" 
d="M203 -50l588 1100h132l-588 -1100h-132zM442 779c0 28 -16 52 -16 81c0 19 9 43 9 60c0 12 -5 21 -21 21h-9c-41 0 -25 -55 -40 -88c-13 -29 -35 -56 -40 -86l-2 -14c-1 -4 -1 -8 -1 -12c0 -28 16 -52 16 -81c0 -19 -8 -42 -8 -59c0 -12 5 -21 21 -21h9c41 0 24 55 39 88
c13 29 35 55 40 85l2 14c1 4 1 8 1 12zM423 1000c56 0 41 -77 65 -119c21 -37 69 -60 69 -104c0 -3 -1 -7 -1 -10l-2 -14c-8 -51 -68 -74 -103 -114c-36 -42 -44 -119 -100 -119h-9c-56 0 -41 77 -65 119c-21 37 -70 60 -70 104c0 3 1 7 1 10l2 14c8 51 68 74 103 114
c36 42 45 119 101 119h9zM803 259c0 28 -15 52 -15 81c0 19 8 42 8 59c0 12 -5 21 -21 21h-9c-41 0 -24 -55 -39 -88c-13 -29 -35 -55 -40 -85l-3 -14c-1 -4 0 -8 0 -12c0 -28 15 -52 15 -81c0 -19 -8 -43 -8 -60c0 -12 5 -21 21 -21h9c41 0 24 55 39 88c13 29 35 56 40 86
l3 14c1 4 0 8 0 12zM784 480c56 0 41 -77 65 -119c21 -37 69 -60 69 -104v-10l-3 -14c-8 -51 -68 -74 -103 -114c-36 -42 -44 -119 -100 -119h-9c-56 0 -41 77 -65 119c-21 37 -69 60 -69 104v10l3 14c8 51 68 74 103 114c36 42 44 119 100 119h9z" />
    <glyph glyph-name="q" unicode="q" horiz-adv-x="607" 
d="M432 -690h-115l158 1052c-24 -55 -56 -110 -78 -166c-42 -105 22 -279 -108 -279h-20c-61 0 -74 40 -74 93c0 40 7 88 7 131c0 20 -1 38 -6 55c-23 83 -81 153 -81 240c0 9 1 19 2 29l6 40c15 101 107 178 160 269c59 102 28 279 156 279h21c48 0 62 -23 62 -58
c0 -56 -39 -143 -39 -208c0 -5 1 -9 1 -13c5 -56 21 -111 28 -166l54 362h115zM451 994h-21c-116 0 -58 -155 -95 -249c-32 -80 -85 -157 -97 -240l-6 -40c-2 -14 -3 -28 -3 -42c0 -67 22 -131 28 -198v-12c0 -59 -35 -136 -35 -186c0 -31 14 -51 56 -51h20
c116 0 59 155 96 249c32 80 84 157 96 240c4 26 9 53 9 82c0 67 -21 131 -27 198c0 4 -1 8 -1 12c0 59 35 136 35 186c0 31 -13 51 -55 51z" />
    <glyph glyph-name="Racute" unicode="&#x154;" horiz-adv-x="601" 
d="M83 0l150 1000h241c63 0 66 -80 103 -121c35 -39 109 -51 109 -106c0 -3 1 -6 0 -10l-3 -15c-10 -64 -93 -74 -143 -116c-30 -25 -52 -65 -78 -92l133 -540h-120l-123 511h-77l-77 -511h-115zM459 1275h125l-162 -200h-93zM339 941l-55 -371h125c44 0 50 58 79 90
c27 31 74 48 80 88l3 15v7c0 34 -38 51 -55 80c-19 32 -7 91 -51 91h-126z" />
    <glyph glyph-name="x" unicode="x" horiz-adv-x="482" 
d="M172 970h117l63 -337l181 337h68l-232 -431l101 -539h-117l-70 378l-203 -378h-68l253 471z" />
    <glyph glyph-name="S" unicode="S" horiz-adv-x="619" 
d="M548 809c-6 45 -45 72 -45 128c0 13 1 26 1 38c0 27 -4 49 -34 49h-20c-54 0 -47 -76 -74 -119c-25 -40 -68 -73 -75 -118l-3 -20c-3 -21 -5 -42 -5 -63c0 -60 16 -115 57 -153l142 -37c65 -60 113 -139 113 -231c0 -13 -1 -26 -3 -40l-3 -19c-11 -71 -96 -101 -147 -154
c-52 -54 -72 -153 -147 -153h-23c-76 0 -61 101 -97 156c-28 43 -86 69 -101 115l112 36c-1 -4 -1 -8 -1 -12c0 -42 35 -72 50 -110c17 -45 -12 -126 46 -126h23c57 0 54 79 85 124c29 42 78 75 85 124l3 19c3 21 4 41 4 61c0 59 -14 114 -55 151l-142 37
c-66 60 -114 141 -114 234c0 13 1 27 3 41l3 20c10 67 90 97 137 148c49 53 64 148 136 148h20c73 0 56 -98 89 -151c26 -42 80 -68 93 -113z" />
    <glyph glyph-name="A" unicode="A" horiz-adv-x="660" 
d="M12 0l439 1000h58l140 -1000h-117l-45 325h-267l-143 -325h-65zM479 384l-56 403l-177 -403h233z" />
    <glyph glyph-name="Y" unicode="Y" horiz-adv-x="619" 
d="M156 1000h120l139 -454l276 454h72l-327 -538l-69 -462h-115l69 462z" />
    <glyph glyph-name="oslash" unicode="&#xf8;" horiz-adv-x="595" 
d="M457 994h-21c-116 0 -60 -156 -98 -249c-33 -81 -87 -157 -100 -240l-6 -40c-2 -14 -3 -27 -3 -40c0 -21 3 -42 6 -62l248 427c8 52 30 111 30 152c0 31 -13 52 -56 52zM466 1053c62 0 75 -42 75 -96c0 -23 -2 -48 -4 -74l51 87h129l-151 -259c27 -58 59 -112 59 -177
c0 -9 -1 -19 -2 -29l-6 -40c-15 -101 -108 -177 -162 -269c-60 -102 -31 -279 -159 -279h-22c-62 0 -75 42 -75 96c0 23 3 48 5 74l-51 -87h-129l151 259c-27 58 -60 112 -60 177c0 9 1 19 2 29l6 40c15 101 109 177 163 269c60 102 31 279 159 279h21zM258 180
c-8 -52 -31 -111 -31 -152c0 -31 13 -52 56 -52h22c116 0 60 156 98 249c33 81 86 157 99 240l6 40c2 14 3 27 3 40c0 21 -2 42 -5 62z" />
    <glyph glyph-name="dieresis" unicode="&#xa8;" horiz-adv-x="250" 
d="M160 950c30 0 30 -38 47 -58c13 -15 37 -22 46 -37c14 15 40 22 57 37c23 20 35 58 65 58s29 -38 46 -58c16 -19 50 -25 50 -51c0 -34 -43 -40 -66 -60s-34 -58 -64 -58s-30 38 -47 58c-13 15 -37 22 -46 37c-14 -15 -40 -22 -57 -37c-23 -20 -35 -58 -65 -58
s-30 38 -47 58c-16 19 -49 25 -49 51c0 34 43 40 66 60s34 58 64 58z" />
    <glyph glyph-name="o" unicode="o" horiz-adv-x="595" 
d="M457 994h-21c-116 0 -60 -156 -98 -249c-33 -81 -87 -157 -100 -240l-6 -40c-2 -14 -3 -27 -3 -40c0 -68 24 -133 31 -200v-13c0 -58 -33 -134 -33 -184c0 -31 13 -52 56 -52h22c116 0 60 156 98 249c33 81 86 157 99 240l6 40c2 14 3 27 3 40c0 68 -23 133 -30 200
c0 4 -1 8 -1 13c0 58 33 134 33 184c0 31 -13 52 -56 52zM466 1053c62 0 75 -42 75 -96c0 -38 -6 -83 -6 -124c0 -21 2 -41 7 -59c24 -83 83 -153 83 -240c0 -9 -1 -19 -2 -29l-6 -40c-15 -101 -108 -177 -162 -269c-60 -102 -31 -279 -159 -279h-22c-62 0 -75 42 -75 96
c0 38 7 83 7 124c0 21 -2 41 -7 59c-24 83 -84 153 -84 240c0 9 1 19 2 29l6 40c15 101 109 177 163 269c60 102 31 279 159 279h21z" />
    <glyph glyph-name="sacute" unicode="&#x15b;" horiz-adv-x="476" 
d="M70 182l113 34c-1 -5 -1 -10 -1 -15c0 -36 18 -68 24 -103c1 -4 2 -8 2 -13c0 -25 -10 -56 -10 -78c0 -18 6 -31 29 -31h14c55 0 37 75 59 120c20 40 52 77 58 120l2 19c3 23 6 46 6 69c0 52 -11 101 -38 142l-90 22c-44 66 -74 143 -74 226c0 17 1 34 4 51l3 19
c9 59 72 95 110 144c40 52 43 145 110 145h10c69 0 41 -94 65 -147c18 -40 57 -70 67 -111l-114 -31c1 6 1 12 1 18c0 32 -11 63 -15 95c0 2 -1 5 -1 7c0 27 15 62 15 85c0 15 -7 25 -27 25h-10c-53 0 -30 -72 -48 -115c-16 -39 -42 -75 -48 -115l-3 -19
c-3 -22 -5 -45 -5 -66c0 -56 12 -108 41 -152l91 -22c42 -64 69 -138 69 -218c0 -17 -1 -34 -4 -52l-2 -19c-9 -63 -79 -98 -120 -149c-43 -54 -50 -150 -120 -150h-14c-72 0 -46 99 -73 153c-20 41 -64 70 -76 112zM424 1479h125l-162 -200h-93z" />
    <glyph glyph-name="J" unicode="J" horiz-adv-x="524" 
d="M596 1000l-121 -808c-10 -63 -87 -88 -132 -135c-47 -49 -61 -140 -129 -140h-18c-68 0 -55 91 -87 140c-29 45 -93 69 -93 124c0 4 0 7 1 11h115c-1 -4 -1 -7 -1 -10c0 -36 28 -63 39 -96c3 -10 4 -20 4 -32c0 -11 -1 -22 -1 -32c0 -25 3 -46 31 -46h19
c51 0 43 70 68 110c23 36 63 65 69 106l121 808h115z" />
    <glyph glyph-name="dotaccent" unicode="&#x2d9;" horiz-adv-x="214" 
d="M250 950c30 0 29 -38 46 -58c16 -19 50 -25 50 -51c0 -34 -43 -40 -66 -60s-34 -58 -64 -58s-30 38 -47 58c-16 19 -50 25 -50 51c0 34 43 40 66 60s35 58 65 58z" />
    <glyph glyph-name="y" unicode="y" horiz-adv-x="500" 
d="M151 970h116l49 -697l259 697h64l-616 -1660h-64l261 703z" />
    <glyph glyph-name="yacute" unicode="&#xfd;" horiz-adv-x="500" 
d="M151 970h116l49 -697l259 697h64l-616 -1660h-64l261 703zM435 1479h126l-163 -200h-92z" />
    <glyph glyph-name="dotlessj" unicode="&#x237;" horiz-adv-x="250" 
d="M324 970l-201 -1341c-11 -72 -72 -130 -107 -197c-40 -75 -11 -205 -105 -205h-6c-41 0 -52 24 -52 58c0 31 9 69 11 104l38 3c-12 -30 -25 -58 -25 -78c0 -17 10 -28 37 -28h6c39 0 47 22 47 53c0 27 -6 60 -6 90c0 11 0 22 3 32c14 56 36 112 44 168l201 1341h115z" />
    <glyph glyph-name="braceleft" unicode="{" horiz-adv-x="363" 
d="M514 1077c-21 -42 -40 -88 -71 -121c-68 -73 -193 -100 -208 -198h115l-47 -313c-10 -65 -79 -107 -118 -163c-22 -32 -30 -75 -45 -112c4 -38 -1 -79 12 -111c21 -52 70 -91 70 -148c0 -5 -1 -10 -2 -15l-46 -313c-1 -5 -2 -9 -2 -14c0 -64 67 -99 93 -156
c17 -38 9 -94 15 -137l-38 -12c-8 42 -13 88 -34 121c-44 68 -151 97 -151 182c0 5 0 10 1 16l47 313c1 5 1 10 1 15c0 32 -14 60 -19 91c-1 3 -1 6 -1 10c0 24 10 53 10 74c0 16 -6 27 -26 27l18 115c51 0 30 70 49 111c17 36 45 68 51 106l47 313h115
c11 74 97 109 143 170c28 38 38 94 56 137z" />
    <glyph glyph-name="numbersign" unicode="#" horiz-adv-x="643" 
d="M72 321l9 59h111l68 240h-119l9 59h127l91 321h117l-91 -321h106l91 321h118l-91 -321h103l-9 -59h-111l-69 -240h120l-9 -59h-127l-91 -321h-118l91 321h-105l-91 -321h-118l91 321h-103zM415 380l68 240h-105l-69 -240h106z" />
    <glyph glyph-name="quoteleft" unicode="&#x2018;" horiz-adv-x="303" 
d="M303 1000h91l-132 -325h-122z" />
    <glyph glyph-name="ffl" unicode="&#xfb04;" horiz-adv-x="827" 
d="M736 1178c2 15 -11 24 -11 40c0 5 1 9 1 14c0 7 -2 12 -9 12h-5c-15 0 -12 -22 -19 -34c-6 -11 -18 -20 -20 -32l-31 -208h82l-9 -59h-82l-136 -911h-115l136 911h-155l-137 -911h-115l137 911h-54l9 59h53l32 208c5 36 53 39 82 61c28 22 45 64 80 64h5
c35 0 39 -42 61 -64c11 -11 28 -16 42 -24l-92 -37c2 15 -11 24 -11 40v14c0 7 -2 12 -9 12h-5c-15 0 -12 -22 -19 -34c-6 -11 -17 -20 -19 -32l-32 -208h156l31 208c5 36 54 39 83 61c28 22 45 64 80 64h5c35 0 39 -42 61 -64c9 -9 23 -15 36 -21l1 2h115l-183 -1220h-115
l181 1212z" />
    <glyph glyph-name="perthousandzero" horiz-adv-x="411" 
d="M298 260c0 27 -14 51 -14 79c0 20 9 44 9 61c0 12 -4 20 -20 20h-9c-41 0 -24 -55 -38 -88c-13 -29 -34 -55 -38 -85l-2 -14c-1 -4 -1 -9 -1 -13c0 -27 14 -51 14 -79c0 -20 -10 -45 -10 -62c0 -12 5 -20 21 -20h8c41 0 24 55 38 88c13 29 35 56 39 86l2 14c1 4 1 9 1 13
zM282 480c56 0 40 -77 63 -119c21 -37 68 -60 68 -104c0 -3 -1 -7 -1 -10l-2 -14c-8 -51 -68 -74 -102 -114c-36 -42 -42 -119 -98 -119h-9c-56 0 -40 77 -63 119c-21 37 -68 60 -68 104c0 3 1 7 1 10l2 14c8 51 67 74 101 114c36 42 43 119 99 119h9z" />
    <glyph glyph-name="lcaron" unicode="&#x13e;" horiz-adv-x="258" 
d="M71 0l183 1220h115l-47 -315l128 315h123l-164 -325h-88l-135 -895h-115z" />
    <glyph glyph-name="three" unicode="3" 
d="M415 245c0 47 -40 78 -40 131c0 17 2 36 2 52c0 24 -6 42 -33 42h-59l9 60h59c56 0 44 77 70 121c23 40 64 72 71 116l3 20c1 4 1 8 1 12c0 47 -40 78 -40 131c0 17 2 36 2 52c0 24 -6 42 -33 42h-18c-56 0 -43 -77 -69 -121c-23 -40 -64 -72 -71 -116l-101 37
c27 42 84 68 120 108c47 53 58 151 130 151h18c72 0 54 -98 85 -151c28 -48 92 -76 92 -133c0 -4 0 -8 -1 -12l-3 -20c-9 -61 -86 -80 -131 -124c-37 -36 -55 -99 -95 -121c38 -24 29 -100 55 -144c28 -48 92 -76 92 -133c0 -4 0 -8 -1 -12l-3 -20
c-10 -66 -89 -94 -134 -145c-47 -53 -59 -151 -131 -151h-18c-72 0 -54 98 -85 151c-24 40 -72 66 -87 108l112 37c-1 -4 -1 -8 -1 -12c0 -47 40 -78 40 -131c0 -17 -3 -36 -3 -52c0 -24 6 -42 33 -42h18c56 0 44 77 70 121c23 40 64 72 71 116l3 20c1 4 1 8 1 12z" />
    <glyph glyph-name="Ucircumflex" unicode="&#xdb;" horiz-adv-x="707" 
d="M777 1000l-114 -759c-11 -75 -104 -103 -157 -159c-55 -58 -72 -165 -152 -165h-26c-80 0 -65 107 -103 165c-34 53 -110 81 -110 146c0 4 0 8 1 13l114 759h115l-114 -759c-1 -4 -1 -8 -1 -12c0 -45 40 -77 56 -118c19 -49 -12 -135 51 -135h26c63 0 57 86 91 135
c31 45 86 78 94 130l114 759h115zM487 1168l-66 -93h-90l112 200h121l52 -200h-90z" />
    <glyph glyph-name="ohungarumlaut" unicode="&#x151;" horiz-adv-x="595" 
d="M265 1279l121 200h123l-153 -200h-91zM564 1479h124l-153 -200h-92zM457 994h-21c-116 0 -60 -156 -98 -249c-33 -81 -87 -157 -100 -240l-6 -40c-2 -14 -3 -27 -3 -40c0 -68 24 -133 31 -200v-13c0 -58 -33 -134 -33 -184c0 -31 13 -52 56 -52h22c116 0 60 156 98 249
c33 81 86 157 99 240l6 40c2 14 3 27 3 40c0 68 -23 133 -30 200c0 4 -1 8 -1 13c0 58 33 134 33 184c0 31 -13 52 -56 52zM466 1053c62 0 75 -42 75 -96c0 -38 -6 -83 -6 -124c0 -21 2 -41 7 -59c24 -83 83 -153 83 -240c0 -9 -1 -19 -2 -29l-6 -40
c-15 -101 -108 -177 -162 -269c-60 -102 -31 -279 -159 -279h-22c-62 0 -75 42 -75 96c0 38 7 83 7 124c0 21 -2 41 -7 59c-24 83 -84 153 -84 240c0 9 1 19 2 29l6 40c15 101 109 177 163 269c60 102 31 279 159 279h21z" />
    <glyph glyph-name="bracketleft" unicode="[" horiz-adv-x="333" 
d="M4 -690l261 1740h190l-9 -59h-75l-243 -1622h75l-9 -59h-190z" />
    <glyph glyph-name="oacute" unicode="&#xf3;" horiz-adv-x="595" 
d="M483 1479h125l-162 -200h-93zM457 994h-21c-116 0 -60 -156 -98 -249c-33 -81 -87 -157 -100 -240l-6 -40c-2 -14 -3 -27 -3 -40c0 -68 24 -133 31 -200v-13c0 -58 -33 -134 -33 -184c0 -31 13 -52 56 -52h22c116 0 60 156 98 249c33 81 86 157 99 240l6 40
c2 14 3 27 3 40c0 68 -23 133 -30 200c0 4 -1 8 -1 13c0 58 33 134 33 184c0 31 -13 52 -56 52zM466 1053c62 0 75 -42 75 -96c0 -38 -6 -83 -6 -124c0 -21 2 -41 7 -59c24 -83 83 -153 83 -240c0 -9 -1 -19 -2 -29l-6 -40c-15 -101 -108 -177 -162 -269
c-60 -102 -31 -279 -159 -279h-22c-62 0 -75 42 -75 96c0 38 7 83 7 124c0 21 -2 41 -7 59c-24 83 -84 153 -84 240c0 9 1 19 2 29l6 40c15 101 109 177 163 269c60 102 31 279 159 279h21z" />
    <glyph glyph-name="nine" unicode="9" horiz-adv-x="583" 
d="M191 221c0 -53 46 -85 46 -146c0 -17 -2 -34 -2 -50c0 -28 6 -49 37 -49h20c60 0 49 84 78 132c26 43 73 78 80 126l64 430c-20 -33 -48 -65 -67 -99c-34 -62 -14 -169 -92 -169h-20c-80 0 -56 109 -89 169c-29 53 -96 86 -96 149c0 4 0 9 1 14l3 23
c11 72 95 106 144 163c51 60 60 169 140 169h20c80 0 56 -109 89 -169c29 -53 96 -86 96 -149c0 -4 0 -9 -1 -14l-77 -517c-11 -70 -95 -101 -143 -155c-50 -57 -62 -162 -139 -162h-20c-77 0 -57 105 -90 162c-25 43 -77 71 -93 115l112 40c-1 -4 -1 -9 -1 -13zM528 765
c0 54 -45 89 -45 149c0 21 4 44 4 63c0 27 -6 47 -37 47h-21c-64 0 -49 -88 -79 -139c-27 -46 -73 -84 -81 -134l-3 -23c-1 -5 -1 -9 -1 -14c0 -54 45 -89 45 -149c0 -21 -4 -44 -4 -63c0 -27 6 -48 37 -48h21c64 0 49 89 79 140c27 46 73 84 81 134l3 23c1 5 1 9 1 14z" />
    <glyph glyph-name="backslash" unicode="\" horiz-adv-x="446" 
d="M287 -50l-106 1100h128l106 -1100h-128z" />
    <glyph glyph-name="atilde" unicode="&#xe3;" horiz-adv-x="559" 
d="M488 0h-115l26 174c-17 -30 -39 -60 -55 -91c-30 -61 -4 -166 -80 -166h-17c-78 0 -50 107 -79 166c-26 52 -85 87 -85 146c0 4 0 9 1 14l3 22c10 68 88 104 132 160c47 59 51 166 129 166h17c32 0 40 -18 40 -44c0 -30 -12 -70 -12 -103c0 -7 1 -13 2 -19
c6 -31 20 -61 28 -91l40 266c2 11 2 23 2 34c0 54 -18 105 -23 159v10c0 47 28 109 28 149c0 25 -11 42 -45 42h-17c-94 0 -47 -126 -77 -201c-21 -54 -55 -105 -71 -159l-88 49c31 47 77 90 107 139c52 84 32 231 138 231h17c55 0 64 -39 64 -89c0 -26 -2 -55 -2 -82
c0 -22 1 -42 7 -60c22 -69 77 -126 77 -200c0 -7 -1 -14 -2 -22zM310 1284h-92c5 33 46 45 70 69c24 25 33 71 68 71c47 0 49 -72 96 -72c21 0 12 27 19 44c6 14 17 28 19 43h92c-5 -33 -46 -44 -70 -68c-24 -25 -33 -72 -68 -72c-47 0 -49 73 -96 73c-21 0 -12 -28 -19 -45
c-6 -14 -17 -28 -19 -43zM198 227c0 -48 32 -82 32 -133c0 -26 -8 -57 -8 -81c0 -22 7 -37 34 -37h17c63 0 41 86 67 136c23 44 62 83 69 131l4 22c1 5 1 11 1 16c0 41 -23 76 -31 115c-1 6 -2 12 -2 18c0 26 8 57 8 81c0 22 -6 37 -33 37h-17c-63 0 -42 -86 -68 -136
c-23 -44 -62 -83 -69 -131l-3 -22c-1 -5 -1 -11 -1 -16z" />
    <glyph glyph-name="Aacute" unicode="&#xc1;" horiz-adv-x="660" 
d="M12 0l439 1000h58l140 -1000h-117l-45 325h-267l-143 -325h-65zM516 1275h125l-162 -200h-93zM479 384l-56 403l-177 -403h233z" />
    <glyph glyph-name="ccedilla" unicode="&#xe7;" horiz-adv-x="579" 
d="M165 -519c5 -15 11 -29 11 -47c0 -22 -8 -49 -8 -68c0 -15 5 -26 25 -26h11c49 0 30 66 49 105c16 34 45 65 50 101l2 17c1 5 1 9 1 13c0 31 -15 58 -20 88c-1 3 -1 7 -1 11c0 22 9 49 9 68c0 15 -5 26 -25 26h-98l55 162c-21 17 -27 46 -27 82c0 38 7 83 7 124
c0 21 -2 41 -7 59c-24 83 -84 153 -84 240c0 9 1 19 2 29l6 40c15 101 109 177 163 269c60 102 31 279 159 279h21c62 0 75 -42 75 -96c0 -38 -6 -83 -6 -124c0 -21 2 -41 7 -59c20 -70 66 -132 80 -202l-111 -36v9c0 68 -23 133 -30 200c0 4 -1 8 -1 13c0 58 33 134 33 184
c0 31 -13 52 -56 52h-21c-116 0 -60 -156 -98 -249c-33 -81 -87 -157 -100 -240l-6 -40c-2 -14 -3 -27 -3 -40c0 -68 24 -133 31 -200v-13c0 -58 -33 -134 -33 -184c0 -19 5 -33 18 -42l13 38h86l-15 -45c84 21 39 160 74 246c28 71 74 137 93 209l99 -36
c-35 -70 -99 -132 -140 -202c-58 -98 -33 -267 -147 -278l-35 -101h3c60 0 37 -84 59 -130c19 -40 63 -67 63 -113c0 -4 0 -7 -1 -11l-2 -17c-8 -52 -66 -81 -100 -124c-36 -46 -38 -130 -98 -130h-12c-60 0 -36 84 -58 130c-3 7 -8 13 -13 20z" />
    <glyph glyph-name="Lslash" unicode="&#x141;" horiz-adv-x="559" 
d="M524 0h-429l52 346l-80 -60l19 128l80 60l79 526h115l-64 -430l192 144l-19 -128l-192 -143l-58 -384h313z" />
    <glyph glyph-name="Sacute" unicode="&#x15a;" horiz-adv-x="619" 
d="M548 809c-6 45 -45 72 -45 128c0 13 1 26 1 38c0 27 -4 49 -34 49h-20c-54 0 -47 -76 -74 -119c-25 -40 -68 -73 -75 -118l-3 -20c-3 -21 -5 -42 -5 -63c0 -60 16 -115 57 -153l142 -37c65 -60 113 -139 113 -231c0 -13 -1 -26 -3 -40l-3 -19c-11 -71 -96 -101 -147 -154
c-52 -54 -72 -153 -147 -153h-23c-76 0 -61 101 -97 156c-28 43 -86 69 -101 115l112 36c-1 -4 -1 -8 -1 -12c0 -42 35 -72 50 -110c17 -45 -12 -126 46 -126h23c57 0 54 79 85 124c29 42 78 75 85 124l3 19c3 21 4 41 4 61c0 59 -14 114 -55 151l-142 37
c-66 60 -114 141 -114 234c0 13 1 27 3 41l3 20c10 67 90 97 137 148c40 44 58 116 103 140h-64l130 200h125l-156 -192h18c73 0 56 -98 89 -151c26 -42 80 -68 93 -113z" />
    <glyph glyph-name="visiblespace" unicode="&#x2420;" horiz-adv-x="476" 
d="M24 0h115l-37 -246h198l37 246h115c-15 -102 -31 -204 -46 -306h-428c15 102 31 204 46 306z" />
    <glyph glyph-name="aring" unicode="&#xe5;" horiz-adv-x="559" 
d="M488 0h-115l26 174c-17 -30 -39 -60 -55 -91c-30 -61 -4 -166 -80 -166h-17c-78 0 -50 107 -79 166c-26 52 -85 87 -85 146c0 4 0 9 1 14l3 22c10 68 88 104 132 160c47 59 51 166 129 166h17c32 0 40 -18 40 -44c0 -30 -12 -70 -12 -103c0 -7 1 -13 2 -19
c6 -31 20 -61 28 -91l40 266c2 11 2 23 2 34c0 54 -18 105 -23 159v10c0 47 28 109 28 149c0 25 -11 42 -45 42h-17c-94 0 -47 -126 -77 -201c-21 -54 -55 -105 -71 -159l-88 49c31 47 77 90 107 139c52 84 32 231 138 231h17c55 0 64 -39 64 -89c0 -26 -2 -55 -2 -82
c0 -22 1 -42 7 -60c22 -69 77 -126 77 -200c0 -7 -1 -14 -2 -22zM198 227c0 -48 32 -82 32 -133c0 -26 -8 -57 -8 -81c0 -22 7 -37 34 -37h17c63 0 41 86 67 136c23 44 62 83 69 131l4 22c1 5 1 11 1 16c0 41 -23 76 -31 115c-1 6 -2 12 -2 18c0 26 8 57 8 81
c0 22 -6 37 -33 37h-17c-63 0 -42 -86 -68 -136c-23 -44 -62 -83 -69 -131l-3 -22c-1 -5 -1 -11 -1 -16zM418 1460h-7c-18 0 -15 -26 -24 -40c-11 -16 -27 -24 -27 -48c0 -16 16 -27 16 -47v-8c0 -10 1 -18 11 -18h7c18 0 16 25 25 39c11 16 26 24 26 48c0 17 -15 28 -15 48
v7c0 10 -2 19 -12 19zM424 1499c31 0 31 -39 48 -59c16 -19 50 -27 50 -53v-5l-1 -6c-5 -30 -44 -37 -67 -57s-35 -59 -66 -59h-7c-31 0 -30 39 -47 59c-16 19 -50 26 -50 52v5l1 6c5 30 44 38 67 58s34 59 65 59h7z" />
    <glyph glyph-name="m" unicode="m" horiz-adv-x="863" 
d="M71 0l146 970h115l-29 -193c19 33 44 66 61 100c33 65 6 176 87 176h15c81 0 40 -113 64 -176c17 -44 53 -80 65 -125c19 43 53 82 75 125c33 65 5 176 86 176h16c81 0 39 -113 63 -176c20 -53 70 -95 70 -153c0 -5 -1 -11 -2 -16l-106 -708h-115l106 708c1 8 2 17 2 25
c0 39 -13 76 -16 115v7c0 34 21 79 21 109c0 18 -7 30 -32 30h-15c-67 0 -47 -92 -75 -146c-25 -48 -67 -89 -75 -140l-106 -708h-115l106 708c1 8 2 17 2 25c0 39 -13 76 -16 115v7c0 34 21 79 21 109c0 18 -8 30 -33 30h-15c-67 0 -46 -92 -74 -146
c-25 -48 -67 -89 -75 -140l-107 -708h-115z" />
    <glyph glyph-name="ograve" unicode="&#xf2;" horiz-adv-x="595" 
d="M287 1479h125l70 -200h-93zM457 994h-21c-116 0 -60 -156 -98 -249c-33 -81 -87 -157 -100 -240l-6 -40c-2 -14 -3 -27 -3 -40c0 -68 24 -133 31 -200v-13c0 -58 -33 -134 -33 -184c0 -31 13 -52 56 -52h22c116 0 60 156 98 249c33 81 86 157 99 240l6 40c2 14 3 27 3 40
c0 68 -23 133 -30 200c0 4 -1 8 -1 13c0 58 33 134 33 184c0 31 -13 52 -56 52zM466 1053c62 0 75 -42 75 -96c0 -38 -6 -83 -6 -124c0 -21 2 -41 7 -59c24 -83 83 -153 83 -240c0 -9 -1 -19 -2 -29l-6 -40c-15 -101 -108 -177 -162 -269c-60 -102 -31 -279 -159 -279h-22
c-62 0 -75 42 -75 96c0 38 7 83 7 124c0 21 -2 41 -7 59c-24 83 -84 153 -84 240c0 9 1 19 2 29l6 40c15 101 109 177 163 269c60 102 31 279 159 279h21z" />
    <glyph glyph-name="Cacute" unicode="&#x106;" horiz-adv-x="803" 
d="M826 410c-45 -76 -134 -131 -191 -206c-78 -102 -77 -287 -211 -287h-40c-134 0 -78 185 -125 287c-41 88 -135 151 -135 251c0 8 0 16 1 24l7 42c17 115 143 180 216 275c68 89 76 243 167 279h-43l130 200h125l-155 -192h27c134 0 78 -185 125 -287
c34 -75 107 -130 129 -206l-109 -45c1 82 -58 145 -81 222c-6 18 -7 39 -7 61c0 34 4 70 4 102c0 53 -11 94 -70 94h-40c-118 0 -94 -164 -150 -257c-51 -84 -139 -152 -153 -246l-7 -42c-1 -9 -1 -17 -1 -25c0 -81 58 -145 81 -221c6 -18 7 -39 7 -61c0 -34 -4 -70 -4 -102
c0 -53 11 -94 70 -94h40c118 0 94 164 150 257c46 77 124 140 148 222z" />
    <glyph glyph-name="six" unicode="6" horiz-adv-x="583" 
d="M542 779c0 53 -46 85 -46 146c0 17 2 34 2 50c0 28 -6 49 -37 49h-20l-63 -420l63 420c-60 0 -49 -84 -78 -132c-26 -43 -72 -78 -79 -126l-65 -430c20 33 48 65 67 99c34 62 14 169 92 169h20c80 0 57 -109 90 -169c29 -53 95 -86 95 -149c0 -4 0 -9 -1 -14l-3 -23
c-11 -72 -95 -106 -144 -163c-51 -60 -60 -169 -140 -169h-20c-80 0 -56 109 -89 169c-29 53 -96 86 -96 149c0 4 0 9 1 14l77 517c11 70 95 101 143 155c50 57 62 162 139 162h20c77 0 57 -105 90 -162c25 -43 77 -71 93 -115l-112 -40c1 4 1 9 1 13zM205 235
c0 -54 45 -89 45 -149c0 -21 -4 -44 -4 -63c0 -27 7 -47 38 -47h20c64 0 49 88 79 139c27 46 73 84 81 134l3 23c1 5 1 9 1 14c0 54 -44 89 -44 149c0 21 3 44 3 63c0 27 -6 48 -37 48h-21c-64 0 -49 -89 -79 -140c-27 -46 -73 -84 -81 -134l-3 -23c-1 -5 -1 -9 -1 -14z" />
    <glyph glyph-name="egrave" unicode="&#xe8;" horiz-adv-x="589" 
d="M625 514c-3 -20 -6 -38 -9 -58h-385c-1 -10 -2 -21 -2 -31c0 -68 24 -133 31 -200v-13c0 -58 -33 -134 -33 -184c0 -31 13 -52 56 -52h22c90 0 56 123 90 195c30 63 81 121 91 188h115c-13 -86 -102 -142 -154 -217c-56 -81 -47 -225 -151 -225h-22c-62 0 -75 42 -75 96
c0 38 7 83 7 124c0 21 -2 41 -7 59c-24 83 -84 153 -84 240c0 9 1 19 2 29l6 40c15 101 109 177 163 269c60 102 31 279 159 279h21c62 0 75 -42 75 -96c0 -38 -6 -83 -6 -124c0 -21 2 -41 7 -59c24 -83 83 -153 83 -240c0 -6 0 -14 -1 -20h1zM287 1479h125l70 -200h-93z
M509 514c1 10 2 21 2 31c0 68 -23 133 -30 200c0 4 -1 8 -1 13c0 58 33 134 33 184c0 31 -13 52 -56 52h-21c-116 0 -60 -156 -98 -249c-31 -78 -83 -151 -98 -231h269z" />
    <glyph glyph-name="cwm" horiz-adv-x="0" 
d="M110 -4c-2 -13 -12 -25 -28 -25s-32 14 -29 33l150 1000c2 13 12 25 28 25s32 -14 29 -33z" />
    <glyph glyph-name="hyphen" unicode="-" horiz-adv-x="345" 
d="M116 456l9 58h250l-9 -58h-250z" />
    <glyph glyph-name="scaron" unicode="&#x161;" horiz-adv-x="476" 
d="M70 182l113 34c-1 -5 -1 -10 -1 -15c0 -36 18 -68 24 -103c1 -4 2 -8 2 -13c0 -25 -10 -56 -10 -78c0 -18 6 -31 29 -31h14c55 0 37 75 59 120c20 40 52 77 58 120l2 19c3 23 6 46 6 69c0 52 -11 101 -38 142l-90 22c-44 66 -74 143 -74 226c0 17 1 34 4 51l3 19
c9 59 72 95 110 144c40 52 43 145 110 145h10c69 0 41 -94 65 -147c18 -40 57 -70 67 -111l-114 -31c1 6 1 12 1 18c0 32 -11 63 -15 95c0 2 -1 5 -1 7c0 27 15 62 15 85c0 15 -7 25 -27 25h-10c-53 0 -30 -72 -48 -115c-16 -39 -42 -75 -48 -115l-3 -19
c-3 -22 -5 -45 -5 -66c0 -56 12 -108 41 -152l91 -22c42 -64 69 -138 69 -218c0 -17 -1 -34 -4 -52l-2 -19c-9 -63 -79 -98 -120 -149c-43 -54 -50 -150 -120 -150h-14c-72 0 -46 99 -73 153c-20 41 -64 70 -76 112zM440 1479h90l-111 -200h-122l-51 200h90l38 -92z" />
    <glyph glyph-name="Zacute" unicode="&#x179;" horiz-adv-x="607" 
d="M171 941l9 59h547l-9 -58l-542 -883h410l-9 -59h-547l8 58l543 883h-410zM489 1275h125l-162 -200h-93z" />
    <glyph glyph-name="igrave" unicode="&#xec;" horiz-adv-x="226" 
d="M56 0l145 970h115l-145 -970h-115zM102 1479h125l70 -200h-92z" />
    <glyph glyph-name="acircumflex" unicode="&#xe2;" horiz-adv-x="559" 
d="M488 0h-115l26 174c-17 -30 -39 -60 -55 -91c-30 -61 -4 -166 -80 -166h-17c-78 0 -50 107 -79 166c-26 52 -85 87 -85 146c0 4 0 9 1 14l3 22c10 68 88 104 132 160c47 59 51 166 129 166h17c32 0 40 -18 40 -44c0 -30 -12 -70 -12 -103c0 -7 1 -13 2 -19
c6 -31 20 -61 28 -91l40 266c2 11 2 23 2 34c0 54 -18 105 -23 159v10c0 47 28 109 28 149c0 25 -11 42 -45 42h-17c-94 0 -47 -126 -77 -201c-21 -54 -55 -105 -71 -159l-88 49c31 47 77 90 107 139c52 84 32 231 138 231h17c55 0 64 -39 64 -89c0 -26 -2 -55 -2 -82
c0 -22 1 -42 7 -60c22 -69 77 -126 77 -200c0 -7 -1 -14 -2 -22zM198 227c0 -48 32 -82 32 -133c0 -26 -8 -57 -8 -81c0 -22 7 -37 34 -37h17c63 0 41 86 67 136c23 44 62 83 69 131l4 22c1 5 1 11 1 16c0 41 -23 76 -31 115c-1 6 -2 12 -2 18c0 26 8 57 8 81
c0 22 -6 37 -33 37h-17c-63 0 -42 -86 -68 -136c-23 -44 -62 -83 -69 -131l-3 -22c-1 -5 -1 -11 -1 -16zM402 1372l-66 -93h-90l111 200h121l52 -200h-90z" />
    <glyph glyph-name="M" unicode="M" horiz-adv-x="922" 
d="M83 0l150 1000h58l182 -897l458 897h58l-150 -1000h-115l97 649l-331 -649h-58l-134 663l-100 -663h-115z" />
    <glyph glyph-name="N" unicode="N" horiz-adv-x="744" 
d="M83 0l150 1000h58l289 -767l115 767h115l-150 -1000h-58l-289 767l-115 -767h-115z" />
    <glyph glyph-name="at" unicode="@" horiz-adv-x="797" 
d="M660 730c-13 28 -22 57 -22 98c0 34 4 70 4 102c0 53 -11 94 -70 94h-40c-118 0 -94 -164 -150 -257c-51 -84 -139 -152 -153 -246l-6 -42c-1 -9 -2 -17 -2 -25c0 -81 58 -145 81 -221c6 -18 7 -39 7 -61c0 -34 -4 -70 -4 -102c0 -53 11 -94 70 -94h40
c64 0 84 84 131 128c46 44 126 62 135 124l81 -60c-43 -38 -115 -54 -164 -93c-68 -54 -107 -158 -192 -158h-40c-134 0 -78 185 -125 287c-41 88 -135 151 -135 251c0 8 1 16 2 24l6 42c17 115 143 180 216 275c78 102 77 287 211 287h40c134 0 78 -185 125 -287
c41 -88 136 -151 136 -251c0 -8 -1 -16 -2 -24l-5 -31c-8 -52 -73 -70 -110 -108c-38 -39 -51 -112 -106 -112h-6l9 60h6c38 0 28 51 45 81c15 27 43 50 47 79l5 31c1 9 2 17 2 25c0 54 -27 101 -51 149l-63 -425h-115l25 169c-12 -18 -27 -36 -37 -55
c-23 -42 -8 -114 -60 -114h-12c-56 0 -48 74 -75 114c-25 36 -79 54 -79 100v9l2 14c8 53 74 70 112 109c39 40 52 114 108 114h13c23 0 29 -14 29 -34c0 -18 -5 -42 -5 -62c0 -30 13 -50 22 -73l26 169h93zM534 515c0 32 -27 54 -27 90c0 12 1 26 1 37c0 16 -3 28 -22 28
h-12c-38 0 -30 -53 -48 -83c-16 -27 -43 -50 -48 -80l-3 -14v-8c0 -32 27 -54 27 -90c0 -12 -2 -26 -2 -37c0 -16 4 -28 23 -28h12c38 0 30 53 48 83c16 27 43 50 48 80l2 14c0 3 1 5 1 8z" />
    <glyph glyph-name="idieresis" unicode="&#xef;" horiz-adv-x="226" 
d="M56 0l145 970h115l-145 -970h-115zM148 1429c30 0 30 -38 47 -58c13 -15 37 -22 46 -37c14 15 40 22 57 37c23 20 35 58 65 58s30 -38 47 -58c16 -19 49 -24 49 -50c0 -34 -43 -41 -66 -61s-34 -58 -64 -58s-30 38 -47 58c-13 15 -37 22 -46 37c-14 -15 -40 -22 -57 -37
c-23 -20 -35 -58 -65 -58s-29 38 -46 58c-16 19 -50 25 -50 51c0 34 43 40 66 60s34 58 64 58z" />
    <glyph glyph-name="colon" unicode=":" horiz-adv-x="305" 
d="M186 221c29 0 30 -37 46 -56c16 -18 48 -25 48 -50c0 -34 -42 -39 -65 -59c-22 -19 -33 -56 -62 -56s-30 37 -46 56c-16 18 -49 25 -49 50c0 34 42 39 65 59c22 19 34 56 63 56zM298 970c29 0 30 -37 46 -56c16 -18 49 -25 49 -50c0 -34 -42 -39 -65 -59
c-22 -19 -34 -56 -63 -56s-30 37 -46 56c-16 18 -48 25 -48 50c0 34 42 39 65 59c22 19 33 56 62 56z" />
    <glyph glyph-name="l" unicode="l" horiz-adv-x="258" 
d="M71 0l183 1220h115l-183 -1220h-115z" />
    <glyph glyph-name="Iacute" unicode="&#xcd;" horiz-adv-x="305" 
d="M95 0l150 1000h115l-150 -1000h-115zM338 1275h126l-163 -200h-93z" />
    <glyph glyph-name="two" unicode="2" 
d="M48 0l8 59c83 90 165 181 248 271c111 135 181 295 205 458l3 18c1 4 0 8 0 11c0 36 -27 63 -38 96c-3 9 -4 21 -4 32s1 22 1 33c0 25 -4 46 -32 46h-18c-51 0 -43 -71 -68 -111c-23 -37 -63 -66 -69 -107l-102 34c26 40 83 64 119 102c47 49 61 141 129 141h18
c68 0 55 -92 87 -141c29 -45 93 -69 93 -124c0 -4 0 -8 -1 -12l-3 -18c-29 -190 -156 -360 -285 -518c-65 -71 -129 -141 -194 -211h370l-9 -59h-458z" />
    <glyph glyph-name="zero" unicode="0" horiz-adv-x="619" 
d="M473 1024h-20c-3 0 -62 -151 -98 -244c-33 -86 -94 -244 -96 -259l-7 -42v-5c0 -32 12 -174 19 -254c8 -93 21 -244 24 -244h21c3 0 62 151 98 244c33 86 94 244 96 259l6 42c0 1 1 2 1 5c0 32 -12 174 -19 254c-8 93 -22 244 -25 244zM482 1083c7 0 52 -171 79 -273
c26 -97 72 -273 70 -289l-6 -42c-2 -16 -102 -192 -157 -289c-58 -102 -154 -273 -161 -273h-20c-7 0 -53 171 -80 273c-26 97 -72 273 -70 289l7 42c2 16 101 192 156 289c58 102 155 273 162 273h20z" />
    <glyph glyph-name="g" unicode="g" horiz-adv-x="607" 
d="M681 970l-186 -1239c-14 -94 -104 -163 -156 -247c-57 -93 -35 -257 -153 -257h-21c-61 0 -71 43 -71 98c0 24 2 51 3 77l38 5c-6 -26 -12 -52 -12 -72c0 -29 12 -49 51 -49h21c105 0 57 142 92 227c31 73 82 142 93 218l102 681c-23 -51 -53 -101 -75 -153
c-40 -97 15 -259 -105 -259h-21c-61 0 -71 43 -71 97c0 31 3 65 3 98c0 23 -1 45 -7 64c-24 77 -84 141 -84 223c0 8 1 17 2 26l5 37c14 95 105 164 157 249c57 94 34 259 153 259h21c45 0 58 -23 58 -56c0 -51 -32 -128 -32 -187c0 -5 0 -11 1 -16c6 -52 22 -102 30 -153
l49 329h115zM451 994h-21c-106 0 -57 -143 -92 -229c-31 -74 -82 -143 -94 -220l-5 -37c-2 -12 -3 -24 -3 -36c0 -63 23 -121 30 -184c1 -4 1 -9 1 -14c0 -52 -29 -121 -29 -166c0 -29 12 -49 52 -49h21c106 0 57 143 92 229c31 74 82 143 94 220c3 23 8 48 8 73
c0 63 -23 122 -30 184c-1 4 -1 9 -1 14c0 52 29 121 29 166c0 29 -12 49 -52 49z" />
    <glyph glyph-name="Tcedilla" unicode="&#x162;" horiz-adv-x="547" 
d="M142 -519c5 -15 10 -29 10 -47c0 -22 -8 -49 -8 -68c0 -15 5 -26 25 -26h11c49 0 30 66 49 105c16 34 45 65 50 101l2 17c1 5 1 9 1 13c0 31 -15 58 -20 88c-1 3 -1 7 -1 11c0 22 9 49 9 68c0 15 -5 26 -25 26h-98l79 231h-10l141 941h-188l9 59h491l-8 -59h-189
l-141 -941h-19l-63 -183h3c60 0 37 -84 59 -130c19 -40 63 -67 63 -113c0 -4 0 -7 -1 -11l-2 -17c-8 -52 -66 -81 -100 -124c-36 -46 -38 -130 -98 -130h-11c-60 0 -37 84 -59 130c-3 7 -7 13 -12 20z" />
    <glyph glyph-name="Tcaron" unicode="&#x164;" horiz-adv-x="547" 
d="M169 941l9 59h491l-8 -59h-189l-141 -941h-115l141 941h-188zM476 1275h90l-112 -200h-121l-51 200h89l39 -93z" />
    <glyph glyph-name="hungarumlaut" unicode="&#x2dd;" horiz-adv-x="250" 
d="M92 800l121 200h124l-153 -200h-92zM392 1000h123l-153 -200h-91z" />
    <glyph glyph-name="Lacute" unicode="&#x139;" horiz-adv-x="547" 
d="M83 0l150 1000h115l-141 -941h314l-9 -59h-429zM326 1275h126l-163 -200h-92z" />
    <glyph glyph-name="quotesinglbase" unicode="&#x201a;" horiz-adv-x="303" 
d="M156 125h123l-164 -325h-91z" />
    <glyph glyph-name="grave" unicode="`" horiz-adv-x="238" 
d="M150 1000h125l70 -200h-93z" />
    <glyph glyph-name="otilde" unicode="&#xf5;" horiz-adv-x="595" 
d="M340 1284h-92c5 33 46 45 70 69c24 25 33 71 68 71c47 0 49 -72 96 -72c21 0 12 27 19 44c6 14 17 28 19 43h92c-5 -33 -46 -44 -70 -68c-24 -25 -33 -72 -68 -72c-47 0 -49 73 -96 73c-21 0 -12 -28 -19 -45c-6 -14 -17 -28 -19 -43zM457 994h-21
c-116 0 -60 -156 -98 -249c-33 -81 -87 -157 -100 -240l-6 -40c-2 -14 -3 -27 -3 -40c0 -68 24 -133 31 -200v-13c0 -58 -33 -134 -33 -184c0 -31 13 -52 56 -52h22c116 0 60 156 98 249c33 81 86 157 99 240l6 40c2 14 3 27 3 40c0 68 -23 133 -30 200c0 4 -1 8 -1 13
c0 58 33 134 33 184c0 31 -13 52 -56 52zM466 1053c62 0 75 -42 75 -96c0 -38 -6 -83 -6 -124c0 -21 2 -41 7 -59c24 -83 83 -153 83 -240c0 -9 -1 -19 -2 -29l-6 -40c-15 -101 -108 -177 -162 -269c-60 -102 -31 -279 -159 -279h-22c-62 0 -75 42 -75 96c0 38 7 83 7 124
c0 21 -2 41 -7 59c-24 83 -84 153 -84 240c0 9 1 19 2 29l6 40c15 101 109 177 163 269c60 102 31 279 159 279h21z" />
    <glyph glyph-name="uhungarumlaut" unicode="&#x171;" 
d="M639 970l-145 -970h-115l28 188c-17 -32 -38 -63 -53 -95c-30 -65 2 -176 -79 -176h-16c-82 0 -46 113 -74 176c-24 54 -81 93 -81 154c0 5 0 10 1 15l106 708h115l-106 -708c-1 -6 -2 -13 -2 -19c0 -42 20 -80 27 -121c1 -4 1 -9 1 -14c0 -31 -12 -69 -12 -96
c0 -21 7 -36 34 -36h16c67 0 42 92 67 146c22 47 59 90 67 140l106 708h115zM247 1279l121 200h123l-153 -200h-91zM546 1479h124l-153 -200h-92z" />
    <glyph glyph-name="dcroat" unicode="&#x111;" horiz-adv-x="625" 
d="M536 0h-116l55 362c-24 -55 -56 -110 -78 -166c-42 -105 22 -279 -108 -279h-20c-61 0 -74 40 -74 93c0 40 7 88 7 131c0 20 -1 38 -6 55c-23 83 -81 153 -81 240c0 9 1 19 2 29l6 40c15 101 107 178 160 269c59 102 28 279 156 279h21c43 0 59 -18 62 -47h49l32 214h115
l-32 -214h78l-9 -59h-78zM512 608l50 339h-46c-11 -51 -33 -112 -33 -160c0 -5 1 -9 1 -13c5 -56 21 -111 28 -166zM506 947h-72l7 47h-11c-116 0 -58 -155 -95 -249c-32 -80 -85 -157 -97 -240l-6 -40c-2 -14 -3 -28 -3 -42c0 -67 22 -131 28 -198v-12
c0 -59 -35 -136 -35 -186c0 -31 14 -51 56 -51h20c116 0 59 155 96 249c32 80 84 157 96 240l6 40c2 14 3 28 3 42c0 67 -21 131 -27 198c0 4 -1 8 -1 12c0 60 37 140 35 190z" />
    <glyph glyph-name="K" unicode="K" horiz-adv-x="631" 
d="M233 1000h115l-60 -400l356 400h81l-297 -335l147 -665h-121l-123 557l-59 -67l-74 -490h-115c50 333 100 667 150 1000z" />
    <glyph glyph-name="zdotaccent" unicode="&#x17c;" horiz-adv-x="440" 
d="M166 911l9 59h381l-9 -58l-379 -853h251l-8 -59h-381l8 58l379 853h-251zM363 1429c30 0 30 -38 47 -58c16 -19 49 -24 49 -50c0 -34 -43 -41 -66 -61s-34 -58 -64 -58s-30 38 -47 58c-16 19 -50 25 -50 51c0 34 43 40 66 60s35 58 65 58z" />
    <glyph glyph-name="period" unicode="." horiz-adv-x="305" 
d="M186 221c29 0 30 -37 46 -56c16 -18 48 -25 48 -50c0 -34 -42 -39 -65 -59c-22 -19 -33 -56 -62 -56s-30 37 -46 56c-16 18 -49 25 -49 50c0 34 42 39 65 59c22 19 34 56 63 56z" />
    <glyph glyph-name="k" unicode="k" horiz-adv-x="518" 
d="M260 1220h115l-116 -779l323 529h69l-244 -399l99 -571h-118l-73 420l-79 -129l-44 -291h-115z" />
    <glyph glyph-name="W" unicode="W" horiz-adv-x="928" 
d="M162 1000h116l99 -777l135 318l-58 459h116l32 -250l106 250h66l-157 -369l52 -408l331 777h66l-427 -1000h-58l-54 422l-180 -422h-58z" />
    <glyph glyph-name="X" unicode="X" horiz-adv-x="589" 
d="M171 1000h120l111 -381l244 381h72l-293 -459l158 -541h-120l-121 413l-264 -413h-72l314 490z" />
    <glyph glyph-name="ogonek" unicode="&#x2db;" horiz-adv-x="238" 
d="M105 47l66 -47l-115 -219c-32 -72 -65 -143 -76 -218l-2 -17c-1 -5 -1 -9 -1 -13c0 -31 15 -58 20 -88c1 -3 1 -7 1 -11c0 -22 -9 -49 -9 -68c0 -15 5 -26 25 -26h12c49 0 30 66 49 105c16 34 44 65 49 101h92c-8 -52 -66 -81 -100 -124c-36 -46 -37 -130 -97 -130h-12
c-60 0 -37 84 -59 130c-19 40 -63 67 -63 113c0 4 0 7 1 11l2 17c14 92 63 177 102 265z" />
    <glyph glyph-name="agrave" unicode="&#xe0;" horiz-adv-x="559" 
d="M488 0h-115l26 174c-17 -30 -39 -60 -55 -91c-30 -61 -4 -166 -80 -166h-17c-78 0 -50 107 -79 166c-26 52 -85 87 -85 146c0 4 0 9 1 14l3 22c10 68 88 104 132 160c47 59 51 166 129 166h17c32 0 40 -18 40 -44c0 -30 -12 -70 -12 -103c0 -7 1 -13 2 -19
c6 -31 20 -61 28 -91l40 266c2 11 2 23 2 34c0 54 -18 105 -23 159v10c0 47 28 109 28 149c0 25 -11 42 -45 42h-17c-94 0 -47 -126 -77 -201c-21 -54 -55 -105 -71 -159l-88 49c31 47 77 90 107 139c52 84 32 231 138 231h17c55 0 64 -39 64 -89c0 -26 -2 -55 -2 -82
c0 -22 1 -42 7 -60c22 -69 77 -126 77 -200c0 -7 -1 -14 -2 -22zM257 1479h125l70 -200h-93zM198 227c0 -48 32 -82 32 -133c0 -26 -8 -57 -8 -81c0 -22 7 -37 34 -37h17c63 0 41 86 67 136c23 44 62 83 69 131l4 22c1 5 1 11 1 16c0 41 -23 76 -31 115c-1 6 -2 12 -2 18
c0 26 8 57 8 81c0 22 -6 37 -33 37h-17c-63 0 -42 -86 -68 -136c-23 -44 -62 -83 -69 -131l-3 -22c-1 -5 -1 -11 -1 -16z" />
    <glyph glyph-name="aogonek" unicode="&#x105;" horiz-adv-x="559" 
d="M172 683c31 47 77 90 107 139c52 84 32 231 138 231h17c55 0 64 -39 64 -89c0 -26 -2 -55 -2 -82c0 -22 1 -42 7 -60c22 -69 77 -126 77 -200c0 -7 -1 -14 -2 -22l-90 -598l3 -2l-115 -219c-32 -72 -65 -143 -76 -218l-3 -17c-1 -5 -1 -9 -1 -13c0 -31 15 -58 20 -88
c1 -3 1 -7 1 -11c0 -22 -8 -49 -8 -68c0 -15 5 -26 25 -26h11c49 0 30 66 49 105c16 34 45 65 50 101h92c-8 -52 -66 -81 -100 -124c-36 -46 -38 -130 -98 -130h-11c-60 0 -37 84 -59 130c-19 40 -64 67 -64 113c0 4 0 7 1 11l3 17c14 92 63 177 102 265l90 172h-27l26 174
c-17 -30 -39 -60 -55 -91c-30 -61 -4 -166 -80 -166h-17c-78 0 -50 107 -79 166c-26 52 -85 87 -85 146c0 4 0 9 1 14l3 22c10 68 88 104 132 160c47 59 51 166 129 166h17c32 0 40 -18 40 -44c0 -30 -12 -70 -12 -103c0 -7 1 -13 2 -19c6 -31 20 -61 28 -91l40 266
c2 11 2 23 2 34c0 54 -18 105 -23 159v10c0 47 28 109 28 149c0 25 -11 42 -45 42h-17c-94 0 -47 -126 -77 -201c-21 -54 -55 -105 -71 -159zM198 227c0 -48 32 -82 32 -133c0 -26 -8 -57 -8 -81c0 -22 7 -37 34 -37h17c63 0 41 86 67 136c23 44 62 83 69 131l4 22
c1 5 1 11 1 16c0 41 -23 76 -31 115c-1 6 -2 12 -2 18c0 26 8 57 8 81c0 22 -6 37 -33 37h-17c-63 0 -42 -86 -68 -136c-23 -44 -62 -83 -69 -131l-3 -22c-1 -5 -1 -11 -1 -16z" />
    <glyph glyph-name="quotedbl" unicode="&#x22;" horiz-adv-x="351" 
d="M186 1000h115l-49 -325h-115zM465 1000l-48 -325h-115l48 325h115z" />
    <glyph glyph-name="t" unicode="t" horiz-adv-x="321" 
d="M171 911l8 59h70l37 250h115l-37 -250h69l-9 -59h-69l-137 -911h-115l137 911h-69z" />
    <glyph glyph-name="question" unicode="?" horiz-adv-x="524" 
d="M248 371l24 159h65c56 0 39 77 63 121c21 39 58 73 64 116l3 20c1 5 1 9 1 13c0 37 -22 68 -30 103c-1 6 -2 11 -2 18c0 22 6 48 6 68s-7 35 -31 35h-15c-56 0 -39 -77 -63 -121c-21 -39 -58 -73 -64 -116l-101 37c26 41 79 68 113 108c45 53 51 151 123 151h16
c72 0 50 -98 79 -151c26 -47 84 -77 84 -133c0 -4 0 -8 -1 -12l-3 -20c-10 -64 -84 -94 -127 -145c-30 -36 -43 -91 -70 -124l-19 -127h-115zM283 221c29 0 30 -37 46 -56c16 -18 48 -25 48 -50c0 -34 -41 -39 -64 -59c-22 -19 -34 -56 -63 -56s-30 37 -46 56
c-16 18 -48 25 -48 50c0 34 41 39 64 59c22 19 34 56 63 56z" />
    <glyph glyph-name="Adieresis" unicode="&#xc4;" horiz-adv-x="660" 
d="M12 0l439 1000h58l140 -1000h-117l-45 325h-267l-143 -325h-65zM366 1225c30 0 30 -38 47 -58c13 -15 36 -22 45 -37c14 15 41 22 58 37c23 20 34 58 64 58s30 -38 47 -58c16 -19 50 -25 50 -51c0 -34 -44 -40 -67 -60s-34 -58 -64 -58s-30 38 -47 58
c-13 15 -37 22 -46 37c-14 -15 -40 -22 -57 -37c-23 -20 -34 -58 -64 -58s-30 38 -47 58c-16 19 -50 25 -50 51c0 34 43 40 66 60s35 58 65 58zM479 384l-56 403l-177 -403h233z" />
    <glyph glyph-name="five" unicode="5" horiz-adv-x="571" 
d="M189 246c0 -55 43 -91 43 -152c0 -24 -4 -49 -4 -71c0 -27 7 -47 38 -47h20c67 0 50 93 80 146c27 48 74 87 82 139l3 24c1 6 2 13 2 19c0 42 -21 80 -28 121c-1 5 -1 10 -1 15c0 30 13 68 13 95c0 21 -8 36 -35 36h-16c-40 0 -76 -21 -100 -50l-18 -122h-115l90 601h373
l-9 -59h-258l-52 -347c27 22 61 36 98 36h16c82 0 47 -113 75 -176c24 -54 82 -93 82 -154c0 -5 -1 -10 -2 -15l-3 -24c-11 -73 -96 -109 -145 -168c-51 -62 -57 -176 -140 -176h-21c-83 0 -55 114 -88 176c-22 41 -64 71 -84 110l105 58c-1 -5 -1 -10 -1 -15z" />
    <glyph glyph-name="Aring" unicode="&#xc5;" horiz-adv-x="660" 
d="M12 0l439 1000h58l140 -1000h-117l-45 325h-267l-143 -325h-65zM479 384l-56 403l-177 -403h233zM481 1255h-7c-18 0 -16 -25 -25 -39c-11 -16 -26 -24 -26 -48c0 -16 15 -27 15 -47v-8c0 -10 2 -18 12 -18h7c18 0 15 25 24 39c11 16 27 24 27 48c0 16 -16 27 -16 47v8
c0 10 -1 18 -11 18zM487 1295c31 0 30 -40 47 -60c16 -19 50 -26 50 -52v-5l-1 -6c-5 -30 -44 -37 -67 -57s-34 -60 -65 -60h-7c-31 0 -31 40 -48 60c-16 19 -50 26 -50 52v5l1 6c5 30 44 37 67 57s35 60 66 60h7z" />
    <glyph glyph-name="z" unicode="z" horiz-adv-x="440" 
d="M166 911l9 59h381l-9 -58l-379 -853h251l-8 -59h-381l8 58l379 853h-251z" />
    <glyph glyph-name="Ccedilla" unicode="&#xc7;" horiz-adv-x="803" 
d="M284 -519c5 -15 11 -29 11 -47c0 -22 -8 -49 -8 -68c0 -15 5 -26 25 -26h11c49 0 30 66 49 105c16 34 45 65 50 101l2 17c1 5 1 9 1 13c0 31 -15 58 -20 88c-1 3 -1 7 -1 11c0 22 9 49 9 68c0 15 -5 26 -25 26h-98l53 156c-80 36 -43 189 -84 279
c-41 88 -135 151 -135 251c0 8 0 16 1 24l7 42c17 115 143 180 216 275c78 102 77 287 211 287h40c134 0 78 -185 125 -287c34 -75 107 -130 129 -206l-109 -45c1 82 -58 145 -81 222c-6 18 -7 39 -7 61c0 34 4 70 4 102c0 53 -11 94 -70 94h-40c-118 0 -94 -164 -150 -257
c-51 -84 -139 -152 -153 -246l-7 -42c-1 -9 -1 -17 -1 -25c0 -81 58 -145 81 -221c6 -18 7 -39 7 -61c0 -34 -4 -70 -4 -102c0 -42 7 -77 39 -89l15 43h86l-16 -47c101 13 82 167 136 256c46 77 124 140 148 222l95 -45c-45 -76 -134 -131 -191 -206
c-77 -101 -77 -284 -208 -287l-35 -100h3c60 0 37 -84 59 -130c19 -40 63 -67 63 -113c0 -4 0 -7 -1 -11l-2 -17c-8 -52 -66 -81 -100 -124c-36 -46 -38 -130 -98 -130h-12c-60 0 -36 84 -58 130c-3 7 -8 13 -13 20z" />
    <glyph glyph-name="Idotaccent" unicode="&#x130;" horiz-adv-x="305" 
d="M95 0l150 1000h6c-20 8 -22 39 -37 56c-16 19 -50 25 -50 51c0 34 44 40 67 60s34 58 64 58s30 -38 47 -58c16 -19 50 -25 50 -51c0 -34 -44 -40 -67 -60c-20 -17 -31 -48 -53 -56h88l-150 -1000h-115z" />
    <glyph glyph-name="sterling" unicode="&#xa3;" horiz-adv-x="571" 
d="M155 571l9 59h51l29 190c9 57 75 84 113 129c40 47 48 134 111 134h12c63 0 44 -87 70 -134c20 -36 60 -60 72 -97l-112 -32c1 4 0 9 0 13c0 30 -15 57 -21 87c-1 4 -1 8 -1 12c0 21 8 46 8 65c0 16 -5 27 -25 27h-12c-48 0 -31 -66 -50 -104c-17 -34 -45 -64 -50 -100
l-29 -190h211l-9 -59h-210l-38 -252c-8 -56 -70 -88 -105 -135c-28 -37 -35 -97 -63 -125h394l-8 -59h-432c3 20 6 39 9 59c36 0 39 27 39 60v26c0 16 1 32 6 46c15 43 38 84 45 128l38 252h-52z" />
    <glyph glyph-name="eight" unicode="8" horiz-adv-x="595" 
d="M284 -24h20c58 0 48 81 77 127c26 42 72 75 79 122l3 21c1 4 1 8 1 12c0 41 -31 72 -43 110c-3 10 -4 22 -4 35c0 14 1 29 1 42c0 28 -5 50 -36 50h-20c-58 0 -49 -81 -78 -127c-26 -42 -71 -75 -78 -122l-4 -21c-1 -4 -1 -8 -1 -12c0 -41 32 -72 44 -110
c3 -10 4 -22 4 -35c0 -14 -1 -28 -1 -41c0 -28 5 -51 36 -51zM275 -83c-76 0 -57 102 -91 157c-30 50 -98 79 -98 139c0 4 0 8 1 12l3 21c10 69 94 98 142 151c42 47 58 127 107 151c-28 22 -25 80 -47 114c-25 39 -82 60 -82 108c0 3 0 7 1 10l3 19c9 61 79 90 119 139
c43 51 49 145 117 145h20c68 0 46 -94 73 -145c24 -45 79 -74 79 -127c0 -4 0 -8 -1 -12l-3 -19c-8 -56 -76 -76 -116 -118c-32 -34 -47 -92 -82 -114c42 -24 34 -104 62 -151c30 -50 97 -78 97 -138c0 -4 0 -9 -1 -13l-3 -21c-10 -69 -94 -98 -142 -151
c-50 -55 -62 -157 -138 -157h-20zM391 554c53 0 35 73 56 115c19 37 50 71 56 111l3 19c1 5 1 8 1 13c0 34 -17 64 -24 97c-1 4 -2 9 -2 14c0 23 8 50 8 71c0 18 -6 30 -28 30h-20c-53 0 -35 -73 -56 -115c-19 -37 -50 -70 -56 -110l-3 -19c-1 -5 -1 -9 -1 -14
c0 -34 17 -64 24 -97c1 -4 1 -8 1 -13c0 -23 -8 -50 -8 -71c0 -18 6 -31 28 -31h21z" />
    <glyph glyph-name="Ntilde" unicode="&#xd1;" horiz-adv-x="744" 
d="M83 0l150 1000h58l289 -767l115 767h115l-150 -1000h-58l-289 767l-115 -767h-115zM414 1080h-92c5 33 46 45 70 69c24 25 33 71 68 71c47 0 49 -73 96 -73c21 0 12 28 19 45c6 14 17 28 19 43h92c-5 -33 -46 -45 -70 -69c-24 -25 -33 -71 -68 -71c-47 0 -49 73 -96 73
c-21 0 -12 -28 -19 -45c-6 -14 -17 -28 -19 -43z" />
    <glyph glyph-name="Z" unicode="Z" horiz-adv-x="607" 
d="M171 941l9 59h547l-9 -58l-542 -883h410l-9 -59h-547l8 58l543 883h-410z" />
    <glyph glyph-name="T" unicode="T" horiz-adv-x="547" 
d="M169 941l9 59h491l-8 -59h-189l-141 -941h-115l141 941h-188z" />
    <glyph glyph-name="parenleft" unicode="(" horiz-adv-x="327" 
d="M163 -819c-27 21 -36 54 -36 96c0 99 53 242 53 354c0 17 0 33 -3 48c-25 138 -107 259 -107 401c0 17 0 34 3 52l12 77c25 165 165 298 239 453c76 160 12 420 136 498l24 -44c-80 -27 -89 -114 -89 -215c0 -29 1 -60 1 -90c0 -62 -3 -124 -22 -176
c-54 -144 -152 -278 -174 -426l-12 -77c-4 -24 -5 -47 -5 -70c0 -121 42 -235 51 -356c0 -5 1 -10 1 -16c0 -118 -85 -281 -85 -381c0 -40 14 -70 51 -84z" />
    <glyph glyph-name="Eacute" unicode="&#xc9;" horiz-adv-x="553" 
d="M83 0l150 1000h429l-9 -59h-314l-46 -311h256l-9 -59h-256l-77 -512h314l-9 -59h-429zM483 1275h125l-162 -200h-93z" />
    <glyph glyph-name="zcaron" unicode="&#x17e;" horiz-adv-x="440" 
d="M166 911l9 59h381l-9 -58l-379 -853h251l-8 -59h-381l8 58l379 853h-251zM422 1479h90l-111 -200h-122l-51 200h90l38 -92z" />
    <glyph glyph-name="IJ" unicode="&#x132;" horiz-adv-x="720" 
d="M335 182c0 -45 40 -73 40 -125c0 -13 -1 -26 -1 -38c0 -24 5 -43 31 -43h18c51 0 41 70 66 110c22 36 61 65 67 106l122 808h115l-122 -808c-9 -63 -86 -88 -130 -135c-46 -49 -59 -140 -127 -140h-18c-68 0 -54 91 -85 140c-21 33 -60 55 -79 86l-22 -143h-115l150 1000
h115l-121 -808h97c-1 -4 -1 -7 -1 -10z" />
    <glyph glyph-name="guilsinglleft" unicode="&#x2039;" horiz-adv-x="327" 
d="M249 485l25 -485h-123l-25 485l170 485h123z" />
    <glyph glyph-name="quotedblbase" unicode="&#x201e;" horiz-adv-x="547" 
d="M49 -200l132 325h116l-162 -325h-86zM383 125h122l-162 -325h-91z" />
    <glyph glyph-name="abreve" unicode="&#x103;" horiz-adv-x="559" 
d="M488 0h-115l26 174c-17 -30 -39 -60 -55 -91c-30 -61 -4 -166 -80 -166h-17c-78 0 -50 107 -79 166c-26 52 -85 87 -85 146c0 4 0 9 1 14l3 22c10 68 88 104 132 160c47 59 51 166 129 166h17c32 0 40 -18 40 -44c0 -30 -12 -70 -12 -103c0 -7 1 -13 2 -19
c6 -31 20 -61 28 -91l40 266c2 11 2 23 2 34c0 54 -18 105 -23 159v10c0 47 28 109 28 149c0 25 -11 42 -45 42h-17c-94 0 -47 -126 -77 -201c-21 -54 -55 -105 -71 -159l-88 49c31 47 77 90 107 139c52 84 32 231 138 231h17c55 0 64 -39 64 -89c0 -26 -2 -55 -2 -82
c0 -22 1 -42 7 -60c22 -69 77 -126 77 -200c0 -7 -1 -14 -2 -22zM240 1428c0 4 1 8 2 12h92l-1 -6c-3 -20 21 -25 31 -39c11 -14 9 -40 29 -40h12c20 0 27 26 42 40s39 19 42 39l1 6h92l-1 -6c-6 -41 -60 -41 -93 -64c-32 -23 -52 -67 -90 -67h-13c-38 0 -45 44 -70 67
c-24 22 -75 23 -75 58zM198 227c0 -48 32 -82 32 -133c0 -26 -8 -57 -8 -81c0 -22 7 -37 34 -37h17c63 0 41 86 67 136c23 44 62 83 69 131l4 22c1 5 1 11 1 16c0 41 -23 76 -31 115c-1 6 -2 12 -2 18c0 26 8 57 8 81c0 22 -6 37 -33 37h-17c-63 0 -42 -86 -68 -136
c-23 -44 -62 -83 -69 -131l-3 -22c-1 -5 -1 -11 -1 -16z" />
    <glyph glyph-name="G" unicode="G" horiz-adv-x="851" 
d="M779 0h-115l47 311c-35 -56 -94 -102 -132 -159c-58 -85 -46 -235 -155 -235h-40c-134 0 -78 185 -125 287c-41 88 -135 151 -135 251c0 8 0 16 1 24l7 42c17 115 143 180 216 275c78 102 77 287 211 287h40c134 0 78 -185 125 -287c28 -61 82 -109 113 -166h37zM726 630
c-26 64 -70 111 -70 198c0 34 4 70 4 102c0 53 -11 94 -70 94h-40c-118 0 -94 -164 -150 -257c-51 -84 -139 -152 -153 -246l-7 -42c-1 -9 -1 -17 -1 -25c0 -81 58 -145 81 -221c6 -18 7 -39 7 -61c0 -34 -4 -70 -4 -102c0 -53 11 -94 70 -94h40c95 0 89 131 142 205
c49 68 134 117 146 197l25 166l-2 -1c0 9 0 19 -1 28h-241l9 59h215z" />
    <glyph glyph-name="h" unicode="h" horiz-adv-x="541" 
d="M77 0l183 1220h115l-65 -439c17 32 38 63 53 96c30 65 -1 176 80 176h14c50 0 52 -42 52 -90v-17c0 -24 1 -49 8 -69c19 -53 66 -95 66 -153c0 -5 0 -10 -1 -16l-106 -708h-115l106 708c1 9 2 18 2 27c0 40 -13 78 -13 118c0 35 24 83 24 113c0 17 -8 28 -32 28h-13
c-67 0 -42 -92 -68 -146c-23 -47 -60 -90 -68 -140l-107 -708h-115z" />
    <glyph glyph-name="aacute" unicode="&#xe1;" horiz-adv-x="559" 
d="M488 0h-115l26 174c-17 -30 -39 -60 -55 -91c-30 -61 -4 -166 -80 -166h-17c-78 0 -50 107 -79 166c-26 52 -85 87 -85 146c0 4 0 9 1 14l3 22c10 68 88 104 132 160c47 59 51 166 129 166h17c32 0 40 -18 40 -44c0 -30 -12 -70 -12 -103c0 -7 1 -13 2 -19
c6 -31 20 -61 28 -91l40 266c2 11 2 23 2 34c0 54 -18 105 -23 159v10c0 47 28 109 28 149c0 25 -11 42 -45 42h-17c-94 0 -47 -126 -77 -201c-21 -54 -55 -105 -71 -159l-88 49c31 47 77 90 107 139c52 84 32 231 138 231h17c55 0 64 -39 64 -89c0 -26 -2 -55 -2 -82
c0 -22 1 -42 7 -60c22 -69 77 -126 77 -200c0 -7 -1 -14 -2 -22zM453 1479h126l-163 -200h-92zM198 227c0 -48 32 -82 32 -133c0 -26 -8 -57 -8 -81c0 -22 7 -37 34 -37h17c63 0 41 86 67 136c23 44 62 83 69 131l4 22c1 5 1 11 1 16c0 41 -23 76 -31 115c-1 6 -2 12 -2 18
c0 26 8 57 8 81c0 22 -6 37 -33 37h-17c-63 0 -42 -86 -68 -136c-23 -44 -62 -83 -69 -131l-3 -22c-1 -5 -1 -11 -1 -16z" />
    <glyph glyph-name="eacute" unicode="&#xe9;" horiz-adv-x="589" 
d="M625 514c-3 -20 -6 -38 -9 -58h-385c-1 -10 -2 -21 -2 -31c0 -68 24 -133 31 -200v-13c0 -58 -33 -134 -33 -184c0 -31 13 -52 56 -52h22c90 0 56 123 90 195c30 63 81 121 91 188h115c-13 -86 -102 -142 -154 -217c-56 -81 -47 -225 -151 -225h-22c-62 0 -75 42 -75 96
c0 38 7 83 7 124c0 21 -2 41 -7 59c-24 83 -84 153 -84 240c0 9 1 19 2 29l6 40c15 101 109 177 163 269c60 102 31 279 159 279h21c62 0 75 -42 75 -96c0 -38 -6 -83 -6 -124c0 -21 2 -41 7 -59c24 -83 83 -153 83 -240c0 -6 0 -14 -1 -20h1zM483 1479h125l-162 -200h-93z
M509 514c1 10 2 21 2 31c0 68 -23 133 -30 200c0 4 -1 8 -1 13c0 58 33 134 33 184c0 31 -13 52 -56 52h-21c-116 0 -60 -156 -98 -249c-31 -78 -83 -151 -98 -231h269z" />
    <glyph glyph-name="Scaron" unicode="&#x160;" horiz-adv-x="619" 
d="M548 809c-6 45 -45 72 -45 128c0 13 1 26 1 38c0 27 -4 49 -34 49h-20c-54 0 -47 -76 -74 -119c-25 -40 -68 -73 -75 -118l-3 -20c-3 -21 -5 -42 -5 -63c0 -60 16 -115 57 -153l142 -37c65 -60 113 -139 113 -231c0 -13 -1 -26 -3 -40l-3 -19c-11 -71 -96 -101 -147 -154
c-52 -54 -72 -153 -147 -153h-23c-76 0 -61 101 -97 156c-28 43 -86 69 -101 115l112 36c-1 -4 -1 -8 -1 -12c0 -42 35 -72 50 -110c17 -45 -12 -126 46 -126h23c57 0 54 79 85 124c29 42 78 75 85 124l3 19c3 21 4 41 4 61c0 59 -14 114 -55 151l-142 37
c-66 60 -114 141 -114 234c0 13 1 27 3 41l3 20c10 67 90 97 137 148c40 44 58 116 103 140h-60l-52 200h90l39 -93l66 93h90l-108 -193c59 -11 46 -100 77 -150c26 -42 80 -68 93 -113z" />
    <glyph glyph-name="greater" unicode="&#x3e;" horiz-adv-x="583" 
d="M524 485l-347 377l24 157l419 -455l-24 -158l-556 -455l24 157z" />
    <glyph glyph-name="oe" unicode="&#x153;" horiz-adv-x="940" 
d="M952 359c-13 -85 -100 -143 -150 -217c-54 -81 -42 -225 -146 -225h-20c-60 0 -73 39 -73 91c0 41 8 90 8 135c0 69 -26 111 -49 161c-27 -35 -55 -70 -76 -108c-58 -102 -27 -279 -155 -279h-20c-60 0 -73 39 -73 91c0 41 8 90 8 135c0 19 -2 37 -6 53
c-22 82 -79 153 -79 240c0 9 1 19 2 29l6 40c15 100 106 178 158 269c58 102 26 279 154 279h20c60 0 74 -39 74 -91c0 -41 -9 -90 -9 -135c0 -69 27 -111 50 -161c27 35 55 70 76 108c58 102 26 279 154 279h20c60 0 74 -39 74 -91c0 -41 -9 -90 -9 -135c0 -19 2 -37 6 -53
c22 -82 79 -153 79 -240c0 -7 0 -13 -1 -20h1c-1 -8 -3 -16 -4 -24l-5 -34h-365c-1 -12 -2 -24 -2 -35c0 -67 20 -130 26 -196v-11c0 -59 -36 -137 -36 -188c0 -30 13 -50 55 -50h20c90 0 52 122 85 195c28 63 77 122 87 188h115zM453 994h-20c-116 0 -58 -155 -94 -249
c-31 -80 -83 -157 -95 -240l-6 -40c-2 -15 -3 -30 -3 -44c0 -67 20 -130 26 -196v-11c0 -59 -36 -137 -36 -188c0 -30 13 -50 55 -50h20c116 0 58 155 94 249c31 80 82 157 94 240l6 40c2 15 3 30 3 44c0 67 -19 130 -25 196c0 3 -1 7 -1 11c0 59 37 138 37 188
c0 30 -13 50 -55 50zM860 514c1 12 2 24 2 35c0 67 -20 130 -26 196v11c0 59 37 138 37 188c0 30 -13 50 -55 50h-20c-116 0 -58 -155 -94 -249c-30 -77 -78 -152 -93 -231h249z" />
    <glyph glyph-name="Nacute" unicode="&#x143;" horiz-adv-x="744" 
d="M83 0l150 1000h58l289 -767l115 767h115l-150 -1000h-58l-289 767l-115 -767h-115zM557 1275h126l-163 -200h-92z" />
    <glyph glyph-name="lacute" unicode="&#x13a;" horiz-adv-x="258" 
d="M71 0l183 1220h115l-183 -1220h-115zM331 1525h125l-162 -200h-93z" />
    <glyph glyph-name="less" unicode="&#x3c;" horiz-adv-x="583" 
d="M205 485l347 -377l-24 -157l-420 455l24 158l556 455l-23 -157z" />
    <glyph glyph-name="asciicircum" unicode="^" horiz-adv-x="643" 
d="M447 837l-223 -437h-118l307 600h117l126 -600h-117z" />
    <glyph glyph-name="seven" unicode="7" 
d="M189 941l9 59h458l-9 -58l-396 -942h-126l396 941h-332z" />
    <glyph glyph-name="Ocircumflex" unicode="&#xd4;" horiz-adv-x="833" 
d="M590 1024h-40c-118 0 -94 -164 -150 -257c-51 -84 -139 -152 -153 -246l-7 -42c-1 -9 -1 -17 -1 -25c0 -81 58 -145 81 -221c6 -18 7 -39 7 -61c0 -34 -4 -70 -4 -102c0 -53 11 -94 70 -94h40c118 0 94 164 150 257c51 84 139 152 153 246l7 42c1 9 1 17 1 25
c0 81 -58 145 -81 221c-6 18 -7 39 -7 61c0 34 4 70 4 102c0 53 -11 94 -70 94zM640 1075c80 -36 43 -190 84 -279c41 -88 135 -151 135 -251c0 -8 0 -16 -1 -24l-7 -42c-17 -115 -143 -180 -216 -275c-78 -102 -77 -287 -211 -287h-40c-134 0 -78 185 -125 287
c-41 88 -135 151 -135 251c0 8 0 16 1 24l7 42c17 115 143 180 216 275c78 102 77 287 211 287h26l-35 85l-66 -93h-90l112 200h121l52 -200h-39z" />
    <glyph glyph-name="F" unicode="F" horiz-adv-x="536" 
d="M83 0l150 1000h429l-9 -59h-314l-46 -311h256l-9 -59h-256l-86 -571h-115z" />
    <glyph glyph-name="tilde" unicode="&#x2dc;" horiz-adv-x="250" 
d="M167 805h-92c5 33 46 45 70 69c24 25 33 71 68 71c47 0 49 -73 96 -73c21 0 12 28 19 45c6 14 17 28 19 43h92c-5 -33 -46 -45 -70 -69c-24 -25 -32 -71 -67 -71c-47 0 -50 73 -97 73c-21 0 -12 -28 -19 -45c-6 -14 -17 -28 -19 -43z" />
    <glyph glyph-name="iacute" unicode="&#xed;" horiz-adv-x="226" 
d="M56 0l145 970h115l-145 -970h-115zM299 1479h125l-162 -200h-93z" />
    <glyph glyph-name="Otilde" unicode="&#xd5;" horiz-adv-x="833" 
d="M459 1080h-92c5 33 46 45 70 69c24 25 33 71 68 71c47 0 49 -73 96 -73c21 0 12 28 19 45c6 14 17 28 19 43h92c-5 -33 -46 -45 -70 -69c-24 -25 -33 -71 -68 -71c-47 0 -49 73 -96 73c-21 0 -12 -28 -19 -45c-6 -14 -17 -28 -19 -43zM590 1024h-40
c-118 0 -94 -164 -150 -257c-51 -84 -139 -152 -153 -246l-7 -42c-1 -9 -1 -17 -1 -25c0 -81 58 -145 81 -221c6 -18 7 -39 7 -61c0 -34 -4 -70 -4 -102c0 -53 11 -94 70 -94h40c118 0 94 164 150 257c51 84 139 152 153 246l7 42c1 9 1 17 1 25c0 81 -58 145 -81 221
c-6 18 -7 39 -7 61c0 34 4 70 4 102c0 53 -11 94 -70 94zM599 1083c134 0 78 -185 125 -287c41 -88 135 -151 135 -251c0 -8 0 -16 -1 -24l-7 -42c-17 -115 -143 -180 -216 -275c-78 -102 -77 -287 -211 -287h-40c-134 0 -78 185 -125 287c-41 88 -135 151 -135 251
c0 8 0 16 1 24l7 42c17 115 143 180 216 275c78 102 77 287 211 287h40z" />
    <glyph glyph-name="parenright" unicode=")" horiz-adv-x="327" 
d="M-73 -819l-24 44c77 25 87 107 87 202c0 38 -1 77 -1 117c0 57 4 114 21 162c52 144 146 278 168 426l12 77c4 25 5 49 5 73c0 120 -38 233 -46 353v14c0 119 88 283 88 384c0 39 -13 69 -50 83l37 44c26 -21 36 -53 36 -94c0 -100 -57 -245 -57 -359c0 -15 2 -31 4 -45
c23 -138 102 -258 102 -399c0 -18 -1 -36 -4 -54l-11 -77c-25 -164 -162 -298 -235 -453c-75 -160 -8 -420 -132 -498z" />
    <glyph glyph-name="germandbls" unicode="&#xdf;" horiz-adv-x="589" 
d="M71 0c41 270 81 541 122 811c9 60 81 86 122 133c43 49 52 139 118 139h15c66 0 48 -90 76 -139c25 -44 83 -70 83 -122c0 -4 0 -7 -1 -11l-3 -18c-8 -57 -72 -88 -109 -134c-23 -29 -34 -72 -52 -103c22 -35 16 -99 38 -140c27 -51 89 -83 89 -143c0 -4 0 -9 -1 -14
l-3 -22c-10 -64 -80 -103 -120 -157c-43 -58 -40 -163 -116 -163h-19c-76 0 -44 105 -70 163c-8 19 -21 36 -34 52l-20 -132h-115zM278 219c0 -42 23 -78 23 -121c0 -29 -13 -66 -13 -91c0 -18 7 -31 31 -31h18c62 0 35 83 56 133c19 43 50 83 57 128l3 22c1 5 1 9 1 14
c0 41 -25 75 -35 114c-2 7 -2 15 -2 23c0 23 5 49 5 70c0 23 -6 40 -34 40h-60l9 60h60c50 0 28 67 45 108c15 35 40 68 46 105l3 18c1 4 1 7 1 11c0 33 -20 61 -28 93c-1 5 -2 12 -2 18c0 19 5 40 5 58c0 19 -6 33 -28 33h-15c-50 0 -35 -69 -57 -109
c-19 -36 -53 -65 -59 -104c-30 -202 -61 -403 -91 -605l63 31c-1 -6 -2 -12 -2 -18z" />
    <glyph glyph-name="a" unicode="a" horiz-adv-x="559" 
d="M488 0h-115l26 174c-17 -30 -39 -60 -55 -91c-30 -61 -4 -166 -80 -166h-17c-78 0 -50 107 -79 166c-26 52 -85 87 -85 146c0 4 0 9 1 14l3 22c10 68 88 104 132 160c47 59 51 166 129 166h17c32 0 40 -18 40 -44c0 -30 -12 -70 -12 -103c0 -7 1 -13 2 -19
c6 -31 20 -61 28 -91l40 266c2 11 2 23 2 34c0 54 -18 105 -23 159v10c0 47 28 109 28 149c0 25 -11 42 -45 42h-17c-94 0 -47 -126 -77 -201c-21 -54 -55 -105 -71 -159l-88 49c31 47 77 90 107 139c52 84 32 231 138 231h17c55 0 64 -39 64 -89c0 -26 -2 -55 -2 -82
c0 -22 1 -42 7 -60c22 -69 77 -126 77 -200c0 -7 -1 -14 -2 -22zM198 227c0 -48 32 -82 32 -133c0 -26 -8 -57 -8 -81c0 -22 7 -37 34 -37h17c63 0 41 86 67 136c23 44 62 83 69 131l4 22c1 5 1 11 1 16c0 41 -23 76 -31 115c-1 6 -2 12 -2 18c0 26 8 57 8 81
c0 22 -6 37 -33 37h-17c-63 0 -42 -86 -68 -136c-23 -44 -62 -83 -69 -131l-3 -22c-1 -5 -1 -11 -1 -16z" />
    <glyph glyph-name="scedilla" unicode="&#x15f;" horiz-adv-x="476" 
d="M247 -424c0 35 -21 63 -21 99c0 22 8 49 8 68c0 15 -5 26 -25 26h-98l61 179c-14 33 -8 87 -26 122c-20 41 -64 70 -76 112l113 34c-1 -5 -1 -10 -1 -15c0 -36 18 -68 24 -103c1 -4 2 -8 2 -13c0 -19 -6 -41 -9 -61h85c4 24 6 51 16 72c20 40 52 77 58 120l2 19
c3 23 6 46 6 69c0 52 -11 101 -38 142l-90 22c-44 66 -74 143 -74 226c0 17 1 34 4 51l3 19c9 59 72 95 110 144c40 52 43 145 110 145h10c69 0 41 -94 65 -147c18 -40 57 -70 67 -111l-114 -31c1 6 1 12 1 18c0 32 -11 63 -15 95c0 2 -1 5 -1 7c0 27 15 62 15 85
c0 15 -7 25 -27 25h-10c-53 0 -30 -72 -48 -115c-16 -39 -42 -75 -48 -115l-3 -19c-3 -22 -5 -45 -5 -66c0 -56 12 -108 41 -152l91 -22c42 -64 69 -138 69 -218c0 -17 -1 -34 -4 -52l-2 -19c-9 -63 -79 -98 -120 -149c-40 -49 -49 -134 -104 -148l-35 -102h2
c60 0 37 -84 59 -130c19 -40 64 -67 64 -113c0 -4 0 -7 -1 -11l-3 -17c-8 -52 -66 -81 -100 -124c-36 -46 -37 -130 -97 -130h-12c-60 0 -37 84 -59 130c-3 7 -7 13 -12 20l51 39c5 -15 11 -29 11 -47c0 -22 -9 -49 -9 -68c0 -15 5 -26 25 -26h12c49 0 30 66 49 105
c16 34 44 65 49 101l3 17c1 5 1 9 1 13zM275 -5c3 6 5 14 7 22z" />
    <glyph glyph-name="ugrave" unicode="&#xf9;" 
d="M639 970l-145 -970h-115l28 188c-17 -32 -38 -63 -53 -95c-30 -65 2 -176 -79 -176h-16c-82 0 -46 113 -74 176c-24 54 -81 93 -81 154c0 5 0 10 1 15l106 708h115l-106 -708c-1 -6 -2 -13 -2 -19c0 -42 20 -80 27 -121c1 -4 1 -9 1 -14c0 -31 -12 -69 -12 -96
c0 -21 7 -36 34 -36h16c67 0 42 92 67 146c22 47 59 90 67 140l106 708h115zM269 1479h125l70 -200h-93z" />
    <glyph glyph-name="uacute" unicode="&#xfa;" 
d="M639 970l-145 -970h-115l28 188c-17 -32 -38 -63 -53 -95c-30 -65 2 -176 -79 -176h-16c-82 0 -46 113 -74 176c-24 54 -81 93 -81 154c0 5 0 10 1 15l106 708h115l-106 -708c-1 -6 -2 -13 -2 -19c0 -42 20 -80 27 -121c1 -4 1 -9 1 -14c0 -31 -12 -69 -12 -96
c0 -21 7 -36 34 -36h16c67 0 42 92 67 146c22 47 59 90 67 140l106 708h115zM465 1479h125l-162 -200h-93z" />
    <glyph glyph-name="Ncaron" unicode="&#x147;" horiz-adv-x="744" 
d="M83 0l150 1000h58l289 -767l115 767h115l-150 -1000h-58l-289 767l-115 -767h-115zM574 1275h90l-111 -200h-122l-51 200h90l38 -93z" />
    <glyph glyph-name="one" unicode="1" horiz-adv-x="405" 
d="M175 0l120 805l-142 -104l22 149l207 150h58l-150 -1000h-115z" />
    <glyph glyph-name="f" unicode="f" horiz-adv-x="351" 
d="M194 911l9 59h55l31 208c5 33 48 39 74 61s39 64 72 64h2c33 0 33 -42 52 -64c9 -10 23 -16 35 -24l-94 -37c0 3 1 5 1 8c0 8 -2 17 -2 25s6 20 6 27c0 4 -2 6 -7 6h-2c-9 0 -10 -6 -10 -14v-9c0 -17 -10 -29 -12 -43l-31 -208h54l-9 -59h-54l-137 -911h-115l137 911h-55
z" />
    <glyph glyph-name="Ugrave" unicode="&#xd9;" horiz-adv-x="707" 
d="M777 1000l-114 -759c-11 -75 -104 -103 -157 -159c-55 -58 -72 -165 -152 -165h-26c-80 0 -65 107 -103 165c-34 53 -110 81 -110 146c0 4 0 8 1 13l114 759h115l-114 -759c-1 -4 -1 -8 -1 -12c0 -45 40 -77 56 -118c19 -49 -12 -135 51 -135h26c63 0 57 86 91 135
c31 45 86 78 94 130l114 759h115zM343 1275h125l70 -200h-93z" />
    <glyph glyph-name="macron" unicode="&#xaf;" horiz-adv-x="250" 
d="M114 849l8 52h276l-8 -52h-276z" />
    <glyph glyph-name="dash" horiz-adv-x="375" 
d="M116 456l9 58h279l-8 -58h-280z" />
    <glyph glyph-name="thorn" unicode="&#xfe;" horiz-adv-x="607" 
d="M-32 -690l253 1690h115l-58 -392c24 55 55 110 77 166c42 105 -22 279 108 279h21c61 0 74 -40 74 -93c0 -40 -8 -88 -8 -131c0 -20 1 -38 6 -55c23 -83 81 -153 81 -240c0 -9 -1 -19 -2 -29l-6 -40c-15 -101 -106 -178 -159 -269c-59 -102 -29 -279 -157 -279h-20
c-48 0 -63 23 -63 58c0 56 39 143 39 208c0 5 -1 9 -1 13c-5 56 -20 111 -27 166l-158 -1052h-115zM475 994h-21c-116 0 -58 -155 -95 -249c-32 -80 -85 -157 -97 -240l-6 -40c-2 -14 -3 -28 -3 -42c0 -67 22 -131 28 -198v-12c0 -59 -35 -136 -35 -186c0 -31 13 -51 55 -51
h21c116 0 59 155 96 249c32 80 84 157 96 240l6 40c2 14 3 28 3 42c0 67 -22 131 -28 198v12c0 59 35 136 35 186c0 31 -13 51 -55 51z" />
    <glyph glyph-name="space" unicode=" " horiz-adv-x="357" 
 />
    </font>
</defs>
</svg>
