<?xml version="1.0" standalone="no"?>
<!DOCTYPE svg PUBLIC "-//W3C//DTD SVG 1.1//EN" "http://www.w3.org/Graphics/SVG/1.1/DTD/svg11.dtd" >
<!--
Created with mf2outline.
-->
<svg xmlns="http://www.w3.org/2000/svg" xmlns:xlink="http://www.w3.org/1999/xlink" version="1.1">
<metadata>
Created by FontForge 20201107 at Wed Jan 24 02:41:23 2024
 By 
Copyright (c) 2024, Metaflop (http://www.metaflop.com), Simon Egli, Marco Mueller, Alexis Reigel, with Reserved Font Name Bespoke. Dual licensed under the GPL v3 (http://www.gnu.org/copyleft/gpl.html) and the OFL v1.1 (http://scripts.sil.org/OFL_web).
</metadata>
<defs>
<font id="Bespoke-IIMDc40HiI" horiz-adv-x="356" >
  <font-face 
    font-family="Bespoke"
    font-weight="500"
    font-stretch="normal"
    units-per-em="1000"
    panose-1="2 0 5 3 0 0 0 0 0 0"
    ascent="800"
    descent="-200"
    x-height="546"
    cap-height="840"
    bbox="-62 -396 694 1188"
    underline-thickness="50"
    underline-position="-100"
    unicode-range="U+0020-FB04"
  />
    <missing-glyph />
    <glyph glyph-name="fi" unicode="fi" horiz-adv-x="353" 
d="M244 824c-5 30 -13 83 -44 83h-16c-22 0 -30 -25 -36 -47c-12 -43 -12 -89 -12 -134v-180h172v-546h-59v493h-113v-493h-59v493h-56v53h56v180c0 59 3 119 28 173c15 33 43 61 79 61h16c60 0 89 -69 100 -125z" />
    <glyph glyph-name="guillemotright" unicode="&#x3e;&#x3e;" horiz-adv-x="352" 
d="M176 273l-82 -273h-60l82 273l-82 273h60zM319 273l-83 -273h-60l82 273l-82 273h60z" />
    <glyph glyph-name="guillemotleft" unicode="&#x3c;&#x3c;" horiz-adv-x="352" 
d="M94 273l82 -273h-60l-82 273l82 273h60zM236 273l83 -273h-61l-82 273l82 273h61z" />
    <glyph glyph-name="quotedblright" unicode="&#x2019;&#x2019;" horiz-adv-x="345" 
d="M55 567l54 273h59l-69 -273h-44zM239 840h59l-70 -273h-44z" />
    <glyph glyph-name="exclamdown" unicode="&#x21;&#x2018;" horiz-adv-x="223" 
d="M82 -380v747h59v-747h-59zM72 533c0 24 16 39 40 39s40 -15 40 -39s-16 -40 -40 -40s-40 16 -40 40z" />
    <glyph glyph-name="fl" unicode="fl" horiz-adv-x="371" 
d="M191 817c0 24 0 90 -24 90h-8c-11 0 -14 -12 -17 -23c-6 -22 -6 -45 -6 -67v-271h57v-53h-57v-493h-58v493h-57v53h57v271c0 62 15 143 81 143h8c65 0 82 -81 82 -143h-58zM268 0v950h58v-950h-58z" />
    <glyph glyph-name="questiondown" unicode="&#x3f;&#x2018;" horiz-adv-x="322" 
d="M155 367h58v-225h-40c-29 0 -41 -33 -49 -63c-16 -57 -17 -117 -17 -177s1 -120 17 -177c8 -30 20 -62 49 -62h21c21 0 33 16 41 37l48 -22c-18 -37 -49 -68 -89 -68h-21c-43 0 -75 35 -92 76c-29 68 -32 142 -32 216s3 149 32 217c15 35 40 65 74 73v175zM144 533
c0 24 16 39 40 39s40 -15 40 -39s-16 -40 -40 -40s-40 16 -40 40z" />
    <glyph glyph-name="endash" unicode="&#x2d;&#x2d;" horiz-adv-x="353" 
d="M22 246v54h308v-54h-308z" />
    <glyph glyph-name="emdash" unicode="&#x2013;&#x2d;" horiz-adv-x="615" 
d="M22 246v54h570v-54h-570z" />
    <glyph glyph-name="quotedblleft" unicode="&#x2018;&#x2018;" horiz-adv-x="345" 
d="M47 567l70 273h44l-55 -273h-59zM246 840h44l-54 -273h-59z" />
    <glyph glyph-name="ring" unicode="&#x2da;" horiz-adv-x="158" 
d="M110 756c0 23 -3 66 -27 66h-9c-24 0 -26 -43 -26 -66s2 -66 26 -66h9c24 0 27 43 27 66zM9 756c0 48 15 102 65 102h9c50 0 66 -54 66 -102s-16 -102 -66 -102h-9c-50 0 -65 54 -65 102z" />
    <glyph glyph-name="rcaron" unicode="&#x159;" horiz-adv-x="221" 
d="M45 0v546h58v-37c13 26 33 47 61 47h20c21 0 41 -8 57 -21l-33 -41c-7 6 -15 9 -24 9h-20c-23 0 -37 -23 -45 -46c-14 -42 -16 -87 -16 -131v-326h-58zM191 833h46l-60 -168h-63l-60 168h46l46 -99z" />
    <glyph glyph-name="Eng" unicode="&#x14a;" horiz-adv-x="469" 
d="M52 0v840h100l206 -782v782h58v-1008c0 -56 -3 -113 -28 -164c-16 -32 -44 -58 -79 -58h-16c-39 0 -69 31 -84 66l50 22c6 -18 16 -35 34 -35h16c21 0 30 23 36 44c12 40 13 83 13 125v168h-42l-205 782v-782h-59z" />
    <glyph glyph-name="Q" unicode="Q" horiz-adv-x="525" 
d="M286 797h-47c-53 0 -89 -47 -109 -98c-34 -88 -38 -184 -38 -279s4 -191 38 -279c20 -51 56 -98 109 -98h47c37 0 66 23 87 55l-82 141h64l47 -80c28 83 31 173 31 261c0 95 -4 191 -38 279c-20 51 -56 98 -109 98zM491 420c0 -109 -6 -223 -54 -321l57 -99h-64l-28 47
c-30 -34 -70 -57 -116 -57h-47c-68 0 -122 50 -152 112c-47 98 -53 209 -53 318s6 220 53 318c30 62 84 112 152 112h47c68 0 122 -50 152 -112c47 -98 53 -209 53 -318z" />
    <glyph glyph-name="Abreve" unicode="&#x102;" horiz-adv-x="416" 
d="M8 0l150 840h100l151 -840h-59l-45 251h-199l-44 -251h-54zM216 969c37 0 52 33 52 68h47c0 -31 -6 -61 -26 -85c-18 -21 -45 -31 -73 -31h-16c-28 0 -55 10 -73 31c-20 24 -25 54 -25 85h46c0 -35 15 -68 52 -68h16zM295 304l-89 499l-90 -499h179z" />
    <glyph glyph-name="i" unicode="i" horiz-adv-x="142" 
d="M42 0v546h58v-546h-58zM30 749c0 25 16 42 41 42s42 -17 42 -42s-17 -41 -42 -41s-41 16 -41 41z" />
    <glyph glyph-name="quoteright" unicode="&#x2019;" horiz-adv-x="191" 
d="M96 840h59l-70 -273h-44z" />
    <glyph glyph-name="Gbreve" unicode="&#x11e;" horiz-adv-x="536" 
d="M415 633c-16 72 -53 164 -129 164h-47c-53 0 -89 -47 -109 -98c-34 -88 -38 -184 -38 -279s4 -191 38 -279c20 -51 56 -98 109 -98h47c48 0 88 34 109 78c33 69 38 148 38 224v15h-171v53h229v-413h-58v121c-5 -13 -11 -26 -17 -39c-26 -52 -73 -92 -130 -92h-47
c-68 0 -122 50 -152 112c-47 98 -53 209 -53 318s6 220 53 318c30 62 84 112 152 112h47c68 0 122 -50 152 -112c14 -29 24 -60 32 -91zM271 969c37 0 51 33 51 68h47c0 -31 -6 -61 -26 -85c-18 -21 -44 -31 -72 -31h-17c-28 0 -54 10 -72 31c-20 24 -26 54 -26 85h47
c0 -35 14 -68 51 -68h17z" />
    <glyph glyph-name="Ohungarumlaut" unicode="&#x150;" horiz-adv-x="525" 
d="M172 903l59 168h63l-76 -168h-46zM344 1071h62l-75 -168h-47zM286 797h-47c-53 0 -89 -47 -109 -98c-34 -88 -38 -184 -38 -279s4 -191 38 -279c20 -51 56 -98 109 -98h47c53 0 89 47 109 98c34 88 38 184 38 279s-4 191 -38 279c-20 51 -56 98 -109 98zM286 850
c68 0 122 -50 152 -112c47 -98 53 -209 53 -318s-6 -220 -53 -318c-30 -62 -84 -112 -152 -112h-47c-68 0 -122 50 -152 112c-47 98 -53 209 -53 318s6 220 53 318c30 62 84 112 152 112h47z" />
    <glyph glyph-name="racute" unicode="&#x155;" horiz-adv-x="221" 
d="M45 0v546h58v-37c13 26 33 47 61 47h20c21 0 41 -8 57 -21l-33 -41c-7 6 -15 9 -24 9h-20c-23 0 -37 -23 -45 -46c-14 -42 -16 -87 -16 -131v-326h-58zM176 833h63l-81 -168h-47z" />
    <glyph glyph-name="udieresis" unicode="&#xfc;" 
d="M311 546v-546h-58v34c-14 -25 -38 -44 -66 -44h-21c-38 0 -72 21 -92 53c-27 45 -33 99 -33 151v352h59v-352c0 -38 2 -77 17 -112c9 -21 27 -39 49 -39h21c22 0 40 18 49 39c15 35 17 74 17 112v352h58zM67 749c0 25 17 42 42 42s41 -17 41 -42s-16 -41 -41 -41
s-42 16 -42 41zM202 749c0 25 17 42 42 42s41 -17 41 -42s-16 -41 -41 -41s-42 16 -42 41z" />
    <glyph glyph-name="slash" unicode="/" horiz-adv-x="281" 
d="M15 -42l192 924h59l-192 -924h-59z" />
    <glyph glyph-name="asciitilde" unicode="~" horiz-adv-x="367" 
d="M116 288c-28 0 -28 -70 -28 -97h-58c0 65 17 150 86 150c57 0 78 -83 135 -83c28 0 28 70 28 97h59c0 -65 -18 -150 -87 -150c-57 0 -78 83 -135 83z" />
    <glyph glyph-name="section" unicode="&#xa7;" 
d="M113 425c-56 31 -72 120 -72 193c0 59 5 120 33 172c19 35 53 60 92 60h21c66 0 102 -65 115 -125l-56 -12c-7 35 -22 84 -59 84h-21c-24 0 -40 -22 -49 -46c-16 -42 -17 -88 -17 -133s1 -90 17 -132c9 -24 25 -47 49 -47h21c38 0 73 -21 92 -54c27 -46 32 -101 32 -155
s-5 -109 -32 -155c-10 -17 -24 -30 -40 -40c16 -9 30 -23 40 -39c27 -46 32 -101 32 -154c0 -59 -4 -120 -32 -172c-19 -35 -53 -60 -92 -60h-21c-66 0 -103 64 -116 125l56 12c7 -35 23 -84 60 -84h21c24 0 40 22 49 46c16 42 17 88 17 133s-1 90 -17 132
c-9 24 -25 46 -49 46h-21c-38 0 -73 22 -92 55c-27 46 -33 101 -33 155c0 76 17 161 72 195zM253 230c0 56 -6 156 -66 156h-21c-60 0 -66 -100 -66 -156s6 -156 66 -156h21c60 0 66 100 66 156z" />
    <glyph glyph-name="guilsinglright" unicode="&#x203a;" horiz-adv-x="206" 
d="M172 273l-78 -273h-60l78 273l-78 273h60z" />
    <glyph glyph-name="Edieresis" unicode="&#xcb;" horiz-adv-x="349" 
d="M52 0v840h270v-53h-211v-374h182v-53h-182v-307h211v-53h-270zM79 988c0 25 16 41 41 41s41 -16 41 -41s-16 -42 -41 -42s-41 17 -41 42zM214 988c0 25 16 41 41 41s41 -16 41 -41s-16 -42 -41 -42s-41 17 -41 42z" />
    <glyph glyph-name="eng" unicode="&#x14b;" 
d="M185 503c-67 0 -82 -88 -82 -151v-352h-58v546h58v-42c17 30 47 52 82 52h21c34 0 65 -22 81 -53c25 -46 28 -99 28 -151v-520c0 -56 -3 -112 -24 -164c-13 -30 -36 -58 -68 -58h-11c-36 0 -59 33 -71 66l49 18c4 -16 9 -31 22 -31h11c16 0 21 24 25 44c8 41 9 83 9 125
v520c0 38 -1 76 -13 112c-7 20 -18 39 -38 39h-21z" />
    <glyph glyph-name="r" unicode="r" horiz-adv-x="221" 
d="M45 0v546h58v-37c13 26 33 47 61 47h20c21 0 41 -8 57 -21l-33 -41c-7 6 -15 9 -24 9h-20c-23 0 -37 -23 -45 -46c-14 -42 -16 -87 -16 -131v-326h-58z" />
    <glyph glyph-name="u" unicode="u" 
d="M311 546v-546h-58v34c-14 -25 -38 -44 -66 -44h-21c-38 0 -72 21 -92 53c-27 45 -33 99 -33 151v352h59v-352c0 -38 2 -77 17 -112c9 -21 27 -39 49 -39h21c22 0 40 18 49 39c15 35 17 74 17 112v352h58z" />
    <glyph glyph-name="Odieresis" unicode="&#xd6;" horiz-adv-x="525" 
d="M154 988c0 25 16 41 41 41s41 -16 41 -41s-16 -42 -41 -42s-41 17 -41 42zM289 988c0 25 16 41 41 41s41 -16 41 -41s-16 -42 -41 -42s-41 17 -41 42zM286 797h-47c-53 0 -89 -47 -109 -98c-34 -88 -38 -184 -38 -279s4 -191 38 -279c20 -51 56 -98 109 -98h47
c53 0 89 47 109 98c34 88 38 184 38 279s-4 191 -38 279c-20 51 -56 98 -109 98zM286 850c68 0 122 -50 152 -112c47 -98 53 -209 53 -318s-6 -220 -53 -318c-30 -62 -84 -112 -152 -112h-47c-68 0 -122 50 -152 112c-47 98 -53 209 -53 318s6 220 53 318
c30 62 84 112 152 112h47z" />
    <glyph glyph-name="Zdotaccent" unicode="&#x17b;" horiz-adv-x="383" 
d="M19 787v53h345v-100l-304 -687h304v-53h-345v100l304 687h-304zM150 988c0 25 16 41 41 41s42 -16 42 -41s-17 -42 -42 -42s-41 17 -41 42z" />
    <glyph glyph-name="Igrave" unicode="&#xcc;" horiz-adv-x="178" 
d="M60 0v840h58v-840h-58zM-5 1071h64l65 -168h-47z" />
    <glyph glyph-name="P" unicode="P" horiz-adv-x="383" 
d="M52 0v840h157c47 0 89 -29 112 -71c34 -61 39 -133 39 -203s-5 -142 -39 -203c-23 -42 -65 -71 -112 -71h-98v-292h-59zM111 787v-442h98c32 0 56 27 69 58c22 51 24 107 24 163s-2 113 -24 164c-13 31 -37 57 -69 57h-98z" />
    <glyph glyph-name="tcaron" unicode="&#x165;" horiz-adv-x="202" 
d="M6 493v53h66v404h58v-404h66v-53h-66v-493h-58v493h-66zM257 950h59l-70 -273h-44z" />
    <glyph glyph-name="Scedilla" unicode="&#x15e;" horiz-adv-x="390" 
d="M237 -244c0 34 -2 109 -38 109h-55l22 126c-40 4 -75 26 -97 60c-17 27 -28 57 -33 88l57 10c8 -48 33 -106 85 -106h30c80 0 90 107 90 182c0 58 -16 117 -59 155l-121 32c-57 51 -69 133 -69 210c0 59 2 120 32 172c21 35 59 56 100 56h24c41 0 77 -24 98 -59
c13 -23 22 -49 27 -75l-55 -23c-6 43 -24 104 -70 104h-24c-25 0 -46 -19 -56 -43c-18 -41 -18 -87 -18 -132c0 -58 15 -118 58 -157l121 -32c57 -51 70 -131 70 -208c0 -62 -3 -125 -36 -177c-24 -37 -67 -58 -111 -58l-15 -83h5c68 0 85 -86 85 -151s-17 -152 -85 -152
h-12c-34 0 -58 26 -70 56l41 17c5 -15 14 -31 29 -31h12c36 0 38 76 38 110z" />
    <glyph glyph-name="b" unicode="b" horiz-adv-x="386" 
d="M49 0v950h58v-467c15 38 42 73 82 73h27c46 0 83 -33 104 -74c32 -64 36 -137 36 -209s-4 -145 -36 -209c-21 -41 -58 -74 -104 -74h-27c-40 0 -67 35 -82 73v-63h-58zM216 503h-27c-31 0 -50 -30 -61 -60c-19 -54 -21 -112 -21 -170s2 -116 21 -170
c11 -30 30 -60 61 -60h27c31 0 50 30 61 60c19 54 21 112 21 170s-2 116 -21 170c-11 30 -30 60 -61 60z" />
    <glyph glyph-name="Yacute" unicode="&#xdd;" horiz-adv-x="390" 
d="M4 840h61l132 -444l133 444h56l-162 -542v-298h-58v298zM225 1071h64l-82 -168h-47z" />
    <glyph glyph-name="ecircumflex" unicode="&#xea;" horiz-adv-x="371" 
d="M201 43c42 0 66 44 76 82l55 -16c-6 -20 -13 -39 -24 -57c-23 -37 -63 -62 -107 -62h-27c-46 0 -86 32 -107 74c-33 64 -37 137 -37 209s4 145 37 209c21 42 61 74 107 74h27c46 0 86 -32 107 -74c33 -64 37 -137 37 -209v-27h-257c1 -49 5 -97 22 -143
c11 -31 33 -60 64 -60h27zM286 300c-1 49 -4 97 -21 143c-11 31 -33 60 -64 60h-27c-31 0 -53 -29 -64 -60c-17 -46 -21 -94 -22 -143h198zM188 764l-46 -99h-46l60 168h63l60 -168h-46z" />
    <glyph glyph-name="ocircumflex" unicode="&#xf4;" horiz-adv-x="375" 
d="M201 503h-27c-31 0 -53 -29 -64 -60c-20 -54 -22 -112 -22 -170s2 -116 22 -170c11 -31 33 -60 64 -60h27c31 0 53 29 64 60c20 54 22 112 22 170s-2 116 -22 170c-11 31 -33 60 -64 60zM201 556c46 0 86 -32 107 -74c33 -64 37 -137 37 -209s-4 -145 -37 -209
c-21 -42 -61 -74 -107 -74h-27c-46 0 -86 32 -107 74c-33 64 -37 137 -37 209s4 145 37 209c21 42 61 74 107 74h27zM188 764l-46 -99h-46l60 168h63l60 -168h-46z" />
    <glyph glyph-name="eogonek" unicode="&#x119;" horiz-adv-x="371" 
d="M201 43c42 0 66 44 76 82l55 -16c-6 -20 -13 -39 -24 -57c-23 -37 -63 -62 -107 -62h-2l-47 -115c-10 -40 -26 -78 -26 -119c0 -34 2 -110 38 -110h12c13 0 21 12 26 24l40 -20c-13 -26 -36 -46 -66 -46h-12c-68 0 -84 87 -84 152c0 26 -2 53 -2 79c0 28 2 56 9 83l35 86
c-76 43 -92 167 -92 269c0 72 4 145 37 209c21 42 61 74 107 74h27c46 0 86 -32 107 -74c33 -64 37 -137 37 -209v-27h-257c1 -49 5 -97 22 -143c11 -31 33 -60 64 -60h27zM286 300c-1 49 -4 97 -21 143c-11 31 -33 60 -64 60h-27c-31 0 -53 -29 -64 -60
c-17 -46 -21 -94 -22 -143h198z" />
    <glyph glyph-name="ffi" unicode="&#xfb03;" horiz-adv-x="521" 
d="M413 825c-4 29 -12 82 -41 82h-15c-21 0 -28 -25 -34 -47c-11 -44 -12 -89 -12 -134v-180h165v-546h-58v493h-107v-493h-59v493h-117v-493h-58v493h-56v53h56v235c0 45 3 91 22 132c12 26 34 47 62 47h8c25 0 44 -17 57 -39l-44 -25c-3 7 -7 11 -13 11h-8
c-12 0 -16 -18 -19 -33c-6 -31 -7 -62 -7 -93v-235h117v180c0 59 4 119 28 173c15 33 42 61 77 61h15c59 0 87 -70 97 -125z" />
    <glyph glyph-name="plus" unicode="+" horiz-adv-x="367" 
d="M155 546h58v-246h125v-54h-125v-246h-58v246h-125v54h125v246z" />
    <glyph glyph-name="Eogonek" unicode="&#x118;" horiz-adv-x="349" 
d="M282 -396c-68 0 -85 87 -85 152c0 26 -1 53 -1 79c0 28 2 56 9 83l34 82h-187v840h270v-53h-211v-374h182v-53h-182v-307h211v-53h-1l-52 -125c-10 -40 -25 -78 -25 -119c0 -34 2 -110 38 -110h12c13 0 21 12 26 24l40 -20c-13 -26 -36 -46 -66 -46h-12z" />
    <glyph glyph-name="R" unicode="R" horiz-adv-x="379" 
d="M52 0v840h157c47 0 88 -27 112 -67c34 -58 39 -126 39 -192s-5 -134 -39 -192c-13 -22 -31 -40 -52 -52l106 -337h-62l-100 321h-102v-321h-59zM111 787v-413h98c31 0 56 25 69 54c21 48 24 101 24 153s-3 104 -24 152c-13 29 -38 54 -69 54h-98z" />
    <glyph glyph-name="ecaron" unicode="&#x11b;" horiz-adv-x="371" 
d="M201 43c42 0 66 44 76 82l55 -16c-6 -20 -13 -39 -24 -57c-23 -37 -63 -62 -107 -62h-27c-46 0 -86 32 -107 74c-33 64 -37 137 -37 209s4 145 37 209c21 42 61 74 107 74h27c46 0 86 -32 107 -74c33 -64 37 -137 37 -209v-27h-257c1 -49 5 -97 22 -143
c11 -31 33 -60 64 -60h27zM233 833h46l-60 -168h-63l-60 168h46l46 -99zM286 300c-1 49 -4 97 -21 143c-11 31 -33 60 -64 60h-27c-31 0 -53 -29 -64 -60c-17 -46 -21 -94 -22 -143h198z" />
    <glyph glyph-name="V" unicode="V" horiz-adv-x="394" 
d="M6 840h59l135 -800l134 800h54l-141 -840h-100z" />
    <glyph glyph-name="AE" unicode="&#xc6;" horiz-adv-x="604" 
d="M8 0l256 840h314v-53h-226v-374h198v-53h-198v-307h226v-53h-285v263h-150l-80 -263h-55zM160 316h133v438z" />
    <glyph glyph-name="bracketright" unicode="]" horiz-adv-x="210" 
d="M22 882h120v-1262h-120v53h62v1156h-62v53z" />
    <glyph glyph-name="H" unicode="H" horiz-adv-x="450" 
d="M52 0v840h59v-427h228v427h59v-840h-59v360h-228v-360h-59z" />
    <glyph glyph-name="exclam" unicode="!" horiz-adv-x="223" 
d="M82 206v634h59v-634h-59zM72 40c0 24 16 40 40 40s40 -16 40 -40s-16 -40 -40 -40s-40 16 -40 40z" />
    <glyph glyph-name="Aogonek" unicode="&#x104;" horiz-adv-x="416" 
d="M366 -396c-68 0 -85 87 -85 152c0 26 -1 53 -1 79c0 28 2 56 9 83l51 124l2 -1l-37 210h-199l-44 -251h-54l150 840h100l151 -840h-4l-52 -125c-10 -40 -25 -78 -25 -119c0 -34 2 -110 38 -110h12c13 0 21 12 26 24l40 -20c-13 -26 -36 -46 -66 -46h-12zM295 304l-89 499
l-90 -499h179z" />
    <glyph glyph-name="L" unicode="L" horiz-adv-x="345" 
d="M52 0v840h59v-787h211v-53h-270z" />
    <glyph glyph-name="comma" unicode="," horiz-adv-x="176" 
d="M65 109h60l-70 -273h-44z" />
    <glyph glyph-name="ydieresis" unicode="&#xff;" horiz-adv-x="315" 
d="M4 546h60l96 -412l96 412h55l-216 -926h-55l90 385zM49 749c0 25 16 42 41 42s41 -17 41 -42s-16 -41 -41 -41s-41 16 -41 41zM184 749c0 25 16 42 41 42s41 -17 41 -42s-16 -41 -41 -41s-41 16 -41 41z" />
    <glyph glyph-name="O" unicode="O" horiz-adv-x="525" 
d="M286 797h-47c-53 0 -89 -47 -109 -98c-34 -88 -38 -184 -38 -279s4 -191 38 -279c20 -51 56 -98 109 -98h47c53 0 89 47 109 98c34 88 38 184 38 279s-4 191 -38 279c-20 51 -56 98 -109 98zM286 850c68 0 122 -50 152 -112c47 -98 53 -209 53 -318s-6 -220 -53 -318
c-30 -62 -84 -112 -152 -112h-47c-68 0 -122 50 -152 112c-47 98 -53 209 -53 318s6 220 53 318c30 62 84 112 152 112h47z" />
    <glyph glyph-name="bar" unicode="|" horiz-adv-x="150" 
d="M46 -42v924h58v-924h-58z" />
    <glyph glyph-name="underscore" unicode="_" horiz-adv-x="353" 
d="M22 -148v53h308v-53h-308z" />
    <glyph glyph-name="circumflex" unicode="&#x2c6;" horiz-adv-x="158" 
d="M79 771l-45 -99h-47l60 168h63l60 -168h-46z" />
    <glyph glyph-name="Ecircumflex" unicode="&#xca;" horiz-adv-x="349" 
d="M52 0v840h270v-53h-211v-374h182v-53h-182v-307h211v-53h-270zM188 1002l-46 -99h-46l60 168h63l60 -168h-46z" />
    <glyph glyph-name="asterisk" unicode="*" horiz-adv-x="349" 
d="M145 840h59v-170l77 65v-74l-72 -60l72 -181h-62l-45 112l-44 -112h-62l72 181l-72 60v74l77 -65v170z" />
    <glyph glyph-name="dcaron" unicode="&#x10f;" horiz-adv-x="386" 
d="M338 0h-59v63c-15 -38 -42 -73 -82 -73h-27c-46 0 -83 33 -104 74c-32 64 -36 137 -36 209s4 145 36 209c21 41 58 74 104 74h27c40 0 67 -35 82 -73v467h59v-950zM418 950h59l-70 -273h-44zM197 503h-27c-31 0 -49 -30 -60 -60c-19 -54 -22 -112 -22 -170
s3 -116 22 -170c11 -30 29 -60 60 -60h27c31 0 50 30 61 60c19 54 21 112 21 170s-2 116 -21 170c-11 30 -30 60 -61 60z" />
    <glyph glyph-name="Ecaron" unicode="&#x11a;" horiz-adv-x="349" 
d="M52 0v840h270v-53h-211v-374h182v-53h-182v-307h211v-53h-270zM233 1071h46l-60 -168h-63l-60 168h46l46 -99z" />
    <glyph glyph-name="Udieresis" unicode="&#xdc;" horiz-adv-x="446" 
d="M395 840v-582c0 -69 -5 -139 -40 -198c-24 -42 -68 -70 -116 -70h-32c-48 0 -92 28 -116 70c-35 59 -41 129 -41 198v582h59v-582c0 -54 2 -109 25 -159c14 -31 40 -56 73 -56h32c33 0 58 25 72 56c23 50 26 105 26 159v582h58zM114 988c0 25 16 41 41 41s42 -16 42 -41
s-17 -42 -42 -42s-41 17 -41 42zM249 988c0 25 16 41 41 41s42 -16 42 -41s-17 -42 -42 -42s-41 17 -41 42z" />
    <glyph glyph-name="Zcaron" unicode="&#x17d;" horiz-adv-x="383" 
d="M19 787v53h345v-100l-304 -687h304v-53h-345v100l304 687h-304zM236 1071h47l-60 -168h-63l-60 168h46l45 -99z" />
    <glyph glyph-name="acute" unicode="&#xb4;" horiz-adv-x="150" 
d="M79 840h63l-81 -168h-47z" />
    <glyph glyph-name="uni1E9E" unicode="&#x1e9e;" horiz-adv-x="728" 
d="M274 705c-7 40 -27 92 -69 92h-24c-25 0 -46 -19 -56 -43c-18 -41 -18 -87 -18 -132c0 -58 16 -118 59 -157l120 -32c57 -51 70 -131 70 -208c0 -62 -3 -125 -36 -177c-24 -38 -67 -58 -112 -58h-30c-45 0 -85 23 -109 61c-17 27 -28 57 -33 88l57 10
c8 -48 33 -106 85 -106h30c80 0 90 107 90 182c0 58 -16 116 -59 155l-121 32c-57 51 -69 133 -69 210c0 60 2 120 32 172c21 35 59 56 100 56h24c41 0 77 -24 98 -59c13 -23 22 -49 27 -75zM611 705c-7 40 -26 92 -68 92h-25c-25 0 -46 -19 -56 -43
c-18 -41 -18 -87 -18 -132c0 -58 16 -118 59 -157l121 -32c57 -51 70 -131 70 -208c0 -62 -4 -125 -37 -177c-24 -38 -67 -58 -112 -58h-29c-45 0 -86 23 -110 61c-17 27 -27 57 -32 88l57 10c8 -48 33 -106 85 -106h29c80 0 90 107 90 182c0 58 -16 116 -59 155l-121 32
c-57 51 -69 133 -69 210c0 60 2 120 32 172c21 35 59 56 100 56h25c41 0 77 -24 98 -59c13 -23 22 -49 27 -75z" />
    <glyph glyph-name="Uhungarumlaut" unicode="&#x170;" horiz-adv-x="446" 
d="M395 840v-582c0 -69 -5 -139 -40 -198c-24 -42 -68 -70 -116 -70h-32c-48 0 -92 28 -116 70c-35 59 -41 129 -41 198v582h59v-582c0 -54 2 -109 25 -159c14 -31 40 -56 73 -56h32c33 0 58 25 72 56c23 50 26 105 26 159v582h58zM132 903l59 168h63l-75 -168h-47z
M304 1071h63l-76 -168h-47z" />
    <glyph glyph-name="Atilde" unicode="&#xc3;" horiz-adv-x="416" 
d="M8 0l150 840h100l151 -840h-59l-45 251h-199l-44 -251h-54zM174 978c-24 0 -26 -48 -26 -71h-46c0 54 16 118 72 118c34 0 34 -58 68 -58c24 0 26 47 26 70h47c0 -54 -17 -117 -73 -117c-34 0 -34 58 -68 58zM295 304l-89 499l-90 -499h179z" />
    <glyph glyph-name="Dcaron" unicode="&#x10e;" horiz-adv-x="472" 
d="M52 0v840h176c67 0 123 -48 153 -109c47 -96 54 -204 54 -311s-7 -215 -54 -311c-30 -61 -86 -109 -153 -109h-176zM248 1071h46l-60 -168h-63l-60 168h46l45 -99zM111 53h117c52 0 90 45 110 95c35 86 39 180 39 272s-4 186 -39 272c-20 50 -58 95 -110 95h-117v-734z
" />
    <glyph glyph-name="equal" unicode="=" horiz-adv-x="367" 
d="M30 356v53h308v-53h-308zM30 137v53h308v-53h-308z" />
    <glyph glyph-name="C" unicode="C" horiz-adv-x="506" 
d="M286 43c83 0 118 107 133 185l56 -12c-21 -104 -77 -226 -189 -226h-47c-68 0 -122 50 -152 112c-47 98 -53 209 -53 318s6 220 53 318c30 62 84 112 152 112h47c68 0 122 -50 152 -112c18 -37 29 -75 37 -114l-56 -12c-15 78 -50 185 -133 185h-47
c-53 0 -89 -47 -109 -98c-34 -88 -38 -184 -38 -279s4 -191 38 -279c20 -51 56 -98 109 -98h47z" />
    <glyph glyph-name="Eth" unicode="&#xd0;" horiz-adv-x="503" 
d="M258 840c67 0 123 -48 153 -109c47 -96 54 -204 54 -311s-7 -215 -54 -311c-30 -61 -86 -109 -153 -109h-176v394h-56v52h56v394h176zM141 53h117c52 0 90 45 110 95c35 86 39 180 39 272s-4 186 -39 272c-20 50 -58 95 -110 95h-117v-341h133v-52h-133v-341z" />
    <glyph glyph-name="edieresis" unicode="&#xeb;" horiz-adv-x="371" 
d="M201 43c42 0 66 44 76 82l55 -16c-6 -20 -13 -39 -24 -57c-23 -37 -63 -62 -107 -62h-27c-46 0 -86 32 -107 74c-33 64 -37 137 -37 209s4 145 37 209c21 42 61 74 107 74h27c46 0 86 -32 107 -74c33 -64 37 -137 37 -209v-27h-257c1 -49 5 -97 22 -143
c11 -31 33 -60 64 -60h27zM79 749c0 25 16 42 41 42s41 -17 41 -42s-16 -41 -41 -41s-41 16 -41 41zM214 749c0 25 16 42 41 42s41 -17 41 -42s-16 -41 -41 -41s-41 16 -41 41zM286 300c-1 49 -4 97 -21 143c-11 31 -33 60 -64 60h-27c-31 0 -53 -29 -64 -60
c-17 -46 -21 -94 -22 -143h198z" />
    <glyph glyph-name="ccaron" unicode="&#x10d;" horiz-adv-x="359" 
d="M201 43c50 0 70 69 78 116l57 -10c-14 -74 -55 -159 -135 -159h-27c-46 0 -86 32 -107 74c-33 64 -37 137 -37 209s4 145 37 209c21 42 61 74 107 74h27c80 0 121 -85 135 -159l-57 -10c-8 47 -28 116 -78 116h-27c-31 0 -53 -29 -64 -60c-20 -54 -22 -112 -22 -170
s2 -116 22 -170c11 -31 33 -60 64 -60h27zM233 833h46l-60 -168h-63l-60 168h46l46 -99z" />
    <glyph glyph-name="cacute" unicode="&#x107;" horiz-adv-x="359" 
d="M201 43c50 0 70 69 78 116l57 -10c-14 -74 -55 -159 -135 -159h-27c-46 0 -86 32 -107 74c-33 64 -37 137 -37 209s4 145 37 209c21 42 61 74 107 74h27c80 0 121 -85 135 -159l-57 -10c-8 47 -28 116 -78 116h-27c-31 0 -53 -29 -64 -60c-20 -54 -22 -112 -22 -170
s2 -116 22 -170c11 -31 33 -60 64 -60h27zM218 833h63l-81 -168h-47z" />
    <glyph glyph-name="odieresis" unicode="&#xf6;" horiz-adv-x="375" 
d="M79 749c0 25 16 42 41 42s41 -17 41 -42s-16 -41 -41 -41s-41 16 -41 41zM214 749c0 25 16 42 41 42s41 -17 41 -42s-16 -41 -41 -41s-41 16 -41 41zM201 503h-27c-31 0 -53 -29 -64 -60c-20 -54 -22 -112 -22 -170s2 -116 22 -170c11 -31 33 -60 64 -60h27
c31 0 53 29 64 60c20 54 22 112 22 170s-2 116 -22 170c-11 31 -33 60 -64 60zM201 556c46 0 86 -32 107 -74c33 -64 37 -137 37 -209s-4 -145 -37 -209c-21 -42 -61 -74 -107 -74h-27c-46 0 -86 32 -107 74c-33 64 -37 137 -37 209s4 145 37 209c21 42 61 74 107 74h27z
" />
    <glyph glyph-name="four" unicode="4" horiz-adv-x="371" 
d="M286 226v-226h-58v226h-203v100l161 514h100v-562h60v-52h-60zM228 278v505l-158 -505h158z" />
    <glyph glyph-name="adieresis" unicode="&#xe4;" horiz-adv-x="353" 
d="M157 503c-32 0 -49 -34 -58 -64l-54 17c5 15 10 29 18 43c20 34 55 57 94 57h23c39 0 74 -23 94 -57c28 -49 34 -107 34 -163v-336h-59v29c-16 -23 -41 -39 -69 -39h-23c-37 0 -72 15 -94 45c-27 36 -33 83 -33 128s6 92 33 128c22 30 57 45 94 45h23c28 0 53 -17 69 -40
v40c0 42 -2 84 -18 123c-10 23 -27 44 -51 44h-23zM60 749c0 25 16 42 41 42s42 -17 42 -42s-17 -41 -42 -41s-41 16 -41 41zM195 749c0 25 16 42 41 42s42 -17 42 -42s-17 -41 -42 -41s-41 16 -41 41zM249 163c0 52 -14 120 -69 120h-23c-55 0 -69 -68 -69 -120
s14 -120 69 -120h23c55 0 69 68 69 120z" />
    <glyph glyph-name="Ydieresis" unicode="&#x178;" horiz-adv-x="390" 
d="M4 840h61l132 -444l133 444h56l-162 -542v-298h-58v298zM86 988c0 25 17 41 42 41s41 -16 41 -41s-16 -42 -41 -42s-42 17 -42 42zM221 988c0 25 16 41 41 41s42 -16 42 -41s-17 -42 -42 -42s-41 17 -41 42z" />
    <glyph glyph-name="Thorn" unicode="&#xde;" horiz-adv-x="390" 
d="M52 0v840h59v-142h98c46 0 88 -25 112 -64c33 -54 39 -119 39 -182s-6 -129 -39 -183c-24 -39 -66 -64 -112 -64h-98v-205h-59zM111 646v-388h98c31 0 56 23 69 51c21 44 24 94 24 143s-3 99 -24 143c-13 28 -38 51 -69 51h-98z" />
    <glyph glyph-name="cedilla" unicode="&#xb8;" horiz-adv-x="150" 
d="M119 -244c0 34 -2 109 -38 109h-55l27 156h44l-21 -114h5c68 0 85 -86 85 -151s-17 -152 -85 -152h-12c-34 0 -58 26 -70 56l41 17c5 -15 14 -31 29 -31h12c36 0 38 76 38 110z" />
    <glyph glyph-name="p" unicode="p" horiz-adv-x="382" 
d="M45 -380v926h58v-63c15 38 42 73 82 73h27c46 0 83 -33 104 -74c32 -64 36 -137 36 -209s-4 -145 -36 -209c-21 -41 -58 -74 -104 -74h-27c-40 0 -67 35 -82 73v-443h-58zM212 503h-27c-31 0 -49 -30 -60 -60c-19 -54 -22 -112 -22 -170s3 -116 22 -170
c11 -30 29 -60 60 -60h27c31 0 50 30 61 60c19 54 21 112 21 170s-2 116 -21 170c-11 30 -30 60 -61 60z" />
    <glyph glyph-name="semicolon" unicode=";" horiz-adv-x="180" 
d="M61 109h60l-70 -273h-44zM51 506c0 24 16 40 40 40s40 -16 40 -40s-16 -40 -40 -40s-40 16 -40 40z" />
    <glyph glyph-name="Idieresis" unicode="&#xcf;" horiz-adv-x="178" 
d="M60 0v840h58v-840h-58zM-20 988c0 25 17 41 42 41s41 -16 41 -41s-16 -42 -41 -42s-42 17 -42 42zM115 988c0 25 17 41 42 41s41 -16 41 -41s-16 -42 -41 -42s-42 17 -42 42z" />
    <glyph glyph-name="U" unicode="U" horiz-adv-x="446" 
d="M395 840v-582c0 -69 -5 -139 -40 -198c-24 -42 -68 -70 -116 -70h-32c-48 0 -92 28 -116 70c-35 59 -41 129 -41 198v582h59v-582c0 -54 2 -109 25 -159c14 -31 40 -56 73 -56h32c33 0 58 25 72 56c23 50 26 105 26 159v582h58z" />
    <glyph glyph-name="Agrave" unicode="&#xc0;" horiz-adv-x="416" 
d="M8 0l150 840h100l151 -840h-59l-45 251h-199l-44 -251h-54zM114 1071h64l65 -168h-47zM295 304l-89 499l-90 -499h179z" />
    <glyph glyph-name="dollar" unicode="$" horiz-adv-x="390" 
d="M274 705c-7 40 -27 92 -69 92h-24c-25 0 -46 -19 -56 -43c-18 -41 -18 -87 -18 -132c0 -58 15 -118 58 -157l121 -32c57 -51 70 -131 70 -208c0 -62 -3 -125 -36 -177c-21 -34 -58 -53 -98 -57v-159h-58v159c-39 4 -74 26 -95 60c-17 27 -28 57 -33 88l57 10
c8 -48 33 -106 85 -106h30c80 0 90 107 90 182c0 58 -16 117 -59 155l-121 32c-57 51 -69 133 -69 210c0 59 2 120 32 172c18 30 49 50 83 55v159h58v-159c62 -10 96 -70 108 -133z" />
    <glyph glyph-name="ncaron" unicode="&#x148;" 
d="M185 503c-67 0 -82 -88 -82 -151v-352h-58v546h58v-42c17 30 47 52 82 52h21c34 0 65 -22 81 -53c25 -46 28 -99 28 -151v-352h-58v352c0 38 -1 76 -13 112c-7 20 -18 39 -38 39h-21zM225 833h47l-61 -168h-62l-61 168h47l45 -99z" />
    <glyph glyph-name="Ograve" unicode="&#xd2;" horiz-adv-x="525" 
d="M169 1071h63l65 -168h-47zM286 797h-47c-53 0 -89 -47 -109 -98c-34 -88 -38 -184 -38 -279s4 -191 38 -279c20 -51 56 -98 109 -98h47c53 0 89 47 109 98c34 88 38 184 38 279s-4 191 -38 279c-20 51 -56 98 -109 98zM286 850c68 0 122 -50 152 -112
c47 -98 53 -209 53 -318s-6 -220 -53 -318c-30 -62 -84 -112 -152 -112h-47c-68 0 -122 50 -152 112c-47 98 -53 209 -53 318s6 220 53 318c30 62 84 112 152 112h47z" />
    <glyph glyph-name="Icircumflex" unicode="&#xce;" horiz-adv-x="178" 
d="M60 0v840h58v-840h-58zM89 1002l-45 -99h-47l61 168h63l60 -168h-47z" />
    <glyph glyph-name="e" unicode="e" horiz-adv-x="371" 
d="M201 43c42 0 66 44 76 82l55 -16c-6 -20 -13 -39 -24 -57c-23 -37 -63 -62 -107 -62h-27c-46 0 -86 32 -107 74c-33 64 -37 137 -37 209s4 145 37 209c21 42 61 74 107 74h27c46 0 86 -32 107 -74c33 -64 37 -137 37 -209v-27h-257c1 -49 5 -97 22 -143
c11 -31 33 -60 64 -60h27zM286 300c-1 49 -4 97 -21 143c-11 31 -33 60 -64 60h-27c-31 0 -53 -29 -64 -60c-17 -46 -21 -94 -22 -143h198z" />
    <glyph glyph-name="breve" unicode="&#x2d8;" horiz-adv-x="158" 
d="M87 738c37 0 51 33 51 68h47c0 -31 -5 -61 -25 -85c-18 -21 -45 -31 -73 -31h-17c-28 0 -54 10 -72 31c-20 24 -26 54 -26 85h47c0 -35 14 -68 51 -68h17z" />
    <glyph glyph-name="ampersand" unicode="&#x26;" horiz-adv-x="465" 
d="M118 622c0 -76 22 -176 102 -176h215v-52h-81v-394h-159c-41 0 -79 23 -100 58c-30 49 -35 108 -35 165s5 116 35 165c12 20 30 37 50 47c-17 9 -32 20 -44 35c-33 42 -41 98 -41 152c0 59 5 119 35 169c21 36 59 59 100 59h25c41 0 78 -23 99 -59c12 -20 20 -42 25 -64
l-56 -13c-8 37 -28 83 -68 83h-25c-26 0 -46 -21 -57 -46c-18 -41 -20 -85 -20 -129zM296 394h-101c-26 0 -46 -21 -57 -45c-18 -39 -20 -83 -20 -126s2 -87 20 -126c11 -24 31 -44 57 -44h101v341z" />
    <glyph glyph-name="d" unicode="d" horiz-adv-x="386" 
d="M338 0h-59v63c-15 -38 -42 -73 -82 -73h-27c-46 0 -83 33 -104 74c-32 64 -36 137 -36 209s4 145 36 209c21 41 58 74 104 74h27c40 0 67 -35 82 -73v467h59v-950zM197 503h-27c-31 0 -49 -30 -60 -60c-19 -54 -22 -112 -22 -170s3 -116 22 -170c11 -30 29 -60 60 -60h27
c31 0 50 30 61 60c19 54 21 112 21 170s-2 116 -21 170c-11 30 -30 60 -61 60z" />
    <glyph glyph-name="dotlessi" unicode="&#x131;" horiz-adv-x="142" 
d="M42 0v546h58v-546h-58z" />
    <glyph glyph-name="Oslash" unicode="&#xd8;" horiz-adv-x="525" 
d="M286 797h-47c-53 0 -89 -47 -109 -98c-34 -88 -38 -184 -38 -279c0 -78 3 -156 23 -231l270 533c-21 41 -54 75 -99 75zM286 850c52 0 97 -29 128 -71l31 61h61l-60 -119c40 -94 45 -198 45 -301c0 -109 -6 -220 -53 -318c-30 -62 -84 -112 -152 -112h-47
c-52 0 -97 29 -128 71l-31 -61h-61l60 119c-40 94 -45 198 -45 301c0 109 6 220 53 318c30 62 84 112 152 112h47zM140 118c21 -41 54 -75 99 -75h47c53 0 89 47 109 98c34 88 38 184 38 279c0 78 -3 156 -23 231z" />
    <glyph glyph-name="Acircumflex" unicode="&#xc2;" horiz-adv-x="416" 
d="M8 0l150 840h100l151 -840h-59l-45 251h-199l-44 -251h-54zM295 304l-89 499l-90 -499h179zM208 1002l-45 -99h-47l61 168h63l60 -168h-47z" />
    <glyph glyph-name="w" unicode="w" horiz-adv-x="484" 
d="M4 546h59l114 -514l38 168l-77 346h60l46 -211l47 211h55l-74 -334l40 -180l113 514h55l-121 -546h-100l-17 77l-17 -77h-100z" />
    <glyph glyph-name="braceright" unicode="}" horiz-adv-x="229" 
d="M57 887c57 -59 88 -162 88 -257v-189c0 -40 1 -79 13 -117c6 -20 17 -42 37 -42v-58c-20 0 -31 -22 -37 -42c-12 -38 -13 -77 -13 -117v-189c0 -95 -31 -198 -88 -257l-38 36c46 50 68 141 68 221v189c0 66 8 145 47 188c-39 42 -47 122 -47 188v189
c0 80 -22 171 -68 221z" />
    <glyph glyph-name="nacute" unicode="&#x144;" 
d="M185 503c-67 0 -82 -88 -82 -151v-352h-58v546h58v-42c17 30 47 52 82 52h21c34 0 65 -22 81 -53c25 -46 28 -99 28 -151v-352h-58v352c0 38 -1 76 -13 112c-7 20 -18 39 -38 39h-21zM210 833h64l-82 -168h-47z" />
    <glyph glyph-name="lslash" unicode="&#x142;" horiz-adv-x="172" 
d="M57 521v429h58v-348l40 54v-77l-40 -55v-524h-58v443l-39 -54v77z" />
    <glyph glyph-name="Ccaron" unicode="&#x10c;" horiz-adv-x="506" 
d="M286 43c83 0 118 107 133 185l56 -12c-21 -104 -77 -226 -189 -226h-47c-68 0 -122 50 -152 112c-47 98 -53 209 -53 318s6 220 53 318c30 62 84 112 152 112h47c68 0 122 -50 152 -112c18 -37 29 -75 37 -114l-56 -12c-15 78 -50 185 -133 185h-47
c-53 0 -89 -47 -109 -98c-34 -88 -38 -184 -38 -279s4 -191 38 -279c20 -51 56 -98 109 -98h47zM308 1071h46l-60 -168h-63l-60 168h46l45 -99z" />
    <glyph glyph-name="Uacute" unicode="&#xda;" horiz-adv-x="446" 
d="M395 840v-582c0 -69 -5 -139 -40 -198c-24 -42 -68 -70 -116 -70h-32c-48 0 -92 28 -116 70c-35 59 -41 129 -41 198v582h59v-582c0 -54 2 -109 25 -159c14 -31 40 -56 73 -56h32c33 0 58 25 72 56c23 50 26 105 26 159v582h58zM253 1071h63l-81 -168h-47z" />
    <glyph glyph-name="v" unicode="v" horiz-adv-x="315" 
d="M4 546h59l97 -509l97 509h54l-103 -546h-100z" />
    <glyph glyph-name="E" unicode="E" horiz-adv-x="349" 
d="M52 0v840h270v-53h-211v-374h182v-53h-182v-307h211v-53h-270z" />
    <glyph glyph-name="B" unicode="B" horiz-adv-x="394" 
d="M334 610c0 -71 -13 -154 -62 -189c21 -10 39 -25 52 -45c30 -47 36 -104 36 -160s-6 -113 -36 -160c-23 -35 -62 -56 -104 -56h-168v840h168c37 0 67 -26 84 -60c26 -52 30 -112 30 -170zM111 787v-355h109c22 0 34 23 41 46c13 42 14 88 14 132s-1 89 -14 131
c-7 23 -19 46 -41 46h-109zM302 216c0 64 -13 163 -82 163h-109v-326h109c69 0 82 98 82 163z" />
    <glyph glyph-name="s" unicode="s" horiz-adv-x="300" 
d="M143 503c-41 0 -44 -64 -44 -102c0 -35 13 -70 41 -91l82 -18c43 -32 56 -89 56 -143c0 -42 -4 -86 -29 -120c-20 -27 -55 -39 -89 -39h-20c-34 0 -67 14 -87 41c-15 20 -23 44 -27 68l58 10c5 -32 22 -66 56 -66h20c50 0 59 59 59 106c0 34 -10 69 -37 90l-82 18
c-44 33 -59 89 -59 144c0 41 3 83 25 117c17 25 47 38 77 38h14c30 0 58 -15 75 -40c12 -18 19 -39 23 -60l-57 -10c-4 24 -15 57 -41 57h-14z" />
    <glyph glyph-name="OE" unicode="&#x152;" horiz-adv-x="630" 
d="M256 797h-40c-48 0 -76 -49 -92 -98c-29 -90 -32 -185 -32 -279s3 -189 32 -279c16 -49 44 -98 92 -98h40c48 0 75 49 91 98c29 90 33 185 33 279s-4 189 -33 279c-16 49 -43 98 -91 98zM256 850c55 0 97 -40 124 -89v79h224v-53h-166v-374h137v-53h-137v-307h166v-53
h-224v79c-27 -49 -69 -89 -124 -89h-40c-63 0 -110 52 -135 112c-42 100 -47 210 -47 318s5 218 47 318c25 60 72 112 135 112h40z" />
    <glyph glyph-name="caron" unicode="&#x2c7;" horiz-adv-x="158" 
d="M124 840h46l-60 -168h-63l-60 168h47l45 -99z" />
    <glyph glyph-name="eth" unicode="&#xf0;" horiz-adv-x="394" 
d="M122 681v63l71 44c-24 56 -51 110 -82 162h65c25 -43 46 -87 66 -132l111 68v-62l-90 -56c62 -157 93 -325 93 -495c0 -72 -4 -145 -38 -209c-22 -42 -63 -74 -110 -74h-30c-47 0 -87 32 -109 74c-34 64 -39 137 -39 209s5 145 39 209c22 42 62 74 109 74h30
c27 0 50 -15 67 -37c-14 74 -35 148 -62 219zM298 273c0 65 -2 117 -23 170c-12 31 -35 60 -67 60h-30c-32 0 -54 -29 -66 -60c-21 -54 -24 -112 -24 -170s3 -116 24 -170c12 -31 34 -60 66 -60h30c32 0 55 29 67 60c21 54 23 112 23 170z" />
    <glyph glyph-name="Rcaron" unicode="&#x158;" horiz-adv-x="379" 
d="M52 0v840h157c47 0 88 -27 112 -67c34 -58 39 -126 39 -192s-5 -134 -39 -192c-13 -22 -31 -40 -52 -52l106 -337h-62l-100 321h-102v-321h-59zM218 1071h46l-60 -168h-63l-60 168h46l45 -99zM111 787v-413h98c31 0 56 25 69 54c21 48 24 101 24 153s-3 104 -24 152
c-13 29 -38 54 -69 54h-98z" />
    <glyph glyph-name="zacute" unicode="&#x17a;" horiz-adv-x="278" 
d="M19 493v53h240v-100l-202 -393h202v-53h-240v100l201 393h-201zM169 833h63l-81 -168h-47z" />
    <glyph glyph-name="uring" unicode="&#x16f;" 
d="M311 546v-546h-58v34c-14 -25 -38 -44 -66 -44h-21c-38 0 -72 21 -92 53c-27 45 -33 99 -33 151v352h59v-352c0 -38 2 -77 17 -112c9 -21 27 -39 49 -39h21c22 0 40 18 49 39c15 35 17 74 17 112v352h58zM207 749c0 23 -2 66 -26 66h-9c-24 0 -27 -43 -27 -66
s3 -67 27 -67h9c24 0 26 44 26 67zM106 749c0 48 16 101 66 101h9c50 0 65 -53 65 -101s-15 -102 -65 -102h-9c-50 0 -66 54 -66 102z" />
    <glyph glyph-name="I" unicode="I" horiz-adv-x="178" 
d="M60 0v840h58v-840h-58z" />
    <glyph glyph-name="ntilde" unicode="&#xf1;" 
d="M185 503c-67 0 -82 -88 -82 -151v-352h-58v546h58v-42c17 30 47 52 82 52h21c34 0 65 -22 81 -53c25 -46 28 -99 28 -151v-352h-58v352c0 38 -1 76 -13 112c-7 20 -18 39 -38 39h-21zM146 739c-24 0 -26 -47 -26 -70h-46c0 54 16 117 72 117c34 0 34 -57 68 -57
c24 0 26 47 26 70h46c0 -54 -16 -118 -72 -118c-34 0 -34 58 -68 58z" />
    <glyph glyph-name="Uring" unicode="&#x16e;" horiz-adv-x="446" 
d="M395 840v-582c0 -69 -5 -139 -40 -198c-24 -42 -68 -70 -116 -70h-32c-48 0 -92 28 -116 70c-35 59 -41 129 -41 198v582h59v-582c0 -54 2 -109 25 -159c14 -31 40 -56 73 -56h32c33 0 58 25 72 56c23 50 26 105 26 159v582h58zM254 987c0 23 -3 66 -27 66h-9
c-24 0 -26 -43 -26 -66s2 -66 26 -66h9c24 0 27 43 27 66zM153 987c0 48 15 102 65 102h9c50 0 66 -54 66 -102s-16 -102 -66 -102h-9c-50 0 -65 54 -65 102z" />
    <glyph glyph-name="tcedilla" unicode="&#x163;" horiz-adv-x="202" 
d="M145 -244c0 34 -2 109 -38 109h-55l24 135h-4v493h-66v53h66v404h58v-404h66v-53h-66v-493h-11l-16 -93h4c68 0 85 -86 85 -151s-17 -152 -85 -152h-12c-34 0 -58 26 -70 56l42 17c5 -15 13 -31 28 -31h12c36 0 38 76 38 110z" />
    <glyph glyph-name="ucircumflex" unicode="&#xfb;" 
d="M311 546v-546h-58v34c-14 -25 -38 -44 -66 -44h-21c-38 0 -72 21 -92 53c-27 45 -33 99 -33 151v352h59v-352c0 -38 2 -77 17 -112c9 -21 27 -39 49 -39h21c22 0 40 18 49 39c15 35 17 74 17 112v352h58zM176 764l-45 -99h-46l60 168h63l60 -168h-47z" />
    <glyph glyph-name="Egrave" unicode="&#xc8;" horiz-adv-x="349" 
d="M52 0v840h270v-53h-211v-374h182v-53h-182v-307h211v-53h-270zM94 1071h63l65 -168h-47z" />
    <glyph glyph-name="j" unicode="j" horiz-adv-x="158" 
d="M112 546v-714c0 -56 -2 -112 -23 -164c-13 -30 -37 -58 -69 -58h-10c-36 0 -60 33 -72 66l49 19c4 -16 10 -32 23 -32h10c16 0 21 24 25 44c8 41 9 83 9 125v714h58zM44 749c0 25 17 42 42 42s41 -17 41 -42s-16 -41 -41 -41s-42 16 -42 41z" />
    <glyph glyph-name="Oacute" unicode="&#xd3;" horiz-adv-x="525" 
d="M293 1071h63l-81 -168h-47zM286 797h-47c-53 0 -89 -47 -109 -98c-34 -88 -38 -184 -38 -279s4 -191 38 -279c20 -51 56 -98 109 -98h47c53 0 89 47 109 98c34 88 38 184 38 279s-4 191 -38 279c-20 51 -56 98 -109 98zM286 850c68 0 122 -50 152 -112
c47 -98 53 -209 53 -318s-6 -220 -53 -318c-30 -62 -84 -112 -152 -112h-47c-68 0 -122 50 -152 112c-47 98 -53 209 -53 318s6 220 53 318c30 62 84 112 152 112h47z" />
    <glyph glyph-name="ae" unicode="&#xe6;" horiz-adv-x="555" 
d="M517 109c-15 -59 -56 -119 -121 -119h-24c-41 0 -74 28 -94 65c-19 -38 -56 -65 -102 -65h-21c-36 0 -70 16 -90 45c-26 37 -31 83 -31 128s5 91 31 128c20 29 54 45 90 45h21c26 0 48 -15 63 -37v37c0 42 -1 84 -16 123c-8 22 -24 44 -47 44h-21c-30 0 -45 -35 -53 -63
l-54 16c15 51 50 100 107 100h21c46 0 80 -33 98 -73c19 40 54 73 98 73h24c44 0 79 -33 98 -74c30 -65 35 -137 35 -209v-27h-232c1 -49 5 -97 20 -143c10 -30 26 -60 55 -60h24c38 0 57 45 65 81zM239 163c0 49 -11 120 -63 120h-21c-52 0 -63 -71 -63 -120
s11 -120 63 -120h21c52 0 63 71 63 120zM470 300c-1 49 -4 97 -19 143c-10 30 -26 60 -55 60h-24c-29 0 -45 -30 -55 -60c-15 -46 -19 -94 -20 -143h173z" />
    <glyph glyph-name="c" unicode="c" horiz-adv-x="359" 
d="M201 43c50 0 70 69 78 116l57 -10c-14 -74 -55 -159 -135 -159h-27c-46 0 -86 32 -107 74c-33 64 -37 137 -37 209s4 145 37 209c21 42 61 74 107 74h27c80 0 121 -85 135 -159l-57 -10c-8 47 -28 116 -78 116h-27c-31 0 -53 -29 -64 -60c-20 -54 -22 -112 -22 -170
s2 -116 22 -170c11 -31 33 -60 64 -60h27z" />
    <glyph glyph-name="Lcaron" unicode="&#x13d;" horiz-adv-x="345" 
d="M52 0v840h59v-787h211v-53h-270zM223 840h59l-70 -273h-44z" />
    <glyph glyph-name="D" unicode="D" horiz-adv-x="472" 
d="M52 0v840h176c67 0 123 -48 153 -109c47 -96 54 -204 54 -311s-7 -215 -54 -311c-30 -61 -86 -109 -153 -109h-176zM111 53h117c52 0 90 45 110 95c35 86 39 180 39 272s-4 186 -39 272c-20 50 -58 95 -110 95h-117v-734z" />
    <glyph glyph-name="icircumflex" unicode="&#xee;" horiz-adv-x="142" 
d="M42 0v546h58v-546h-58zM71 764l-45 -99h-46l60 168h63l60 -168h-47z" />
    <glyph glyph-name="gbreve" unicode="&#x11f;" horiz-adv-x="382" 
d="M338 546v-649c0 -73 -5 -147 -37 -212c-20 -42 -58 -75 -104 -75h-27c-53 0 -91 43 -111 91l51 21c11 -30 30 -59 60 -59h27c31 0 50 30 61 61c19 55 21 114 21 173v175c-15 -38 -43 -72 -82 -72h-27c-45 0 -83 31 -104 72c-32 63 -36 135 -36 206s4 143 36 206
c21 41 59 72 104 72h27c39 0 67 -34 82 -72v62h59zM192 730c37 0 52 34 52 69h46c0 -31 -5 -62 -25 -86c-18 -21 -45 -30 -73 -30h-17c-28 0 -54 9 -72 30c-20 24 -26 55 -26 86h47c0 -35 14 -69 51 -69h17zM197 503h-27c-30 0 -49 -29 -60 -59c-19 -53 -22 -110 -22 -166
s3 -113 22 -166c11 -30 30 -59 60 -59h27c30 0 50 29 61 59c19 53 21 110 21 166s-2 113 -21 166c-11 30 -31 59 -61 59z" />
    <glyph glyph-name="ij" unicode="&#x133;" horiz-adv-x="345" 
d="M68 546h58v-546h-58v546zM300 546v-714c0 -56 -3 -113 -27 -164c-15 -32 -43 -58 -78 -58h-15c-39 0 -66 31 -81 66l50 21c6 -18 14 -34 31 -34h15c20 0 29 23 35 44c11 40 12 83 12 125v714h58zM234 750c0 25 17 42 42 42s41 -17 41 -42s-16 -41 -41 -41s-42 16 -42 41z
M50 750c0 25 17 42 42 42s41 -17 41 -42s-16 -41 -41 -41s-42 16 -42 41z" />
    <glyph glyph-name="n" unicode="n" 
d="M185 503c-67 0 -82 -88 -82 -151v-352h-58v546h58v-42c17 30 47 52 82 52h21c34 0 65 -22 81 -53c25 -46 28 -99 28 -151v-352h-58v352c0 38 -1 76 -13 112c-7 20 -18 39 -38 39h-21z" />
    <glyph glyph-name="percent" unicode="%" horiz-adv-x="615" 
d="M118 -42l317 924h62l-317 -924h-62zM172 787h-13c-18 0 -25 -21 -30 -39c-10 -36 -11 -73 -11 -110s1 -75 11 -111c5 -18 12 -39 30 -39h13c18 0 25 21 30 39c10 36 11 74 11 111s-1 74 -11 110c-5 18 -12 39 -30 39zM172 840c32 0 59 -24 73 -53c23 -46 26 -98 26 -149
s-3 -104 -26 -150c-14 -29 -41 -52 -73 -52h-13c-32 0 -59 23 -73 52c-23 46 -26 99 -26 150s3 103 26 149c14 29 41 53 73 53h13zM456 352h-13c-18 0 -25 -21 -30 -39c-10 -36 -11 -74 -11 -111s1 -74 11 -110c5 -18 12 -39 30 -39h13c18 0 25 21 30 39c10 36 11 73 11 110
s-1 75 -11 111c-5 18 -12 39 -30 39zM456 404c32 0 59 -23 73 -52c23 -46 26 -99 26 -150s-3 -103 -26 -149c-14 -29 -41 -53 -73 -53h-13c-32 0 -59 24 -73 53c-23 46 -26 98 -26 149s3 104 26 150c14 29 41 52 73 52h13z" />
    <glyph glyph-name="q" unicode="q" horiz-adv-x="382" 
d="M338 -380h-59v443c-15 -38 -42 -73 -82 -73h-27c-46 0 -83 33 -104 74c-32 64 -36 137 -36 209s4 145 36 209c21 41 58 74 104 74h27c40 0 67 -35 82 -73v63h59v-926zM197 503h-27c-31 0 -49 -30 -60 -60c-19 -54 -22 -112 -22 -170s3 -116 22 -170c11 -30 29 -60 60 -60
h27c31 0 50 30 61 60c19 54 21 112 21 170s-2 116 -21 170c-11 30 -30 60 -61 60z" />
    <glyph glyph-name="Racute" unicode="&#x154;" horiz-adv-x="379" 
d="M52 0v840h157c47 0 88 -27 112 -67c34 -58 39 -126 39 -192s-5 -134 -39 -192c-13 -22 -31 -40 -52 -52l106 -337h-62l-100 321h-102v-321h-59zM203 1071h63l-81 -168h-47zM111 787v-413h98c31 0 56 25 69 54c21 48 24 101 24 153s-3 104 -24 152c-13 29 -38 54 -69 54
h-98z" />
    <glyph glyph-name="x" unicode="x" horiz-adv-x="304" 
d="M21 546h62l70 -180l72 180h58l-101 -253l114 -293h-62l-84 214l-85 -214h-57l114 287z" />
    <glyph glyph-name="S" unicode="S" horiz-adv-x="390" 
d="M275 693c-6 43 -24 104 -70 104h-24c-25 0 -46 -19 -56 -43c-18 -41 -18 -87 -18 -132c0 -58 15 -118 58 -157l121 -32c57 -51 70 -131 70 -208c0 -62 -3 -125 -36 -177c-24 -38 -67 -58 -112 -58h-30c-45 0 -85 23 -109 61c-17 27 -28 57 -33 88l57 10
c8 -48 33 -106 85 -106h30c80 0 90 107 90 182c0 58 -16 117 -59 155l-121 32c-57 51 -69 133 -69 210c0 59 2 120 32 172c21 35 59 56 100 56h24c41 0 77 -24 98 -59c13 -23 22 -49 27 -75z" />
    <glyph glyph-name="A" unicode="A" horiz-adv-x="416" 
d="M8 0l150 840h100l151 -840h-59l-45 251h-199l-44 -251h-54zM295 304l-89 499l-90 -499h179z" />
    <glyph glyph-name="Y" unicode="Y" horiz-adv-x="390" 
d="M4 840h61l132 -444l133 444h56l-162 -542v-298h-58v298z" />
    <glyph glyph-name="oslash" unicode="&#xf8;" horiz-adv-x="375" 
d="M201 503h-27c-31 0 -53 -29 -64 -60c-20 -54 -22 -112 -22 -170c0 -39 1 -78 8 -116l159 307c-12 22 -30 39 -54 39zM201 556c32 0 61 -15 82 -38l15 28h62l-43 -84c24 -59 28 -124 28 -189c0 -72 -4 -145 -37 -209c-21 -42 -61 -74 -107 -74h-27c-32 0 -61 15 -82 38
l-15 -28h-62l43 83c-24 59 -28 125 -28 190c0 72 4 145 37 209c21 42 61 74 107 74h27zM120 82c12 -22 30 -39 54 -39h27c31 0 53 29 64 60c20 54 22 112 22 170c0 39 -1 78 -8 116z" />
    <glyph glyph-name="dieresis" unicode="&#xa8;" horiz-adv-x="158" 
d="M-30 757c0 25 16 41 41 41s42 -16 42 -41s-17 -42 -42 -42s-41 17 -41 42zM105 757c0 25 16 41 41 41s42 -16 42 -41s-17 -42 -42 -42s-41 17 -41 42z" />
    <glyph glyph-name="o" unicode="o" horiz-adv-x="375" 
d="M201 503h-27c-31 0 -53 -29 -64 -60c-20 -54 -22 -112 -22 -170s2 -116 22 -170c11 -31 33 -60 64 -60h27c31 0 53 29 64 60c20 54 22 112 22 170s-2 116 -22 170c-11 31 -33 60 -64 60zM201 556c46 0 86 -32 107 -74c33 -64 37 -137 37 -209s-4 -145 -37 -209
c-21 -42 -61 -74 -107 -74h-27c-46 0 -86 32 -107 74c-33 64 -37 137 -37 209s4 145 37 209c21 42 61 74 107 74h27z" />
    <glyph glyph-name="sacute" unicode="&#x15b;" horiz-adv-x="300" 
d="M143 503c-41 0 -44 -64 -44 -102c0 -35 13 -70 41 -91l82 -18c43 -32 56 -89 56 -143c0 -42 -4 -86 -29 -120c-20 -27 -55 -39 -89 -39h-20c-34 0 -67 14 -87 41c-15 20 -23 44 -27 68l58 10c5 -32 22 -66 56 -66h20c50 0 59 59 59 106c0 34 -10 69 -37 90l-82 18
c-44 33 -59 89 -59 144c0 41 3 83 25 117c17 25 47 38 77 38h14c30 0 58 -15 75 -40c12 -18 19 -39 23 -60l-57 -10c-4 24 -15 57 -41 57h-14zM180 833h64l-82 -168h-47z" />
    <glyph glyph-name="J" unicode="J" horiz-adv-x="330" 
d="M60 120c9 -35 28 -77 65 -77h24c26 0 45 22 55 46c17 41 19 85 19 129v622h58v-622c0 -58 -5 -118 -34 -169c-21 -35 -57 -59 -98 -59h-24c-41 0 -77 24 -98 59c-10 18 -18 37 -23 56z" />
    <glyph glyph-name="dotaccent" unicode="&#x2d9;" horiz-adv-x="135" 
d="M26 757c0 25 17 41 42 41s41 -16 41 -41s-16 -42 -41 -42s-42 17 -42 42z" />
    <glyph glyph-name="y" unicode="y" horiz-adv-x="315" 
d="M4 546h60l96 -412l96 412h55l-216 -926h-55l90 385z" />
    <glyph glyph-name="yacute" unicode="&#xfd;" horiz-adv-x="315" 
d="M4 546h60l96 -412l96 412h55l-216 -926h-55l90 385zM188 833h63l-81 -168h-47z" />
    <glyph glyph-name="dotlessj" unicode="&#x237;" horiz-adv-x="158" 
d="M112 546v-714c0 -56 -2 -112 -23 -164c-13 -30 -37 -58 -69 -58h-10c-36 0 -60 33 -72 66l49 19c4 -16 10 -32 23 -32h10c16 0 21 24 25 44c8 41 9 83 9 125v714h58z" />
    <glyph glyph-name="braceleft" unicode="{" horiz-adv-x="229" 
d="M166 -371c-54 60 -83 157 -83 247v189c0 40 -1 79 -13 117c-6 20 -16 42 -36 42v58c20 0 30 22 36 42c12 38 13 77 13 117v189c0 90 29 187 83 247l40 -35c-43 -51 -64 -136 -64 -212v-189c0 -66 -8 -145 -47 -188c39 -42 47 -122 47 -188v-189c0 -76 21 -161 64 -212z
" />
    <glyph glyph-name="numbersign" unicode="#" horiz-adv-x="405" 
d="M15 268v52h78l20 199h-83v53h88l27 268h59l-27 -268h82l27 268h58l-27 -268h73v-53h-78l-20 -199h83v-52h-88l-27 -268h-59l27 268h-82l-27 -268h-58l27 268h-73zM234 320l20 199h-83l-20 -199h83z" />
    <glyph glyph-name="quoteleft" unicode="&#x2018;" horiz-adv-x="191" 
d="M103 840h44l-55 -273h-59z" />
    <glyph glyph-name="ffl" unicode="&#xfb04;" horiz-adv-x="521" 
d="M337 960c62 0 80 -75 81 -134v124h58v-950h-58v817h-58c0 22 0 45 -6 67c-3 11 -6 23 -17 23h-8c-11 0 -14 -12 -17 -23c-6 -22 -6 -45 -6 -67v-271h58v-53h-58v-493h-58v493h-113v-493h-58v493h-56v53h56v271c0 62 16 143 81 143h8c65 0 81 -81 81 -143h-58
c0 22 0 45 -6 67c-3 11 -6 23 -17 23h-8c-11 0 -14 -12 -17 -23c-6 -22 -6 -45 -6 -67v-271h113v271c0 62 16 143 81 143h8z" />
    <glyph glyph-name="perthousandzero" horiz-adv-x="259" 
d="M136 352h-13c-18 0 -26 -20 -31 -39c-10 -36 -11 -74 -11 -111s1 -74 11 -110c5 -19 13 -39 31 -39h13c18 0 26 20 31 39c10 36 11 73 11 110s-1 75 -11 111c-5 19 -13 39 -31 39zM22 202c0 79 16 202 101 202h13c85 0 100 -122 100 -202c0 -51 -3 -103 -26 -149
c-15 -30 -41 -53 -74 -53h-13c-33 0 -59 23 -74 53c-23 46 -27 98 -27 149z" />
    <glyph glyph-name="lcaron" unicode="&#x13e;" horiz-adv-x="148" 
d="M45 0v950h58v-950h-58zM184 950h59l-70 -273h-44z" />
    <glyph glyph-name="three" unicode="3" 
d="M88 126c8 -37 27 -83 67 -83h24c26 0 45 22 55 46c17 41 19 85 19 129s-2 89 -19 130c-10 24 -29 46 -55 46h-44v52h44c26 0 45 22 55 46c17 41 19 86 19 130s-2 88 -19 129c-10 24 -29 46 -55 46h-24c-40 0 -59 -46 -67 -83l-56 13c5 22 13 44 25 64c21 35 57 59 98 59
h24c41 0 77 -24 98 -59c29 -51 34 -111 34 -169c0 -53 -5 -108 -34 -152c-11 -17 -26 -30 -43 -39c17 -10 32 -26 43 -44c29 -51 34 -111 34 -169s-5 -118 -34 -169c-21 -35 -57 -59 -98 -59h-24c-41 0 -77 24 -98 59c-12 20 -20 42 -25 64z" />
    <glyph glyph-name="Ucircumflex" unicode="&#xdb;" horiz-adv-x="446" 
d="M395 840v-582c0 -69 -5 -139 -40 -198c-24 -42 -68 -70 -116 -70h-32c-48 0 -92 28 -116 70c-35 59 -41 129 -41 198v582h59v-582c0 -54 2 -109 25 -159c14 -31 40 -56 73 -56h32c33 0 58 25 72 56c23 50 26 105 26 159v582h58zM223 1002l-45 -99h-47l60 168h63l60 -168
h-46z" />
    <glyph glyph-name="ohungarumlaut" unicode="&#x151;" horiz-adv-x="375" 
d="M97 665l59 168h63l-76 -168h-46zM269 833h62l-75 -168h-47zM201 503h-27c-31 0 -53 -29 -64 -60c-20 -54 -22 -112 -22 -170s2 -116 22 -170c11 -31 33 -60 64 -60h27c31 0 53 29 64 60c20 54 22 112 22 170s-2 116 -22 170c-11 31 -33 60 -64 60zM201 556
c46 0 86 -32 107 -74c33 -64 37 -137 37 -209s-4 -145 -37 -209c-21 -42 -61 -74 -107 -74h-27c-46 0 -86 32 -107 74c-33 64 -37 137 -37 209s4 145 37 209c21 42 61 74 107 74h27z" />
    <glyph glyph-name="bracketleft" unicode="[" horiz-adv-x="210" 
d="M68 -380v1262h120v-53h-62v-1156h62v-53h-120z" />
    <glyph glyph-name="oacute" unicode="&#xf3;" horiz-adv-x="375" 
d="M218 833h63l-81 -168h-47zM201 503h-27c-31 0 -53 -29 -64 -60c-20 -54 -22 -112 -22 -170s2 -116 22 -170c11 -31 33 -60 64 -60h27c31 0 53 29 64 60c20 54 22 112 22 170s-2 116 -22 170c-11 31 -33 60 -64 60zM201 556c46 0 86 -32 107 -74c33 -64 37 -137 37 -209
s-4 -145 -37 -209c-21 -42 -61 -74 -107 -74h-27c-46 0 -86 32 -107 74c-33 64 -37 137 -37 209s4 145 37 209c21 42 61 74 107 74h27z" />
    <glyph glyph-name="nine" unicode="9" horiz-adv-x="368" 
d="M93 135c9 -41 30 -92 74 -92h26c29 0 50 24 61 51c19 46 21 96 21 146v158c-16 -36 -44 -68 -82 -68h-26c-44 0 -83 29 -104 68c-32 58 -37 126 -37 192s5 134 37 192c21 39 60 68 104 68h26c44 0 83 -29 104 -68c32 -58 37 -126 37 -192v-350c0 -64 -6 -129 -37 -185
c-22 -38 -60 -65 -104 -65h-26c-44 0 -82 27 -104 65c-12 21 -20 44 -26 67zM193 797h-26c-29 0 -50 -26 -61 -54c-19 -48 -21 -101 -21 -153s2 -105 21 -153c11 -28 32 -53 61 -53h26c29 0 50 25 61 53c19 48 21 101 21 153s-2 105 -21 153c-11 28 -32 54 -61 54z" />
    <glyph glyph-name="backslash" unicode="\" horiz-adv-x="281" 
d="M206 -42l-191 924h60l191 -924h-60z" />
    <glyph glyph-name="atilde" unicode="&#xe3;" horiz-adv-x="353" 
d="M157 503c-32 0 -49 -34 -58 -64l-54 17c5 15 10 29 18 43c20 34 55 57 94 57h23c39 0 74 -23 94 -57c28 -49 34 -107 34 -163v-336h-59v29c-16 -23 -41 -39 -69 -39h-23c-37 0 -72 15 -94 45c-27 36 -33 83 -33 128s6 92 33 128c22 30 57 45 94 45h23c28 0 53 -17 69 -40
v40c0 42 -2 84 -18 123c-10 23 -27 44 -51 44h-23zM135 739c-24 0 -26 -47 -26 -70h-47c0 54 17 117 73 117c34 0 33 -57 67 -57c24 0 26 47 26 70h47c0 -54 -17 -118 -73 -118c-34 0 -33 58 -67 58zM249 163c0 52 -14 120 -69 120h-23c-55 0 -69 -68 -69 -120
s14 -120 69 -120h23c55 0 69 68 69 120z" />
    <glyph glyph-name="Aacute" unicode="&#xc1;" horiz-adv-x="416" 
d="M8 0l150 840h100l151 -840h-59l-45 251h-199l-44 -251h-54zM238 1071h64l-82 -168h-47zM295 304l-89 499l-90 -499h179z" />
    <glyph glyph-name="ccedilla" unicode="&#xe7;" horiz-adv-x="359" 
d="M201 43c50 0 70 69 78 116l57 -10c-14 -74 -53 -157 -132 -159l-15 -83h5c68 0 84 -86 84 -151s-16 -152 -84 -152h-13c-34 0 -58 26 -70 56l42 17c5 -15 13 -31 28 -31h13c36 0 37 76 37 110s-1 109 -37 109h-56l23 126c-40 5 -75 35 -94 73c-33 64 -37 137 -37 209
s4 145 37 209c21 42 61 74 107 74h27c80 0 121 -85 135 -159l-57 -10c-8 47 -28 116 -78 116h-27c-31 0 -53 -29 -64 -60c-20 -54 -22 -112 -22 -170s2 -116 22 -170c11 -31 33 -60 64 -60h27z" />
    <glyph glyph-name="Lslash" unicode="&#x141;" horiz-adv-x="353" 
d="M330 0h-270v312l-45 -50v64l45 51v463h58v-398l122 136v-64l-122 -136v-325h212v-53z" />
    <glyph glyph-name="Sacute" unicode="&#x15a;" horiz-adv-x="390" 
d="M275 693c-6 43 -24 104 -70 104h-24c-25 0 -46 -19 -56 -43c-18 -41 -18 -87 -18 -132c0 -58 15 -118 58 -157l121 -32c57 -51 70 -131 70 -208c0 -62 -3 -125 -36 -177c-24 -38 -67 -58 -112 -58h-30c-45 0 -85 23 -109 61c-17 27 -28 57 -33 88l57 10
c8 -48 33 -106 85 -106h30c80 0 90 107 90 182c0 58 -16 117 -59 155l-121 32c-57 51 -69 133 -69 210c0 59 2 120 32 172c21 35 59 56 100 56h24c41 0 77 -24 98 -59c13 -23 22 -49 27 -75zM223 1071h64l-82 -168h-47z" />
    <glyph glyph-name="visiblespace" unicode="&#x2420;" horiz-adv-x="300" 
d="M15 0h58v-126h154v126h58v-178h-270v178z" />
    <glyph glyph-name="aring" unicode="&#xe5;" horiz-adv-x="353" 
d="M157 503c-32 0 -49 -34 -58 -64l-54 17c5 15 10 29 18 43c20 34 55 57 94 57h23c39 0 74 -23 94 -57c28 -49 34 -107 34 -163v-336h-59v29c-16 -23 -41 -39 -69 -39h-23c-37 0 -72 15 -94 45c-27 36 -33 83 -33 128s6 92 33 128c22 30 57 45 94 45h23c28 0 53 -17 69 -40
v40c0 42 -2 84 -18 123c-10 23 -27 44 -51 44h-23zM249 163c0 52 -14 120 -69 120h-23c-55 0 -69 -68 -69 -120s14 -120 69 -120h23c55 0 69 68 69 120zM200 749c0 23 -3 66 -27 66h-9c-24 0 -26 -43 -26 -66s2 -67 26 -67h9c24 0 27 44 27 67zM99 749c0 48 15 101 65 101h9
c50 0 66 -53 66 -101s-16 -102 -66 -102h-9c-50 0 -65 54 -65 102z" />
    <glyph glyph-name="m" unicode="m" horiz-adv-x="544" 
d="M178 503c-63 0 -75 -91 -75 -151v-352h-58v546h58v-39c16 28 43 49 75 49h20c47 0 76 -42 90 -84c14 42 43 84 90 84h20c34 0 61 -23 77 -53c24 -46 27 -99 27 -151v-352h-58v352c0 38 -1 76 -12 112c-6 19 -15 39 -34 39h-20c-63 0 -75 -91 -75 -151v-352h-58v352
c0 38 -2 76 -13 112c-6 19 -15 39 -34 39h-20z" />
    <glyph glyph-name="ograve" unicode="&#xf2;" horiz-adv-x="375" 
d="M94 833h63l65 -168h-47zM201 503h-27c-31 0 -53 -29 -64 -60c-20 -54 -22 -112 -22 -170s2 -116 22 -170c11 -31 33 -60 64 -60h27c31 0 53 29 64 60c20 54 22 112 22 170s-2 116 -22 170c-11 31 -33 60 -64 60zM201 556c46 0 86 -32 107 -74c33 -64 37 -137 37 -209
s-4 -145 -37 -209c-21 -42 -61 -74 -107 -74h-27c-46 0 -86 32 -107 74c-33 64 -37 137 -37 209s4 145 37 209c21 42 61 74 107 74h27z" />
    <glyph glyph-name="Cacute" unicode="&#x106;" horiz-adv-x="506" 
d="M286 43c83 0 118 107 133 185l56 -12c-21 -104 -77 -226 -189 -226h-47c-68 0 -122 50 -152 112c-47 98 -53 209 -53 318s6 220 53 318c30 62 84 112 152 112h47c68 0 122 -50 152 -112c18 -37 29 -75 37 -114l-56 -12c-15 78 -50 185 -133 185h-47
c-53 0 -89 -47 -109 -98c-34 -88 -38 -184 -38 -279s4 -191 38 -279c20 -51 56 -98 109 -98h47zM293 1071h63l-81 -168h-47z" />
    <glyph glyph-name="six" unicode="6" horiz-adv-x="368" 
d="M274 705c-9 41 -29 92 -73 92h-27c-29 0 -50 -24 -61 -51c-19 -46 -21 -96 -21 -146v-158c16 36 44 68 82 68h27c44 0 83 -29 104 -68c32 -58 36 -126 36 -192s-4 -134 -36 -192c-21 -39 -60 -68 -104 -68h-27c-44 0 -83 29 -104 68c-32 58 -36 126 -36 192v350
c0 64 5 129 36 185c22 38 60 65 104 65h27c44 0 82 -27 104 -65c12 -21 19 -44 25 -67zM174 43h27c29 0 50 26 61 54c19 48 21 101 21 153s-2 105 -21 153c-11 28 -32 53 -61 53h-27c-29 0 -50 -25 -61 -53c-19 -48 -21 -101 -21 -153s2 -105 21 -153c11 -28 32 -54 61 -54z
" />
    <glyph glyph-name="egrave" unicode="&#xe8;" horiz-adv-x="371" 
d="M201 43c42 0 66 44 76 82l55 -16c-6 -20 -13 -39 -24 -57c-23 -37 -63 -62 -107 -62h-27c-46 0 -86 32 -107 74c-33 64 -37 137 -37 209s4 145 37 209c21 42 61 74 107 74h27c46 0 86 -32 107 -74c33 -64 37 -137 37 -209v-27h-257c1 -49 5 -97 22 -143
c11 -31 33 -60 64 -60h27zM94 833h63l65 -168h-47zM286 300c-1 49 -4 97 -21 143c-11 31 -33 60 -64 60h-27c-31 0 -53 -29 -64 -60c-17 -46 -21 -94 -22 -143h198z" />
    <glyph glyph-name="cwm" horiz-adv-x="0" 
d="M70 -0c0 -13 -10 -26 -26 -26c-13 0 -26 10 -26 26v840c0 13 10 26 26 26c13 0 26 -10 26 -26v-840z" />
    <glyph glyph-name="hyphen" unicode="-" horiz-adv-x="217" 
d="M30 246v54h158v-54h-158z" />
    <glyph glyph-name="scaron" unicode="&#x161;" horiz-adv-x="300" 
d="M143 503c-41 0 -44 -64 -44 -102c0 -35 13 -70 41 -91l82 -18c43 -32 56 -89 56 -143c0 -42 -4 -86 -29 -120c-20 -27 -55 -39 -89 -39h-20c-34 0 -67 14 -87 41c-15 20 -23 44 -27 68l58 10c5 -32 22 -66 56 -66h20c50 0 59 59 59 106c0 34 -10 69 -37 90l-82 18
c-44 33 -59 89 -59 144c0 41 3 83 25 117c17 25 47 38 77 38h14c30 0 58 -15 75 -40c12 -18 19 -39 23 -60l-57 -10c-4 24 -15 57 -41 57h-14zM195 833h47l-61 -168h-62l-61 168h47l45 -99z" />
    <glyph glyph-name="Zacute" unicode="&#x179;" horiz-adv-x="383" 
d="M19 787v53h345v-100l-304 -687h304v-53h-345v100l304 687h-304zM221 1071h64l-81 -168h-48z" />
    <glyph glyph-name="igrave" unicode="&#xec;" horiz-adv-x="142" 
d="M42 0v546h58v-546h-58zM-22 833h63l65 -168h-47z" />
    <glyph glyph-name="acircumflex" unicode="&#xe2;" horiz-adv-x="353" 
d="M157 503c-32 0 -49 -34 -58 -64l-54 17c5 15 10 29 18 43c20 34 55 57 94 57h23c39 0 74 -23 94 -57c28 -49 34 -107 34 -163v-336h-59v29c-16 -23 -41 -39 -69 -39h-23c-37 0 -72 15 -94 45c-27 36 -33 83 -33 128s6 92 33 128c22 30 57 45 94 45h23c28 0 53 -17 69 -40
v40c0 42 -2 84 -18 123c-10 23 -27 44 -51 44h-23zM249 163c0 52 -14 120 -69 120h-23c-55 0 -69 -68 -69 -120s14 -120 69 -120h23c55 0 69 68 69 120zM169 764l-45 -99h-47l60 168h63l60 -168h-46z" />
    <glyph glyph-name="M" unicode="M" horiz-adv-x="581" 
d="M52 0v840h100l139 -809l138 809h100v-840h-59v760l-129 -760h-100l-130 760v-760h-59z" />
    <glyph glyph-name="N" unicode="N" horiz-adv-x="469" 
d="M52 0v840h100l206 -782v782h58v-840h-100l-205 782v-782h-59z" />
    <glyph glyph-name="at" unicode="@" horiz-adv-x="503" 
d="M275 43c49 0 93 23 117 62l50 -32c-5 -7 -9 -13 -15 -20c-37 -44 -95 -63 -152 -63h-48c-68 0 -121 50 -151 112c-47 98 -54 209 -54 318s7 220 54 318c30 62 83 112 151 112h48c68 0 122 -50 152 -112c47 -98 53 -209 53 -318c0 -50 -4 -101 -30 -144
c-18 -31 -51 -50 -87 -50h-68v32c-11 -18 -27 -32 -48 -32h-16c-33 0 -63 20 -79 50c-24 44 -27 94 -27 144s3 100 27 144c16 30 46 50 79 50h16c21 0 37 -14 48 -32v32h59v-336h9c20 0 35 18 43 37c14 33 16 69 16 105c0 95 -4 191 -38 279c-20 51 -56 98 -109 98h-48
c-53 0 -88 -47 -108 -98c-34 -88 -38 -184 -38 -279s4 -191 38 -279c20 -51 55 -98 108 -98h48zM247 562h-16c-19 0 -30 -19 -36 -37c-11 -34 -12 -70 -12 -105s1 -71 12 -105c6 -18 17 -37 36 -37h16c19 0 30 19 36 37c11 34 12 70 12 105s-1 71 -12 105
c-6 18 -17 37 -36 37z" />
    <glyph glyph-name="idieresis" unicode="&#xef;" horiz-adv-x="142" 
d="M42 0v546h58v-546h-58zM-38 749c0 25 17 42 42 42s41 -17 41 -42s-16 -41 -41 -41s-42 16 -42 41zM97 749c0 25 17 42 42 42s41 -17 41 -42s-16 -41 -41 -41s-42 16 -42 41z" />
    <glyph glyph-name="colon" unicode=":" horiz-adv-x="178" 
d="M49 40c0 24 16 40 40 40s40 -16 40 -40s-16 -40 -40 -40s-40 16 -40 40zM49 506c0 24 16 40 40 40s40 -16 40 -40s-16 -40 -40 -40s-40 16 -40 40z" />
    <glyph glyph-name="l" unicode="l" horiz-adv-x="148" 
d="M45 0v950h58v-950h-58z" />
    <glyph glyph-name="Iacute" unicode="&#xcd;" horiz-adv-x="178" 
d="M60 0v840h58v-840h-58zM119 1071h64l-82 -168h-47z" />
    <glyph glyph-name="two" unicode="2" 
d="M162 797c-39 0 -59 -41 -67 -77l-56 13c5 22 13 43 25 62c21 34 58 55 98 55h24c40 0 77 -21 98 -55c29 -47 35 -103 35 -158c0 -145 -53 -283 -122 -411c-31 -58 -63 -116 -94 -173h216v-53h-289v53c41 75 81 150 122 225c60 112 108 232 108 359c0 40 -2 81 -19 118
c-11 23 -30 42 -55 42h-24z" />
    <glyph glyph-name="zero" unicode="0" horiz-adv-x="390" 
d="M208 797h-26c-38 0 -55 -43 -64 -84c-18 -84 -18 -195 -18 -293s0 -209 18 -293c9 -41 26 -84 64 -84h26c38 0 55 43 64 84c18 84 18 195 18 293s0 209 -18 293c-9 41 -26 84 -64 84zM208 850c53 0 92 -44 109 -96c31 -96 32 -221 32 -334s-1 -238 -32 -334
c-17 -52 -56 -96 -109 -96h-26c-53 0 -92 44 -109 96c-31 96 -32 221 -32 334s1 238 32 334c17 52 56 96 109 96h26z" />
    <glyph glyph-name="g" unicode="g" horiz-adv-x="382" 
d="M338 546v-649c0 -73 -5 -147 -37 -212c-20 -42 -58 -75 -104 -75h-27c-53 0 -91 43 -111 91l51 21c11 -30 30 -59 60 -59h27c31 0 50 30 61 61c19 55 21 114 21 173v175c-15 -38 -43 -72 -82 -72h-27c-45 0 -83 31 -104 72c-32 63 -36 135 -36 206s4 143 36 206
c21 41 59 72 104 72h27c39 0 67 -34 82 -72v62h59zM197 503h-27c-30 0 -49 -29 -60 -59c-19 -53 -22 -110 -22 -166s3 -113 22 -166c11 -30 30 -59 60 -59h27c30 0 50 29 61 59c19 53 21 110 21 166s-2 113 -21 166c-11 30 -31 59 -61 59z" />
    <glyph glyph-name="Tcedilla" unicode="&#x162;" horiz-adv-x="345" 
d="M216 -244c0 34 -1 109 -37 109h-56l24 135h-4v787h-140v53h339v-53h-140v-787h-12l-16 -93h5c68 0 84 -86 84 -151s-16 -152 -84 -152h-13c-34 0 -58 26 -70 56l42 17c5 -15 13 -31 28 -31h13c36 0 37 76 37 110z" />
    <glyph glyph-name="Tcaron" unicode="&#x164;" horiz-adv-x="345" 
d="M3 787v53h339v-53h-140v-787h-59v787h-140zM218 1071h46l-60 -168h-63l-60 168h46l45 -99z" />
    <glyph glyph-name="hungarumlaut" unicode="&#x2dd;" horiz-adv-x="158" 
d="M-12 672l59 168h63l-75 -168h-47zM160 840h63l-76 -168h-47z" />
    <glyph glyph-name="Lacute" unicode="&#x139;" horiz-adv-x="345" 
d="M52 0v840h59v-787h211v-53h-270zM112 1071h63l-81 -168h-47z" />
    <glyph glyph-name="quotesinglbase" unicode="&#x201a;" horiz-adv-x="191" 
d="M96 105h59l-70 -273h-44z" />
    <glyph glyph-name="grave" unicode="`" horiz-adv-x="150" 
d="M8 840h63l65 -168h-47z" />
    <glyph glyph-name="otilde" unicode="&#xf5;" horiz-adv-x="375" 
d="M154 739c-24 0 -26 -47 -26 -70h-47c0 54 17 117 73 117c34 0 33 -57 67 -57c24 0 26 47 26 70h47c0 -54 -17 -118 -73 -118c-34 0 -33 58 -67 58zM201 503h-27c-31 0 -53 -29 -64 -60c-20 -54 -22 -112 -22 -170s2 -116 22 -170c11 -31 33 -60 64 -60h27
c31 0 53 29 64 60c20 54 22 112 22 170s-2 116 -22 170c-11 31 -33 60 -64 60zM201 556c46 0 86 -32 107 -74c33 -64 37 -137 37 -209s-4 -145 -37 -209c-21 -42 -61 -74 -107 -74h-27c-46 0 -86 32 -107 74c-33 64 -37 137 -37 209s4 145 37 209c21 42 61 74 107 74h27z
" />
    <glyph glyph-name="uhungarumlaut" unicode="&#x171;" 
d="M311 546v-546h-58v34c-14 -25 -38 -44 -66 -44h-21c-38 0 -72 21 -92 53c-27 45 -33 99 -33 151v352h59v-352c0 -38 2 -77 17 -112c9 -21 27 -39 49 -39h21c22 0 40 18 49 39c15 35 17 74 17 112v352h58zM85 665l60 168h63l-76 -168h-47zM257 833h63l-75 -168h-47z" />
    <glyph glyph-name="dcroat" unicode="&#x111;" horiz-adv-x="394" 
d="M338 0h-59v63c-15 -38 -42 -73 -82 -73h-27c-46 0 -83 33 -104 74c-32 64 -36 137 -36 209s4 145 36 209c21 41 58 74 104 74h27c40 0 67 -35 82 -73v251h-95v52h95v164h59v-164h48v-52h-48v-734zM197 503h-27c-31 0 -49 -30 -60 -60c-19 -54 -22 -112 -22 -170
s3 -116 22 -170c11 -30 29 -60 60 -60h27c31 0 50 30 61 60c19 54 21 112 21 170s-2 116 -21 170c-11 30 -30 60 -61 60z" />
    <glyph glyph-name="K" unicode="K" horiz-adv-x="398" 
d="M52 840h59v-454c31 62 60 126 91 188l131 266h59l-166 -339l166 -501h-62l-141 426l-78 -161v-265h-59v840z" />
    <glyph glyph-name="zdotaccent" unicode="&#x17c;" horiz-adv-x="278" 
d="M19 493v53h240v-100l-202 -393h202v-53h-240v100l201 393h-201zM97 749c0 25 17 42 42 42s41 -17 41 -42s-16 -41 -41 -41s-42 16 -42 41z" />
    <glyph glyph-name="period" unicode="." horiz-adv-x="178" 
d="M49 40c0 24 16 40 40 40s40 -16 40 -40s-16 -40 -40 -40s-40 16 -40 40z" />
    <glyph glyph-name="k" unicode="k" horiz-adv-x="326" 
d="M49 950h58v-677l151 273h61l-125 -225l125 -321h-63l-99 254l-50 -90v-164h-58v950z" />
    <glyph glyph-name="W" unicode="W" horiz-adv-x="585" 
d="M8 840h59l145 -803l53 294l-92 509h59l63 -346l63 346h54l-90 -496l56 -307l145 803h55l-153 -840h-100l-33 181l-32 -181h-100z" />
    <glyph glyph-name="X" unicode="X" horiz-adv-x="371" 
d="M17 840h61l109 -316l110 316h57l-139 -398l153 -442h-62l-122 354l-123 -354h-57l152 436z" />
    <glyph glyph-name="ogonek" unicode="&#x2db;" horiz-adv-x="150" 
d="M69 -396c-68 0 -85 87 -85 152c0 26 -1 53 -1 79c0 28 2 56 9 83l51 124l65 -42l-52 -125c-10 -40 -25 -78 -25 -119c0 -34 2 -110 38 -110h12c13 0 21 12 26 24l40 -20c-13 -26 -36 -46 -66 -46h-12z" />
    <glyph glyph-name="agrave" unicode="&#xe0;" horiz-adv-x="353" 
d="M157 503c-32 0 -49 -34 -58 -64l-54 17c5 15 10 29 18 43c20 34 55 57 94 57h23c39 0 74 -23 94 -57c28 -49 34 -107 34 -163v-336h-59v29c-16 -23 -41 -39 -69 -39h-23c-37 0 -72 15 -94 45c-27 36 -33 83 -33 128s6 92 33 128c22 30 57 45 94 45h23c28 0 53 -17 69 -40
v40c0 42 -2 84 -18 123c-10 23 -27 44 -51 44h-23zM75 833h64l65 -168h-48zM249 163c0 52 -14 120 -69 120h-23c-55 0 -69 -68 -69 -120s14 -120 69 -120h23c55 0 69 68 69 120z" />
    <glyph glyph-name="aogonek" unicode="&#x105;" horiz-adv-x="353" 
d="M157 503c-32 0 -49 -34 -58 -64l-54 17c5 15 10 29 18 43c20 34 55 57 94 57h23c39 0 74 -23 94 -57c28 -49 34 -107 34 -163v-335l1 -1l-51 -125c-10 -40 -26 -78 -26 -119c0 -34 2 -110 38 -110h13c13 0 21 12 26 24l40 -20c-13 -26 -36 -46 -66 -46h-13
c-68 0 -84 87 -84 152c0 26 -2 53 -2 79c0 28 2 56 9 83l37 90c-14 -12 -31 -18 -50 -18h-23c-37 0 -72 15 -94 45c-27 36 -33 83 -33 128s6 92 33 128c22 30 57 45 94 45h23c28 0 53 -17 69 -40v40c0 42 -2 84 -18 123c-10 23 -27 44 -51 44h-23zM249 163
c0 52 -14 120 -69 120h-23c-55 0 -69 -68 -69 -120s14 -120 69 -120h23c55 0 69 68 69 120z" />
    <glyph glyph-name="quotedbl" unicode="&#x22;" horiz-adv-x="221" 
d="M22 840h59v-273h-59v273zM199 840v-273h-59v273h59z" />
    <glyph glyph-name="t" unicode="t" horiz-adv-x="202" 
d="M6 493v53h66v404h58v-404h66v-53h-66v-493h-58v493h-66z" />
    <glyph glyph-name="question" unicode="?" horiz-adv-x="330" 
d="M32 727c13 60 49 123 115 123h21c39 0 73 -24 92 -59c28 -51 32 -111 32 -169s-4 -118 -32 -169c-16 -29 -42 -52 -73 -58v-189h-59v240h40c24 0 40 23 49 46c16 41 17 86 17 130s-1 88 -17 129c-9 23 -25 46 -49 46h-21c-37 0 -52 -47 -59 -82zM118 40c0 24 16 40 40 40
s39 -16 39 -40s-15 -40 -39 -40s-40 16 -40 40z" />
    <glyph glyph-name="Adieresis" unicode="&#xc4;" horiz-adv-x="416" 
d="M8 0l150 840h100l151 -840h-59l-45 251h-199l-44 -251h-54zM99 988c0 25 17 41 42 41s41 -16 41 -41s-16 -42 -41 -42s-42 17 -42 42zM234 988c0 25 17 41 42 41s41 -16 41 -41s-16 -42 -41 -42s-42 17 -42 42zM295 304l-89 499l-90 -499h179z" />
    <glyph glyph-name="five" unicode="5" horiz-adv-x="360" 
d="M97 116c10 -34 30 -73 66 -73h27c30 0 49 27 60 56c19 51 22 107 22 161s-1 109 -18 161c-9 28 -24 57 -52 57h-22c-30 0 -55 -16 -70 -38v-93h-58v493h249v-53h-191v-281c18 15 43 24 70 24h22c42 0 77 -31 95 -70c29 -62 33 -132 33 -200c0 -69 -4 -139 -36 -200
c-21 -40 -59 -70 -104 -70h-27c-60 0 -103 52 -120 107z" />
    <glyph glyph-name="Aring" unicode="&#xc5;" horiz-adv-x="416" 
d="M8 0l150 840h100l151 -840h-59l-45 251h-199l-44 -251h-54zM295 304l-89 499l-90 -499h179zM239 987c0 23 -3 66 -27 66h-8c-24 0 -27 -43 -27 -66s3 -66 27 -66h8c24 0 27 43 27 66zM138 987c0 48 16 102 66 102h8c50 0 66 -54 66 -102s-16 -102 -66 -102h-8
c-50 0 -66 54 -66 102z" />
    <glyph glyph-name="z" unicode="z" horiz-adv-x="278" 
d="M19 493v53h240v-100l-202 -393h202v-53h-240v100l201 393h-201z" />
    <glyph glyph-name="Ccedilla" unicode="&#xc7;" horiz-adv-x="506" 
d="M286 43c83 0 118 107 133 185l56 -12c-21 -104 -77 -226 -189 -226h-7l-15 -83h5c68 0 84 -86 84 -151s-16 -152 -84 -152h-13c-34 0 -58 26 -70 56l42 17c5 -15 13 -31 28 -31h13c36 0 37 76 37 110s-1 109 -37 109h-56l22 125c-66 2 -119 51 -148 112
c-47 98 -53 209 -53 318s6 220 53 318c30 62 84 112 152 112h47c68 0 122 -50 152 -112c18 -37 29 -75 37 -114l-56 -12c-15 78 -50 185 -133 185h-47c-53 0 -89 -47 -109 -98c-34 -88 -38 -184 -38 -279s4 -191 38 -279c20 -51 56 -98 109 -98h47z" />
    <glyph glyph-name="Idotaccent" unicode="&#x130;" horiz-adv-x="178" 
d="M60 0v840h58v-840h-58zM48 988c0 25 16 41 41 41s42 -16 42 -41s-17 -42 -42 -42s-41 17 -41 42z" />
    <glyph glyph-name="sterling" unicode="&#xa3;" horiz-adv-x="360" 
d="M142 220c0 -59 -9 -129 -46 -167h235v-53h-302v53c21 0 33 22 40 43c13 40 14 82 14 124v140h-54v53h54v179c0 65 4 131 30 191c16 36 46 67 85 67h18c64 0 95 -75 106 -135l-56 -11c-5 34 -15 93 -50 93h-18c-25 0 -35 -28 -42 -53c-14 -49 -14 -101 -14 -152v-179h139
v-53h-139v-140z" />
    <glyph glyph-name="eight" unicode="8" horiz-adv-x="375" 
d="M174 43h27c28 0 49 22 61 48c19 43 21 91 21 138s-2 94 -21 137c-12 26 -33 48 -61 48h-27c-28 0 -49 -22 -61 -48c-19 -43 -21 -90 -21 -137s2 -95 21 -138c12 -26 33 -48 61 -48zM316 632c0 -68 -13 -146 -62 -178c21 -11 39 -28 51 -49c31 -53 36 -115 36 -176
s-5 -124 -36 -177c-22 -37 -61 -62 -104 -62h-27c-43 0 -82 25 -104 62c-31 53 -36 116 -36 177s5 123 36 176c12 21 30 38 51 49c-49 32 -62 110 -62 178c0 55 4 112 30 161c17 33 48 57 85 57h27c37 0 68 -24 85 -57c26 -49 30 -106 30 -161zM201 467c22 0 35 21 42 43
c13 39 15 81 15 122s-2 83 -15 122c-7 22 -20 43 -42 43h-27c-22 0 -35 -21 -42 -43c-13 -39 -15 -81 -15 -122s2 -83 15 -122c7 -22 20 -43 42 -43h27z" />
    <glyph glyph-name="Ntilde" unicode="&#xd1;" horiz-adv-x="469" 
d="M52 0v840h100l206 -782v782h58v-840h-100l-205 782v-782h-59zM201 978c-24 0 -26 -48 -26 -71h-47c0 54 17 118 73 118c34 0 33 -58 67 -58c24 0 26 47 26 70h47c0 -54 -17 -117 -73 -117c-34 0 -33 58 -67 58z" />
    <glyph glyph-name="Z" unicode="Z" horiz-adv-x="383" 
d="M19 787v53h345v-100l-304 -687h304v-53h-345v100l304 687h-304z" />
    <glyph glyph-name="T" unicode="T" horiz-adv-x="345" 
d="M3 787v53h339v-53h-140v-787h-59v787h-140z" />
    <glyph glyph-name="parenleft" unicode="(" horiz-adv-x="206" 
d="M151 -381c-27 41 -45 101 -60 155c-44 155 -57 318 -57 479s13 324 57 479c15 54 33 114 60 155l38 -26c-29 -34 -44 -107 -57 -167c-31 -145 -40 -293 -40 -441s9 -296 40 -441c13 -60 28 -133 57 -167z" />
    <glyph glyph-name="Eacute" unicode="&#xc9;" horiz-adv-x="349" 
d="M52 0v840h270v-53h-211v-374h182v-53h-182v-307h211v-53h-270zM218 1071h63l-81 -168h-47z" />
    <glyph glyph-name="zcaron" unicode="&#x17e;" horiz-adv-x="278" 
d="M19 493v53h240v-100l-202 -393h202v-53h-240v100l201 393h-201zM184 833h46l-60 -168h-63l-60 168h47l45 -99z" />
    <glyph glyph-name="IJ" unicode="&#x132;" horiz-adv-x="454" 
d="M195 119c8 -33 24 -76 60 -76h23c25 0 42 22 51 46c16 41 18 85 18 129v622h58v-622c0 -58 -5 -118 -33 -169c-19 -35 -54 -59 -94 -59h-23c-40 0 -75 24 -94 59c-10 18 -16 37 -21 56zM60 0v840h58v-840h-58z" />
    <glyph glyph-name="guilsinglleft" unicode="&#x2039;" horiz-adv-x="206" 
d="M94 273l78 -273h-60l-78 273l78 273h60z" />
    <glyph glyph-name="quotedblbase" unicode="&#x201e;" horiz-adv-x="345" 
d="M55 -168l54 273h59l-69 -273h-44zM239 105h59l-70 -273h-44z" />
    <glyph glyph-name="abreve" unicode="&#x103;" horiz-adv-x="353" 
d="M157 503c-32 0 -49 -34 -58 -64l-54 17c5 15 10 29 18 43c20 34 55 57 94 57h23c39 0 74 -23 94 -57c28 -49 34 -107 34 -163v-336h-59v29c-16 -23 -41 -39 -69 -39h-23c-37 0 -72 15 -94 45c-27 36 -33 83 -33 128s6 92 33 128c22 30 57 45 94 45h23c28 0 53 -17 69 -40
v40c0 42 -2 84 -18 123c-10 23 -27 44 -51 44h-23zM177 730c37 0 51 34 51 69h47c0 -31 -5 -62 -25 -86c-18 -21 -45 -30 -73 -30h-17c-28 0 -54 9 -72 30c-20 24 -26 55 -26 86h47c0 -35 14 -69 51 -69h17zM249 163c0 52 -14 120 -69 120h-23c-55 0 -69 -68 -69 -120
s14 -120 69 -120h23c55 0 69 68 69 120z" />
    <glyph glyph-name="G" unicode="G" horiz-adv-x="536" 
d="M415 633c-16 72 -53 164 -129 164h-47c-53 0 -89 -47 -109 -98c-34 -88 -38 -184 -38 -279s4 -191 38 -279c20 -51 56 -98 109 -98h47c48 0 88 34 109 78c33 69 38 148 38 224v15h-171v53h229v-413h-58v121c-5 -13 -11 -26 -17 -39c-26 -52 -73 -92 -130 -92h-47
c-68 0 -122 50 -152 112c-47 98 -53 209 -53 318s6 220 53 318c30 62 84 112 152 112h47c68 0 122 -50 152 -112c14 -29 24 -60 32 -91z" />
    <glyph glyph-name="h" unicode="h" horiz-adv-x="341" 
d="M177 503c-61 0 -70 -94 -70 -151v-352h-58v950h58v-440c15 26 40 46 70 46h18c34 0 62 -23 78 -53c24 -46 27 -99 27 -151v-352h-58v352c0 38 -1 76 -12 112c-6 19 -16 39 -35 39h-18z" />
    <glyph glyph-name="aacute" unicode="&#xe1;" horiz-adv-x="353" 
d="M157 503c-32 0 -49 -34 -58 -64l-54 17c5 15 10 29 18 43c20 34 55 57 94 57h23c39 0 74 -23 94 -57c28 -49 34 -107 34 -163v-336h-59v29c-16 -23 -41 -39 -69 -39h-23c-37 0 -72 15 -94 45c-27 36 -33 83 -33 128s6 92 33 128c22 30 57 45 94 45h23c28 0 53 -17 69 -40
v40c0 42 -2 84 -18 123c-10 23 -27 44 -51 44h-23zM199 833h63l-81 -168h-47zM249 163c0 52 -14 120 -69 120h-23c-55 0 -69 -68 -69 -120s14 -120 69 -120h23c55 0 69 68 69 120z" />
    <glyph glyph-name="eacute" unicode="&#xe9;" horiz-adv-x="371" 
d="M201 43c42 0 66 44 76 82l55 -16c-6 -20 -13 -39 -24 -57c-23 -37 -63 -62 -107 -62h-27c-46 0 -86 32 -107 74c-33 64 -37 137 -37 209s4 145 37 209c21 42 61 74 107 74h27c46 0 86 -32 107 -74c33 -64 37 -137 37 -209v-27h-257c1 -49 5 -97 22 -143
c11 -31 33 -60 64 -60h27zM218 833h63l-81 -168h-47zM286 300c-1 49 -4 97 -21 143c-11 31 -33 60 -64 60h-27c-31 0 -53 -29 -64 -60c-17 -46 -21 -94 -22 -143h198z" />
    <glyph glyph-name="Scaron" unicode="&#x160;" horiz-adv-x="390" 
d="M275 693c-6 43 -24 104 -70 104h-24c-25 0 -46 -19 -56 -43c-18 -41 -18 -87 -18 -132c0 -58 15 -118 58 -157l121 -32c57 -51 70 -131 70 -208c0 -62 -3 -125 -36 -177c-24 -38 -67 -58 -112 -58h-30c-45 0 -85 23 -109 61c-17 27 -28 57 -33 88l57 10
c8 -48 33 -106 85 -106h30c80 0 90 107 90 182c0 58 -16 117 -59 155l-121 32c-57 51 -69 133 -69 210c0 59 2 120 32 172c21 35 59 56 100 56h24c41 0 77 -24 98 -59c13 -23 22 -49 27 -75zM238 1071h47l-60 -168h-63l-61 168h47l45 -99z" />
    <glyph glyph-name="greater" unicode="&#x3e;" horiz-adv-x="367" 
d="M293 273l-263 211v71l308 -246v-72l-308 -246v71z" />
    <glyph glyph-name="oe" unicode="&#x153;" horiz-adv-x="592" 
d="M554 109c-15 -60 -57 -119 -123 -119h-25c-51 0 -87 41 -106 87c-19 -46 -55 -87 -106 -87h-25c-45 0 -80 33 -100 74c-31 65 -35 137 -35 209s4 144 35 209c20 41 55 74 100 74h25c51 0 87 -41 106 -87c19 46 55 87 106 87h25c45 0 80 -33 100 -74
c31 -65 35 -137 35 -209v-27h-237c1 -49 5 -97 20 -143c10 -30 27 -60 57 -60h25c39 0 59 45 68 81zM194 503h-25c-30 0 -47 -30 -57 -60c-18 -55 -20 -113 -20 -170s2 -115 20 -170c10 -30 27 -60 57 -60h25c30 0 47 30 57 60c18 55 20 113 20 170s-2 115 -20 170
c-10 30 -27 60 -57 60zM508 300c-1 49 -5 97 -20 143c-10 30 -27 60 -57 60h-25c-30 0 -47 -30 -57 -60c-15 -46 -19 -94 -20 -143h179z" />
    <glyph glyph-name="Nacute" unicode="&#x143;" horiz-adv-x="469" 
d="M52 0v840h100l206 -782v782h58v-840h-100l-205 782v-782h-59zM264 1071h64l-81 -168h-47z" />
    <glyph glyph-name="lacute" unicode="&#x13a;" horiz-adv-x="148" 
d="M45 0v950h58v-950h-58zM113 1188h64l-82 -168h-47z" />
    <glyph glyph-name="less" unicode="&#x3c;" horiz-adv-x="367" 
d="M75 273l263 -211v-71l-308 246v72l308 246v-71z" />
    <glyph glyph-name="asciicircum" unicode="^" horiz-adv-x="405" 
d="M202 733l-113 -397h-60l143 504h61l143 -504h-60z" />
    <glyph glyph-name="seven" unicode="7" 
d="M30 787v53h289v-100l-181 -740h-59l192 787h-241z" />
    <glyph glyph-name="Ocircumflex" unicode="&#xd4;" horiz-adv-x="525" 
d="M286 797h-47c-53 0 -89 -47 -109 -98c-34 -88 -38 -184 -38 -279s4 -191 38 -279c20 -51 56 -98 109 -98h47c53 0 89 47 109 98c34 88 38 184 38 279s-4 191 -38 279c-20 51 -56 98 -109 98zM286 850c68 0 122 -50 152 -112c47 -98 53 -209 53 -318s-6 -220 -53 -318
c-30 -62 -84 -112 -152 -112h-47c-68 0 -122 50 -152 112c-47 98 -53 209 -53 318s6 220 53 318c30 62 84 112 152 112h47zM262 1002l-45 -99h-46l60 168h63l60 -168h-46z" />
    <glyph glyph-name="F" unicode="F" horiz-adv-x="338" 
d="M52 0v840h270v-53h-211v-374h182v-53h-182v-360h-59z" />
    <glyph glyph-name="tilde" unicode="&#x2dc;" horiz-adv-x="158" 
d="M45 747c-24 0 -26 -48 -26 -71h-47c0 54 17 118 73 118c34 0 33 -58 67 -58c24 0 26 47 26 70h47c0 -54 -17 -117 -73 -117c-34 0 -33 58 -67 58z" />
    <glyph glyph-name="iacute" unicode="&#xed;" horiz-adv-x="142" 
d="M42 0v546h58v-546h-58zM101 833h64l-81 -168h-48z" />
    <glyph glyph-name="Otilde" unicode="&#xd5;" horiz-adv-x="525" 
d="M229 978c-24 0 -26 -48 -26 -71h-47c0 54 17 118 73 118c34 0 33 -58 67 -58c24 0 26 47 26 70h47c0 -54 -17 -117 -73 -117c-34 0 -33 58 -67 58zM286 797h-47c-53 0 -89 -47 -109 -98c-34 -88 -38 -184 -38 -279s4 -191 38 -279c20 -51 56 -98 109 -98h47
c53 0 89 47 109 98c34 88 38 184 38 279s-4 191 -38 279c-20 51 -56 98 -109 98zM286 850c68 0 122 -50 152 -112c47 -98 53 -209 53 -318s-6 -220 -53 -318c-30 -62 -84 -112 -152 -112h-47c-68 0 -122 50 -152 112c-47 98 -53 209 -53 318s6 220 53 318
c30 62 84 112 152 112h47z" />
    <glyph glyph-name="parenright" unicode=")" horiz-adv-x="206" 
d="M60 -381l-38 25c28 34 43 108 55 168c29 145 37 293 37 441s-8 296 -37 441c-12 60 -27 134 -55 168l38 25c26 -41 43 -101 58 -155c42 -156 54 -318 54 -479s-12 -323 -54 -479c-15 -54 -32 -114 -58 -155z" />
    <glyph glyph-name="germandbls" unicode="&#xdf;" horiz-adv-x="371" 
d="M157 107c6 -27 16 -64 43 -64h24c23 0 32 27 38 51c12 47 13 96 13 145s-2 99 -19 145c-10 26 -28 52 -55 52h-43v52h43c18 0 24 22 29 41c9 37 10 76 10 114c0 39 -1 78 -15 114c-8 21 -23 40 -44 40h-19c-21 0 -35 -19 -43 -40c-14 -36 -16 -75 -16 -114v-643h-58v643
c0 53 4 107 30 153c18 32 51 54 87 54h19c36 0 69 -22 87 -54c26 -46 30 -100 30 -153c0 -60 -5 -131 -37 -174c59 -42 73 -145 73 -230c0 -63 -4 -126 -29 -184c-15 -35 -44 -65 -81 -65h-24c-53 0 -82 54 -96 102z" />
    <glyph glyph-name="a" unicode="a" horiz-adv-x="353" 
d="M157 503c-32 0 -49 -34 -58 -64l-54 17c5 15 10 29 18 43c20 34 55 57 94 57h23c39 0 74 -23 94 -57c28 -49 34 -107 34 -163v-336h-59v29c-16 -23 -41 -39 -69 -39h-23c-37 0 -72 15 -94 45c-27 36 -33 83 -33 128s6 92 33 128c22 30 57 45 94 45h23c28 0 53 -17 69 -40
v40c0 42 -2 84 -18 123c-10 23 -27 44 -51 44h-23zM249 163c0 52 -14 120 -69 120h-23c-55 0 -69 -68 -69 -120s14 -120 69 -120h23c55 0 69 68 69 120z" />
    <glyph glyph-name="scedilla" unicode="&#x15f;" horiz-adv-x="300" 
d="M194 -244c0 34 -2 109 -38 109h-55l22 126c-28 4 -53 17 -70 40c-15 20 -23 44 -27 68l58 10c5 -32 22 -66 56 -66h20c50 0 59 59 59 106c0 34 -10 69 -37 90l-82 18c-44 33 -59 89 -59 144c0 41 3 83 25 117c17 25 47 38 77 38h14c30 0 58 -15 75 -40
c12 -18 19 -39 23 -60l-57 -10c-4 24 -15 57 -41 57h-14c-41 0 -44 -64 -44 -102c0 -35 13 -70 41 -91l82 -18c43 -32 56 -89 56 -143c0 -42 -4 -86 -29 -120c-19 -26 -51 -38 -83 -39l-15 -83h5c68 0 85 -86 85 -151s-17 -152 -85 -152h-12c-34 0 -58 26 -70 56l41 17
c5 -15 14 -31 29 -31h12c36 0 38 76 38 110z" />
    <glyph glyph-name="ugrave" unicode="&#xf9;" 
d="M311 546v-546h-58v34c-14 -25 -38 -44 -66 -44h-21c-38 0 -72 21 -92 53c-27 45 -33 99 -33 151v352h59v-352c0 -38 2 -77 17 -112c9 -21 27 -39 49 -39h21c22 0 40 18 49 39c15 35 17 74 17 112v352h58zM83 833h63l65 -168h-47z" />
    <glyph glyph-name="uacute" unicode="&#xfa;" 
d="M311 546v-546h-58v34c-14 -25 -38 -44 -66 -44h-21c-38 0 -72 21 -92 53c-27 45 -33 99 -33 151v352h59v-352c0 -38 2 -77 17 -112c9 -21 27 -39 49 -39h21c22 0 40 18 49 39c15 35 17 74 17 112v352h58zM206 833h64l-81 -168h-48z" />
    <glyph glyph-name="Ncaron" unicode="&#x147;" horiz-adv-x="469" 
d="M52 0v840h100l206 -782v782h58v-840h-100l-205 782v-782h-59zM279 1071h47l-60 -168h-63l-60 168h46l45 -99z" />
    <glyph glyph-name="one" unicode="1" horiz-adv-x="255" 
d="M117 0v809l-87 -242v147l45 126h100v-840h-58z" />
    <glyph glyph-name="f" unicode="f" horiz-adv-x="221" 
d="M78 817c0 62 16 143 81 143h8c65 0 81 -81 81 -143h-58c0 22 0 45 -6 67c-3 11 -6 23 -17 23h-8c-11 0 -14 -12 -17 -23c-6 -22 -6 -45 -6 -67v-271h56v-53h-56v-493h-58v493h-57v53h57v271z" />
    <glyph glyph-name="Ugrave" unicode="&#xd9;" horiz-adv-x="446" 
d="M395 840v-582c0 -69 -5 -139 -40 -198c-24 -42 -68 -70 -116 -70h-32c-48 0 -92 28 -116 70c-35 59 -41 129 -41 198v582h59v-582c0 -54 2 -109 25 -159c14 -31 40 -56 73 -56h32c33 0 58 25 72 56c23 50 26 105 26 159v582h58zM129 1071h64l65 -168h-48z" />
    <glyph glyph-name="macron" unicode="&#xaf;" horiz-adv-x="158" 
d="M-12 711v48h181v-48h-181z" />
    <glyph glyph-name="dash" horiz-adv-x="236" 
d="M30 246v54h176v-54h-176z" />
    <glyph glyph-name="thorn" unicode="&#xfe;" horiz-adv-x="382" 
d="M45 -380v1220h58v-357c15 38 42 73 82 73h27c46 0 83 -33 104 -74c32 -64 36 -137 36 -209s-4 -145 -36 -209c-21 -41 -58 -74 -104 -74h-27c-40 0 -67 35 -82 73v-443h-58zM212 503h-27c-31 0 -49 -30 -60 -60c-19 -54 -22 -112 -22 -170s3 -116 22 -170
c11 -30 29 -60 60 -60h27c31 0 50 30 61 60c19 54 21 112 21 170s-2 116 -21 170c-11 30 -30 60 -61 60z" />
    <glyph glyph-name="space" unicode=" " horiz-adv-x="225" 
 />
    </font>
</defs>
</svg>
